<?xml version="1.0" standalone="no"?>
<!DOCTYPE svg PUBLIC "-//W3C//DTD SVG 1.1//EN"
  "http://www.w3.org/Graphics/SVG/1.1/DTD/svg11.dtd">
<svg width="567.91px" height="447.91px" version="1.1"
    xmlns="http://www.w3.org/2000/svg"
    xmlns:xlink="http://www.w3.org/1999/xlink">
<desc>Veusz output document</desc>
<defs>
<clipPath id="c0">
<path d="m0,0l567.91,0l0,447.91l-567.91,0l0,-447.91"/>
</clipPath>
<clipPath id="c1">
<path d="m64.25,7.55l496.1,0l0,376.1l-496.1,0l0,-376.1"/>
</clipPath>
</defs>
<g stroke-linejoin="bevel" stroke-linecap="square" stroke="#000000" fill-rule="evenodd">
<g clip-path="url(#c0)">
<g fill="#ffffff" stroke-width="0.66">
<path d="m64.25,7.55l496.1,0l0,376.1l-496.1,0l0,-376.1" id="p0"/>
</g>
</g>
<g clip-path="url(#c1)">
<g fill="#e41a1c" stroke-width="0.66">
<path d="m115.08,383.65l1.99,0l0,-195.37l-1.99,0l0,195.37m9.84,0l1.99,0l0,-3.58l-1.99,0l0,3.58m2.95,0l1.99,0l0,-126.35l-1.99,0l0,126.35m7.69,0l1.99,0l0,-0.07l-1.99,0l0,0.07m3.45,0l1.99,0l0,-18.14l-1.99,0l0,18.14m8.09,0l1.99,0l0,-0.06l-1.99,0l0,0.06m4.04,0l1.99,0l0,-1.52l-1.99,0l0,1.52m8.53,0l1.99,0l0,0l-1.99,0l0,0m4.72,0l1.99,0l0,-0.09l-1.99,0l0,0.09m8.99,0l1.99,0l0,0l-1.99,0l0,0m5.53,0l1.99,0l0,0l-1.99,0l0,0m9.44,0l1.99,0l0,0l-1.99,0l0,0m6.55,0l1.99,0l0,0l-1.99,0l0,0m10.05,0l1.99,0l0,0l-1.99,0l0,0m7.56,0l1.99,0l0,0l-1.99,0l0,0m10.93,0l1.99,0l-1.99,0l0,0m5.74,0l1.99,0l-1.99,0l0,0m3.04,0l1.99,0l-1.99,0l0,0m11.95,0l1.99,0l-1.99,0l0,0m5.98,0l1.99,0l0,0l-1.99,0l0,0m4.28,0l1.99,0l-1.99,0l0,0m5.07,0l1.99,0l0,-132.84l-1.99,0l0,132.84m13.9,0l1.99,0l0,0l-1.99,0l0,0m6.24,0l1.99,0l-1.99,0l0,0m5.17,0l1.99,0l0,-36.04l-1.99,0l0,36.04m14.49,0l1.99,0l-1.99,0l0,0m13.96,0l1.99,0l0,-5.83l-1.99,0l0,5.83m15.05,0l1.99,0l-1.99,0l0,0m17.12,0l1.99,0l0,-0.73l-1.99,0l0,0.73m15.53,0l1.99,0l-1.99,0l0,0m21.09,0l1.99,0l0,-0.08l-1.99,0l0,0.08m16.3,0l1.99,0l-1.99,0l0,0m25.72,0l1.99,0l0,0l-1.99,0l0,0m17.98,0l1.99,0l-1.99,0l0,0m31.2,0l1.99,0l0,0l-1.99,0l0,0m20.53,0l1.99,0l-1.99,0l0,0m38.43,0l1.99,0l0,0l-1.99,0l0,0m23.76,0l1.99,0l-1.99,0l0,0" id="p1"/>
</g>
</g>
<g clip-path="url(#c0)">
<g fill="none" stroke-linecap="butt" stroke-width="0.66">
<path d="M64.25,383.65l0,-376.1"/>
<path d="M64.25,366.56l4,0M64.25,349.46l4,0M64.25,332.37l4,0M64.25,315.27l4,0M64.25,298.18l4,0M64.25,281.08l4,0M64.25,263.99l4,0M64.25,246.89l4,0M64.25,229.8l4,0M64.25,212.7l4,0M64.25,195.6l4,0M64.25,178.51l4,0M64.25,161.41l4,0M64.25,144.32l4,0M64.25,127.22l4,0M64.25,110.13l4,0M64.25,93.03l4,0M64.25,75.94l4,0M64.25,58.84l4,0M64.25,41.75l4,0M64.25,24.65l4,0M64.25,7.55l4,0"/>
<path d="M64.25,315.27l8,0M64.25,246.89l8,0M64.25,178.51l8,0M64.25,110.13l8,0M64.25,41.75l8,0"/>
</g>
<g fill="none" stroke-width="0.1">
<g transform="matrix(0 -1 1 0 22.32 228.32)">
<path d="m5.77,-0.33l0,0.33l-5.3,0l0,-0.33l0.43,0c0.51,0,0.88,-0.14,1.11,-0.44c0.14,-0.19,0.21,-0.66,0.21,-1.4l0,-7.99c0,-0.62,-0.03,-1.04,-0.11,-1.24c-0.06,-0.15,-0.18,-0.28,-0.37,-0.39c-0.26,-0.14,-0.54,-0.21,-0.84,-0.21l-0.43,0l0,-0.33l5.3,0l0,0.33l-0.44,0c-0.5,0,-0.87,0.14,-1.1,0.44c-0.15,0.19,-0.22,0.66,-0.22,1.4l0,7.99c0,0.62,0.03,1.04,0.11,1.24c0.06,0.15,0.18,0.28,0.38,0.39c0.26,0.14,0.53,0.21,0.83,0.21l0.44,0m3.47,-6.5c0.98,-1.18,1.91,-1.77,2.8,-1.77c0.45,0,0.84,0.11,1.17,0.34c0.32,0.22,0.59,0.6,0.78,1.12c0.13,0.36,0.2,0.92,0.2,1.68l0,3.57c0,0.52,0.04,0.88,0.12,1.07c0.06,0.15,0.17,0.27,0.32,0.35c0.14,0.08,0.42,0.12,0.82,0.12l0,0.32l-4.13,0l0,-0.32l0.17,0c0.38,0,0.66,-0.05,0.81,-0.17c0.15,-0.11,0.26,-0.29,0.32,-0.52c0.02,-0.09,0.03,-0.37,0.03,-0.85l0,-3.42c0,-0.76,-0.09,-1.31,-0.29,-1.65c-0.19,-0.34,-0.53,-0.51,-0.99,-0.51c-0.72,0,-1.44,0.39,-2.16,1.18l0,4.41c0,0.56,0.03,0.91,0.1,1.05c0.08,0.17,0.2,0.3,0.35,0.38c0.14,0.08,0.45,0.12,0.9,0.12l0,0.32l-4.13,0l0,-0.32l0.18,0c0.42,0,0.71,-0.1,0.86,-0.32c0.14,-0.21,0.22,-0.62,0.22,-1.23l0,-3.1c0,-1,-0.02,-1.61,-0.06,-1.83c-0.04,-0.21,-0.11,-0.36,-0.21,-0.44c-0.09,-0.07,-0.22,-0.11,-0.37,-0.11c-0.17,0,-0.37,0.04,-0.61,0.13l-0.13,-0.32l2.52,-1.02l0.39,0l0,1.77m9.34,-4.27l0,2.74l1.95,0l0,0.63l-1.95,0l0,5.42c0,0.54,0.07,0.9,0.23,1.09c0.15,0.18,0.35,0.28,0.59,0.28c0.2,0,0.39,-0.06,0.58,-0.18c0.18,-0.12,0.33,-0.3,0.43,-0.55l0.35,0c-0.21,0.59,-0.51,1.04,-0.9,1.34c-0.38,0.3,-0.79,0.45,-1.2,0.45c-0.28,0,-0.55,-0.07,-0.82,-0.23c-0.26,-0.15,-0.46,-0.37,-0.59,-0.66c-0.12,-0.28,-0.19,-0.73,-0.19,-1.33l0,-5.62l-1.32,0l0,-0.3c0.33,-0.13,0.67,-0.36,1.02,-0.68c0.35,-0.31,0.66,-0.69,0.93,-1.13c0.14,-0.23,0.33,-0.65,0.58,-1.26l0.28,0m4.17,5.89c0,1.24,0.29,2.21,0.9,2.92c0.6,0.7,1.32,1.05,2.14,1.05c0.54,0,1.02,-0.15,1.42,-0.45c0.4,-0.3,0.74,-0.81,1.01,-1.54l0.28,0.18c-0.12,0.83,-0.49,1.59,-1.11,2.27c-0.61,0.68,-1.38,1.02,-2.31,1.02c-1,0,-1.86,-0.39,-2.57,-1.17c-0.71,-0.78,-1.07,-1.83,-1.07,-3.15c0,-1.43,0.36,-2.54,1.1,-3.34c0.73,-0.8,1.65,-1.2,2.76,-1.2c0.93,0,1.7,0.3,2.31,0.92c0.6,0.61,0.9,1.44,0.9,2.47l-5.77,0m0,-0.52l3.87,0c-0.03,-0.53,-0.09,-0.91,-0.19,-1.13c-0.15,-0.34,-0.37,-0.6,-0.68,-0.8c-0.3,-0.19,-0.61,-0.29,-0.94,-0.29c-0.5,0,-0.95,0.19,-1.35,0.58c-0.39,0.39,-0.63,0.93,-0.69,1.63m9.33,-1.09c0.98,-1.18,1.91,-1.77,2.8,-1.77c0.45,0,0.84,0.11,1.17,0.34c0.32,0.22,0.59,0.6,0.78,1.12c0.13,0.36,0.2,0.92,0.2,1.68l0,3.57c0,0.52,0.04,0.88,0.12,1.07c0.06,0.15,0.17,0.27,0.32,0.35c0.14,0.08,0.42,0.12,0.82,0.12l0,0.32l-4.13,0l0,-0.32l0.17,0c0.38,0,0.66,-0.05,0.81,-0.17c0.15,-0.11,0.26,-0.29,0.32,-0.52c0.02,-0.09,0.03,-0.37,0.03,-0.85l0,-3.42c0,-0.76,-0.09,-1.31,-0.29,-1.65c-0.19,-0.34,-0.53,-0.51,-0.99,-0.51c-0.72,0,-1.44,0.39,-2.16,1.18l0,4.41c0,0.56,0.03,0.91,0.1,1.05c0.08,0.17,0.2,0.3,0.35,0.38c0.14,0.08,0.45,0.12,0.9,0.12l0,0.32l-4.13,0l0,-0.32l0.18,0c0.42,0,0.71,-0.1,0.86,-0.32c0.14,-0.21,0.22,-0.62,0.22,-1.23l0,-3.1c0,-1,-0.02,-1.61,-0.06,-1.83c-0.04,-0.21,-0.11,-0.36,-0.21,-0.44c-0.09,-0.07,-0.22,-0.11,-0.37,-0.11c-0.17,0,-0.37,0.04,-0.61,0.13l-0.13,-0.32l2.52,-1.02l0.39,0l0,1.77m12.31,-1.77l0,2.84l-0.3,0c-0.23,-0.89,-0.52,-1.5,-0.89,-1.82c-0.36,-0.32,-0.82,-0.48,-1.38,-0.48c-0.42,0,-0.77,0.11,-1.03,0.33c-0.26,0.22,-0.39,0.47,-0.39,0.74c0,0.34,0.09,0.63,0.29,0.87c0.18,0.24,0.57,0.51,1.15,0.79l1.33,0.64c1.23,0.6,1.85,1.39,1.85,2.38c0,0.76,-0.28,1.37,-0.86,1.83c-0.57,0.46,-1.21,0.69,-1.93,0.69c-0.51,0,-1.09,-0.09,-1.75,-0.27c-0.2,-0.06,-0.36,-0.09,-0.49,-0.09c-0.14,0,-0.24,0.07,-0.32,0.23l-0.3,0l0,-2.98l0.3,0c0.17,0.85,0.49,1.49,0.97,1.92c0.48,0.43,1.01,0.64,1.61,0.64c0.42,0,0.76,-0.12,1.02,-0.36c0.26,-0.24,0.39,-0.54,0.39,-0.89c0,-0.42,-0.14,-0.77,-0.44,-1.05c-0.29,-0.28,-0.88,-0.64,-1.76,-1.08c-0.88,-0.43,-1.46,-0.83,-1.73,-1.18c-0.27,-0.34,-0.41,-0.78,-0.41,-1.31c0,-0.68,0.23,-1.26,0.7,-1.72c0.47,-0.46,1.08,-0.69,1.83,-0.69c0.32,0,0.72,0.07,1.19,0.21c0.31,0.09,0.51,0.13,0.62,0.13c0.09,0,0.17,-0.02,0.22,-0.06c0.05,-0.04,0.11,-0.13,0.19,-0.28l0.3,0m3.99,-4.37c0.25,0,0.47,0.08,0.65,0.26c0.17,0.17,0.26,0.39,0.26,0.65c0,0.25,-0.08,0.47,-0.26,0.65c-0.17,0.18,-0.39,0.27,-0.65,0.27c-0.25,0,-0.47,-0.09,-0.65,-0.27c-0.18,-0.18,-0.27,-0.4,-0.27,-0.65c0,-0.25,0.08,-0.47,0.26,-0.65c0.17,-0.17,0.4,-0.26,0.66,-0.26m0.75,4.37l0,6.72c0,0.52,0.03,0.87,0.11,1.04c0.07,0.17,0.18,0.3,0.33,0.38c0.14,0.08,0.42,0.12,0.81,0.12l0,0.32l-4.06,0l0,-0.32c0.4,0,0.68,-0.03,0.82,-0.11c0.14,-0.07,0.25,-0.21,0.33,-0.39c0.08,-0.18,0.12,-0.53,0.12,-1.05l0,-3.22c0,-0.9,-0.02,-1.49,-0.08,-1.76c-0.04,-0.19,-0.1,-0.33,-0.2,-0.4c-0.09,-0.07,-0.21,-0.11,-0.37,-0.11c-0.17,0,-0.37,0.04,-0.62,0.13l-0.12,-0.32l2.52,-1.02l0.4,0m4.73,-2.5l0,2.74l1.95,0l0,0.63l-1.95,0l0,5.42c0,0.54,0.07,0.9,0.23,1.09c0.15,0.18,0.35,0.28,0.59,0.28c0.2,0,0.39,-0.06,0.58,-0.18c0.18,-0.12,0.33,-0.3,0.43,-0.55l0.35,0c-0.21,0.59,-0.51,1.04,-0.9,1.34c-0.38,0.3,-0.79,0.45,-1.2,0.45c-0.28,0,-0.55,-0.07,-0.82,-0.23c-0.26,-0.15,-0.46,-0.37,-0.59,-0.66c-0.12,-0.28,-0.19,-0.73,-0.19,-1.33l0,-5.62l-1.32,0l0,-0.3c0.33,-0.13,0.67,-0.36,1.02,-0.68c0.35,-0.31,0.66,-0.69,0.93,-1.13c0.14,-0.23,0.33,-0.65,0.58,-1.26l0.28,0m2.29,2.74l3.89,0l0,0.33l-0.19,0c-0.27,0,-0.47,0.05,-0.61,0.17c-0.13,0.11,-0.2,0.26,-0.2,0.44c0,0.23,0.1,0.56,0.3,0.98l2.03,4.21l1.87,-4.62c0.1,-0.24,0.15,-0.49,0.15,-0.73c0,-0.1,-0.02,-0.19,-0.06,-0.24c-0.04,-0.06,-0.12,-0.12,-0.22,-0.15c-0.1,-0.03,-0.28,-0.05,-0.54,-0.05l0,-0.33l2.72,0l0,0.33c-0.22,0.02,-0.39,0.07,-0.52,0.14c-0.12,0.07,-0.25,0.21,-0.4,0.41c-0.05,0.08,-0.15,0.31,-0.31,0.7l-3.4,8.34c-0.32,0.8,-0.75,1.42,-1.29,1.83c-0.53,0.41,-1.04,0.62,-1.53,0.62c-0.35,0,-0.65,-0.1,-0.88,-0.31c-0.23,-0.2,-0.34,-0.44,-0.34,-0.71c0,-0.25,0.08,-0.46,0.25,-0.61c0.16,-0.15,0.39,-0.23,0.68,-0.23c0.2,0,0.47,0.06,0.82,0.2c0.24,0.09,0.39,0.13,0.45,0.13c0.18,0,0.38,-0.09,0.59,-0.28c0.21,-0.18,0.43,-0.55,0.65,-1.09l0.59,-1.45l-3,-6.3c-0.09,-0.18,-0.23,-0.42,-0.43,-0.7c-0.15,-0.21,-0.27,-0.35,-0.37,-0.42c-0.14,-0.09,-0.36,-0.18,-0.67,-0.25l0,-0.33" fill="#000000" stroke="none" fill-opacity="1"/>
</g>
<path d="m36.71,315.58c0,-1.41,0.21,-2.62,0.63,-3.64c0.42,-1.01,0.99,-1.77,1.69,-2.27c0.54,-0.39,1.11,-0.59,1.69,-0.59c0.94,0,1.8,0.48,2.55,1.45c0.94,1.19,1.41,2.82,1.41,4.87c0,1.43,-0.2,2.65,-0.62,3.66c-0.41,1,-0.94,1.73,-1.58,2.18c-0.64,0.45,-1.26,0.68,-1.85,0.68c-1.18,0,-2.16,-0.69,-2.94,-2.09c-0.66,-1.17,-0.99,-2.59,-0.99,-4.24m1.78,0.22c0,1.7,0.21,3.09,0.63,4.17c0.34,0.9,0.86,1.36,1.55,1.36c0.32,0,0.66,-0.14,1.02,-0.44c0.35,-0.29,0.62,-0.78,0.8,-1.48c0.28,-1.04,0.42,-2.52,0.42,-4.42c0,-1.41,-0.14,-2.59,-0.43,-3.53c-0.21,-0.7,-0.5,-1.19,-0.84,-1.48c-0.24,-0.2,-0.55,-0.3,-0.9,-0.3c-0.41,0,-0.78,0.18,-1.1,0.55c-0.43,0.5,-0.73,1.29,-0.89,2.38c-0.15,1.08,-0.23,2.15,-0.23,3.2m9.22,4.11c0.28,0,0.52,0.09,0.72,0.29c0.19,0.19,0.29,0.43,0.29,0.71c0,0.28,-0.09,0.51,-0.29,0.71c-0.19,0.19,-0.43,0.29,-0.71,0.29c-0.28,0,-0.51,-0.09,-0.71,-0.29c-0.19,-0.19,-0.29,-0.43,-0.29,-0.71c0,-0.28,0.09,-0.52,0.29,-0.72c0.19,-0.19,0.43,-0.29,0.71,-0.29m10.91,-0.61l-0.86,2.38l-7.3,0l0,-0.33c2.14,-1.96,3.66,-3.56,4.53,-4.8c0.87,-1.24,1.31,-2.37,1.31,-3.4c0,-0.78,-0.24,-1.43,-0.72,-1.93c-0.48,-0.5,-1.05,-0.75,-1.72,-0.75c-0.6,0,-1.15,0.17,-1.63,0.53c-0.48,0.35,-0.84,0.87,-1.07,1.56l-0.33,0c0.15,-1.12,0.54,-1.99,1.17,-2.59c0.63,-0.6,1.41,-0.9,2.36,-0.9c1,0,1.84,0.32,2.51,0.96c0.67,0.64,1,1.4,1,2.28c0,0.62,-0.14,1.25,-0.43,1.88c-0.45,0.98,-1.18,2.03,-2.19,3.13c-1.51,1.65,-2.46,2.65,-2.83,2.99l3.23,0c0.65,0,1.11,-0.02,1.38,-0.07c0.26,-0.04,0.5,-0.14,0.71,-0.29c0.21,-0.14,0.39,-0.36,0.55,-0.63l0.33,0" fill="#000000" stroke="none" fill-opacity="1"/>
<path d="m36.71,247.2c0,-1.41,0.21,-2.62,0.63,-3.64c0.42,-1.01,0.99,-1.77,1.69,-2.27c0.54,-0.39,1.11,-0.59,1.69,-0.59c0.94,0,1.8,0.48,2.55,1.45c0.94,1.19,1.41,2.82,1.41,4.87c0,1.43,-0.2,2.65,-0.62,3.66c-0.41,1,-0.94,1.73,-1.58,2.18c-0.64,0.45,-1.26,0.68,-1.85,0.68c-1.18,0,-2.16,-0.69,-2.94,-2.09c-0.66,-1.17,-0.99,-2.59,-0.99,-4.24m1.78,0.22c0,1.7,0.21,3.09,0.63,4.17c0.34,0.9,0.86,1.36,1.55,1.36c0.32,0,0.66,-0.14,1.02,-0.44c0.35,-0.29,0.62,-0.78,0.8,-1.48c0.28,-1.04,0.42,-2.52,0.42,-4.42c0,-1.41,-0.14,-2.59,-0.43,-3.53c-0.21,-0.7,-0.5,-1.19,-0.84,-1.48c-0.24,-0.2,-0.55,-0.3,-0.9,-0.3c-0.41,0,-0.78,0.18,-1.1,0.55c-0.43,0.5,-0.73,1.29,-0.89,2.38c-0.15,1.08,-0.23,2.15,-0.23,3.2m9.22,4.11c0.28,0,0.52,0.09,0.72,0.29c0.19,0.19,0.29,0.43,0.29,0.71c0,0.28,-0.09,0.51,-0.29,0.71c-0.19,0.19,-0.43,0.29,-0.71,0.29c-0.28,0,-0.51,-0.09,-0.71,-0.29c-0.19,-0.19,-0.29,-0.43,-0.29,-0.71c0,-0.28,0.09,-0.52,0.29,-0.72c0.19,-0.19,0.43,-0.29,0.71,-0.29m11.03,-2.79l0,1.29l-1.66,0l0,3.26l-1.5,0l0,-3.26l-5.24,0l0,-1.16l5.74,-8.19l1,0l0,8.07l1.66,0m-3.16,0l0,-6.14l-4.34,6.14l4.34,0" fill="#000000" stroke="none" fill-opacity="1"/>
<path d="m36.71,178.82c0,-1.41,0.21,-2.62,0.63,-3.64c0.42,-1.01,0.99,-1.77,1.69,-2.27c0.54,-0.39,1.11,-0.59,1.69,-0.59c0.94,0,1.8,0.48,2.55,1.45c0.94,1.19,1.41,2.82,1.41,4.87c0,1.43,-0.2,2.65,-0.62,3.66c-0.41,1,-0.94,1.73,-1.58,2.18c-0.64,0.45,-1.26,0.68,-1.85,0.68c-1.18,0,-2.16,-0.69,-2.94,-2.09c-0.66,-1.17,-0.99,-2.59,-0.99,-4.24m1.78,0.22c0,1.7,0.21,3.09,0.63,4.17c0.34,0.9,0.86,1.36,1.55,1.36c0.32,0,0.66,-0.14,1.02,-0.44c0.35,-0.29,0.62,-0.78,0.8,-1.48c0.28,-1.04,0.42,-2.52,0.42,-4.42c0,-1.41,-0.14,-2.59,-0.43,-3.53c-0.21,-0.7,-0.5,-1.19,-0.84,-1.48c-0.24,-0.2,-0.55,-0.3,-0.9,-0.3c-0.41,0,-0.78,0.18,-1.1,0.55c-0.43,0.5,-0.73,1.29,-0.89,2.38c-0.15,1.08,-0.23,2.15,-0.23,3.2m9.22,4.11c0.28,0,0.52,0.09,0.72,0.29c0.19,0.19,0.29,0.43,0.29,0.71c0,0.28,-0.09,0.51,-0.29,0.71c-0.19,0.19,-0.43,0.29,-0.71,0.29c-0.28,0,-0.51,-0.09,-0.71,-0.29c-0.19,-0.19,-0.29,-0.43,-0.29,-0.71c0,-0.28,0.09,-0.52,0.29,-0.72c0.19,-0.19,0.43,-0.29,0.71,-0.29m10.71,-10.86l0,0.33c-0.8,0.07,-1.45,0.23,-1.96,0.47c-0.5,0.24,-1.01,0.6,-1.5,1.1c-0.49,0.49,-0.9,1.04,-1.23,1.64c-0.32,0.6,-0.59,1.32,-0.81,2.15c0.87,-0.6,1.75,-0.9,2.63,-0.9c0.84,0,1.57,0.34,2.2,1.02c0.62,0.68,0.93,1.55,0.93,2.62c0,1.03,-0.31,1.97,-0.94,2.83c-0.75,1.03,-1.75,1.55,-2.99,1.55c-0.84,0,-1.56,-0.28,-2.15,-0.84c-1.15,-1.08,-1.73,-2.5,-1.73,-4.23c0,-1.1,0.22,-2.16,0.66,-3.15c0.44,-0.99,1.07,-1.88,1.9,-2.65c0.82,-0.77,1.61,-1.29,2.36,-1.56c0.75,-0.26,1.45,-0.4,2.1,-0.4l0.52,0m-5.67,6.39c-0.1,0.82,-0.16,1.48,-0.16,1.99c0,0.58,0.1,1.21,0.32,1.9c0.21,0.68,0.53,1.22,0.96,1.62c0.31,0.28,0.68,0.42,1.13,0.42c0.52,0,1,-0.24,1.41,-0.74c0.41,-0.49,0.62,-1.21,0.62,-2.13c0,-1.04,-0.2,-1.94,-0.62,-2.7c-0.41,-0.76,-1,-1.14,-1.76,-1.14c-0.23,0,-0.47,0.04,-0.74,0.14c-0.26,0.09,-0.65,0.3,-1.17,0.63" fill="#000000" stroke="none" fill-opacity="1"/>
<path d="m36.71,110.44c0,-1.41,0.21,-2.62,0.63,-3.64c0.42,-1.01,0.99,-1.77,1.69,-2.27c0.54,-0.39,1.11,-0.59,1.69,-0.59c0.94,0,1.8,0.48,2.55,1.45c0.94,1.19,1.41,2.82,1.41,4.87c0,1.43,-0.2,2.65,-0.62,3.66c-0.41,1,-0.94,1.73,-1.58,2.18c-0.64,0.45,-1.26,0.68,-1.85,0.68c-1.18,0,-2.16,-0.69,-2.94,-2.09c-0.66,-1.17,-0.99,-2.59,-0.99,-4.24m1.78,0.22c0,1.7,0.21,3.09,0.63,4.17c0.34,0.9,0.86,1.36,1.55,1.36c0.32,0,0.66,-0.14,1.02,-0.44c0.35,-0.29,0.62,-0.78,0.8,-1.48c0.28,-1.04,0.42,-2.52,0.42,-4.42c0,-1.41,-0.14,-2.59,-0.43,-3.53c-0.21,-0.7,-0.5,-1.19,-0.84,-1.48c-0.24,-0.2,-0.55,-0.3,-0.9,-0.3c-0.41,0,-0.78,0.18,-1.1,0.55c-0.43,0.5,-0.73,1.29,-0.89,2.38c-0.15,1.08,-0.23,2.15,-0.23,3.2m9.22,4.11c0.28,0,0.52,0.09,0.72,0.29c0.19,0.19,0.29,0.43,0.29,0.71c0,0.28,-0.09,0.51,-0.29,0.71c-0.19,0.19,-0.43,0.29,-0.71,0.29c-0.28,0,-0.51,-0.09,-0.71,-0.29c-0.19,-0.19,-0.29,-0.43,-0.29,-0.71c0,-0.28,0.09,-0.52,0.29,-0.72c0.19,-0.19,0.43,-0.29,0.71,-0.29m5.92,-4.46c-0.98,-0.8,-1.61,-1.44,-1.89,-1.93c-0.28,-0.48,-0.42,-0.99,-0.42,-1.51c0,-0.8,0.31,-1.49,0.93,-2.07c0.62,-0.58,1.44,-0.87,2.47,-0.87c0.99,0,1.8,0.27,2.41,0.81c0.6,0.54,0.91,1.15,0.91,1.85c0,0.46,-0.16,0.93,-0.49,1.41c-0.32,0.48,-1.01,1.04,-2.05,1.69c1.07,0.82,1.78,1.47,2.12,1.95c0.46,0.62,0.69,1.27,0.69,1.96c0,0.87,-0.33,1.61,-0.99,2.23c-0.66,0.61,-1.53,0.92,-2.61,0.92c-1.17,0,-2.09,-0.36,-2.74,-1.1c-0.52,-0.59,-0.78,-1.23,-0.78,-1.93c0,-0.54,0.18,-1.09,0.55,-1.62c0.36,-0.53,1,-1.13,1.9,-1.78m1.43,-0.97c0.73,-0.65,1.19,-1.17,1.38,-1.55c0.19,-0.38,0.29,-0.81,0.29,-1.29c0,-0.63,-0.17,-1.13,-0.53,-1.5c-0.35,-0.36,-0.84,-0.54,-1.47,-0.54c-0.62,0,-1.12,0.17,-1.51,0.53c-0.38,0.35,-0.58,0.77,-0.58,1.26c0,0.31,0.08,0.63,0.24,0.94c0.16,0.31,0.39,0.61,0.68,0.9l1.49,1.24m-1,1.32c-0.5,0.42,-0.87,0.89,-1.12,1.39c-0.24,0.5,-0.36,1.04,-0.36,1.62c0,0.78,0.21,1.41,0.64,1.88c0.42,0.47,0.97,0.7,1.63,0.7c0.65,0,1.18,-0.18,1.57,-0.55c0.39,-0.37,0.59,-0.82,0.59,-1.35c0,-0.43,-0.11,-0.83,-0.34,-1.17c-0.43,-0.64,-1.3,-1.48,-2.62,-2.52" fill="#000000" stroke="none" fill-opacity="1"/>
<path d="m52.25,37.01l3.01,-1.47l0.3,0l0,10.45c0,0.69,0.02,1.12,0.08,1.29c0.05,0.17,0.17,0.3,0.36,0.39c0.18,0.09,0.55,0.14,1.11,0.15l0,0.33l-4.65,0l0,-0.33c0.58,-0.01,0.96,-0.06,1.13,-0.15c0.17,-0.08,0.28,-0.2,0.35,-0.35c0.06,-0.14,0.1,-0.59,0.1,-1.33l0,-6.68c0,-0.9,-0.03,-1.47,-0.09,-1.73c-0.04,-0.19,-0.12,-0.33,-0.23,-0.42c-0.11,-0.09,-0.24,-0.13,-0.4,-0.13c-0.22,0,-0.53,0.09,-0.94,0.28l-0.13,-0.28" fill="#000000" stroke="none" fill-opacity="1"/>
</g>
<g fill="none" stroke-linecap="butt" stroke-width="0.66">
<path d="M560.35,383.65l0,-376.1"/>
<path d="M560.35,366.56l-4,0M560.35,349.46l-4,0M560.35,332.37l-4,0M560.35,315.27l-4,0M560.35,298.18l-4,0M560.35,281.08l-4,0M560.35,263.99l-4,0M560.35,246.89l-4,0M560.35,229.8l-4,0M560.35,212.7l-4,0M560.35,195.6l-4,0M560.35,178.51l-4,0M560.35,161.41l-4,0M560.35,144.32l-4,0M560.35,127.22l-4,0M560.35,110.13l-4,0M560.35,93.03l-4,0M560.35,75.94l-4,0M560.35,58.84l-4,0M560.35,41.75l-4,0M560.35,24.65l-4,0M560.35,7.55l-4,0"/>
<path d="M560.35,315.27l-8,0M560.35,246.89l-8,0M560.35,178.51l-8,0M560.35,110.13l-8,0M560.35,41.75l-8,0"/>
<path d="M64.25,383.65l496.1,0"/>
<path d="M64.25,383.65l0,-4M102.41,383.65l0,-4M140.57,383.65l0,-4M178.73,383.65l0,-4M216.89,383.65l0,-4M255.06,383.65l0,-4M293.22,383.65l0,-4M331.38,383.65l0,-4M369.54,383.65l0,-4M407.7,383.65l0,-4M445.86,383.65l0,-4M484.02,383.65l0,-4M522.19,383.65l0,-4M560.35,383.65l0,-4"/>
<path d="M64.25,383.65l0,-8M140.57,383.65l0,-8M216.89,383.65l0,-8M293.22,383.65l0,-8M369.54,383.65l0,-8M445.86,383.65l0,-8M522.19,383.65l0,-8"/>
</g>
<g fill="none" stroke-width="0.1">
<path d="m267.21,419.11l0,0.33c-0.32,0,-0.58,0.05,-0.78,0.17c-0.2,0.11,-0.39,0.33,-0.57,0.64c-0.12,0.21,-0.31,0.72,-0.57,1.52l-3.45,9.98l-0.36,0l-2.82,-7.91l-2.8,7.91l-0.32,0l-3.67,-10.28c-0.27,-0.76,-0.44,-1.22,-0.52,-1.36c-0.12,-0.23,-0.28,-0.4,-0.49,-0.51c-0.21,-0.11,-0.49,-0.16,-0.85,-0.16l0,-0.33l4.58,0l0,0.33l-0.21,0c-0.32,0,-0.56,0.07,-0.73,0.21c-0.17,0.14,-0.25,0.32,-0.25,0.52c0,0.21,0.13,0.7,0.4,1.47l2.43,6.94l2.05,-5.9l-0.36,-1.04l-0.29,-0.83c-0.12,-0.3,-0.27,-0.57,-0.42,-0.8c-0.07,-0.11,-0.17,-0.21,-0.29,-0.29c-0.15,-0.1,-0.3,-0.18,-0.45,-0.23c-0.11,-0.03,-0.29,-0.05,-0.54,-0.05l0,-0.33l4.82,0l0,0.33l-0.32,0c-0.34,0,-0.59,0.07,-0.74,0.21c-0.15,0.14,-0.23,0.34,-0.23,0.59c0,0.31,0.13,0.85,0.41,1.62l2.37,6.72l2.35,-6.82c0.26,-0.75,0.4,-1.27,0.4,-1.57c0,-0.14,-0.04,-0.27,-0.13,-0.39c-0.08,-0.12,-0.19,-0.2,-0.33,-0.25c-0.23,-0.08,-0.53,-0.12,-0.9,-0.12l0,-0.33l3.69,0m3.97,11.17c-0.85,0.66,-1.39,1.04,-1.61,1.15c-0.32,0.15,-0.67,0.22,-1.05,0.22c-0.57,0,-1.05,-0.19,-1.42,-0.59c-0.37,-0.39,-0.56,-0.91,-0.56,-1.56c0,-0.4,0.09,-0.76,0.27,-1.05c0.24,-0.41,0.68,-0.8,1.3,-1.16c0.61,-0.36,1.64,-0.8,3.08,-1.33l0,-0.32c0,-0.83,-0.13,-1.4,-0.39,-1.71c-0.26,-0.31,-0.64,-0.46,-1.15,-0.46c-0.38,0,-0.68,0.1,-0.91,0.31c-0.23,0.2,-0.34,0.44,-0.34,0.71l0.01,0.52c0,0.28,-0.07,0.49,-0.21,0.64c-0.14,0.15,-0.33,0.22,-0.56,0.22c-0.22,0,-0.4,-0.07,-0.55,-0.23c-0.14,-0.15,-0.21,-0.37,-0.21,-0.64c0,-0.52,0.26,-1,0.8,-1.44c0.53,-0.43,1.28,-0.65,2.25,-0.65c0.74,0,1.35,0.12,1.82,0.37c0.35,0.18,0.62,0.48,0.79,0.88c0.1,0.26,0.16,0.79,0.16,1.6l0,2.83c0,0.79,0.01,1.28,0.04,1.46c0.03,0.17,0.08,0.29,0.15,0.36c0.07,0.06,0.15,0.09,0.24,0.09c0.09,0,0.18,-0.02,0.25,-0.06c0.12,-0.07,0.37,-0.3,0.73,-0.66l0,0.51c-0.68,0.91,-1.33,1.36,-1.95,1.36c-0.29,0,-0.53,-0.1,-0.71,-0.31c-0.17,-0.2,-0.26,-0.56,-0.27,-1.05m0,-0.59l0,-3.18c-0.91,0.36,-1.51,0.62,-1.78,0.77c-0.48,0.26,-0.82,0.54,-1.03,0.84c-0.2,0.29,-0.31,0.61,-0.31,0.95c0,0.43,0.13,0.8,0.39,1.09c0.26,0.28,0.56,0.43,0.9,0.43c0.46,0,1.07,-0.3,1.82,-0.91m3.13,-6.56l3.93,0l0,0.33l-0.25,0c-0.23,0,-0.41,0.05,-0.54,0.17c-0.12,0.11,-0.18,0.27,-0.18,0.46c0,0.21,0.06,0.46,0.19,0.75l1.94,4.62l1.95,-4.79c0.14,-0.34,0.21,-0.59,0.21,-0.77c0,-0.08,-0.02,-0.15,-0.07,-0.21c-0.06,-0.09,-0.15,-0.15,-0.25,-0.18c-0.1,-0.03,-0.31,-0.05,-0.63,-0.05l0,-0.33l2.73,0l0,0.33c-0.31,0.02,-0.53,0.08,-0.65,0.19c-0.21,0.18,-0.4,0.48,-0.57,0.91l-2.96,7.17l-0.37,0l-2.98,-7.05c-0.13,-0.32,-0.26,-0.56,-0.38,-0.7c-0.12,-0.14,-0.27,-0.26,-0.46,-0.36c-0.1,-0.05,-0.3,-0.1,-0.61,-0.15l0,-0.33m11.18,3.15c0,1.24,0.29,2.21,0.9,2.92c0.6,0.7,1.32,1.05,2.14,1.05c0.54,0,1.02,-0.15,1.42,-0.45c0.4,-0.3,0.74,-0.81,1.01,-1.54l0.28,0.18c-0.12,0.83,-0.49,1.59,-1.11,2.27c-0.61,0.68,-1.38,1.02,-2.31,1.02c-1,0,-1.86,-0.39,-2.57,-1.17c-0.71,-0.78,-1.07,-1.83,-1.07,-3.15c0,-1.43,0.36,-2.54,1.1,-3.34c0.73,-0.8,1.65,-1.2,2.76,-1.2c0.93,0,1.7,0.3,2.31,0.92c0.6,0.61,0.9,1.44,0.9,2.47l-5.77,0m0,-0.52l3.87,0c-0.03,-0.53,-0.09,-0.91,-0.19,-1.13c-0.15,-0.34,-0.37,-0.6,-0.68,-0.8c-0.3,-0.19,-0.61,-0.29,-0.94,-0.29c-0.5,0,-0.95,0.19,-1.35,0.58c-0.39,0.39,-0.63,0.93,-0.69,1.63m9.76,-7.24l0,11.09c0,0.52,0.03,0.87,0.11,1.04c0.07,0.17,0.19,0.29,0.35,0.38c0.15,0.08,0.45,0.13,0.88,0.13l0,0.32l-4.09,0l0,-0.32c0.38,0,0.64,-0.03,0.78,-0.11c0.14,-0.07,0.24,-0.21,0.32,-0.39c0.07,-0.18,0.11,-0.53,0.11,-1.05l0,-7.59c0,-0.94,-0.02,-1.52,-0.06,-1.73c-0.04,-0.21,-0.11,-0.36,-0.2,-0.44c-0.09,-0.07,-0.21,-0.11,-0.36,-0.11c-0.15,0,-0.35,0.04,-0.6,0.14l-0.15,-0.31l2.49,-1.02l0.41,0m3.72,7.77c0,1.24,0.29,2.21,0.9,2.92c0.6,0.7,1.32,1.05,2.14,1.05c0.54,0,1.02,-0.15,1.42,-0.45c0.4,-0.3,0.74,-0.81,1.01,-1.54l0.28,0.18c-0.12,0.83,-0.49,1.59,-1.11,2.27c-0.61,0.68,-1.38,1.02,-2.31,1.02c-1,0,-1.86,-0.39,-2.57,-1.17c-0.71,-0.78,-1.07,-1.83,-1.07,-3.15c0,-1.43,0.36,-2.54,1.1,-3.34c0.73,-0.8,1.65,-1.2,2.76,-1.2c0.93,0,1.7,0.3,2.31,0.92c0.6,0.61,0.9,1.44,0.9,2.47l-5.77,0m0,-0.52l3.87,0c-0.03,-0.53,-0.09,-0.91,-0.19,-1.13c-0.15,-0.34,-0.37,-0.6,-0.68,-0.8c-0.3,-0.19,-0.61,-0.29,-0.94,-0.29c-0.5,0,-0.95,0.19,-1.35,0.58c-0.39,0.39,-0.63,0.93,-0.69,1.63m9.33,-1.09c0.98,-1.18,1.91,-1.77,2.8,-1.77c0.45,0,0.84,0.11,1.17,0.34c0.32,0.22,0.59,0.6,0.78,1.12c0.13,0.36,0.2,0.92,0.2,1.68l0,3.57c0,0.52,0.04,0.88,0.12,1.07c0.06,0.15,0.17,0.27,0.32,0.35c0.14,0.08,0.42,0.12,0.82,0.12l0,0.32l-4.13,0l0,-0.32l0.17,0c0.38,0,0.66,-0.05,0.81,-0.17c0.15,-0.11,0.26,-0.29,0.32,-0.52c0.02,-0.09,0.03,-0.37,0.03,-0.85l0,-3.42c0,-0.76,-0.09,-1.31,-0.29,-1.65c-0.19,-0.34,-0.53,-0.51,-0.99,-0.51c-0.72,0,-1.44,0.39,-2.16,1.18l0,4.41c0,0.56,0.03,0.91,0.1,1.05c0.08,0.17,0.2,0.3,0.35,0.38c0.14,0.08,0.45,0.12,0.9,0.12l0,0.32l-4.13,0l0,-0.32l0.18,0c0.42,0,0.71,-0.1,0.86,-0.32c0.14,-0.21,0.22,-0.62,0.22,-1.23l0,-3.1c0,-1,-0.02,-1.61,-0.06,-1.83c-0.04,-0.21,-0.11,-0.36,-0.21,-0.44c-0.09,-0.07,-0.22,-0.11,-0.37,-0.11c-0.17,0,-0.37,0.04,-0.61,0.13l-0.13,-0.32l2.52,-1.02l0.39,0l0,1.77m9.14,3.78c-0.51,-0.24,-0.9,-0.59,-1.17,-1.04c-0.27,-0.44,-0.41,-0.94,-0.41,-1.48c0,-0.82,0.31,-1.54,0.93,-2.13c0.62,-0.59,1.42,-0.89,2.39,-0.89c0.79,0,1.48,0.19,2.07,0.58l1.77,0c0.26,0,0.41,0,0.45,0.02c0.04,0.01,0.07,0.04,0.09,0.07c0.03,0.05,0.05,0.15,0.05,0.29c0,0.15,-0.01,0.26,-0.04,0.32c-0.01,0.03,-0.05,0.05,-0.09,0.07c-0.04,0.01,-0.19,0.02,-0.46,0.02l-1.08,0c0.34,0.43,0.51,0.99,0.51,1.68c0,0.77,-0.29,1.44,-0.89,1.99c-0.59,0.55,-1.39,0.83,-2.4,0.83c-0.41,0,-0.83,-0.06,-1.26,-0.18c-0.26,0.23,-0.44,0.43,-0.54,0.6c-0.09,0.17,-0.14,0.32,-0.14,0.44c0,0.1,0.05,0.2,0.15,0.3c0.1,0.09,0.29,0.16,0.58,0.21c0.17,0.02,0.59,0.04,1.27,0.06c1.25,0.03,2.06,0.07,2.43,0.12c0.56,0.07,1.01,0.28,1.35,0.63c0.33,0.34,0.5,0.76,0.5,1.26c0,0.68,-0.32,1.33,-0.96,1.93c-0.94,0.88,-2.18,1.33,-3.71,1.33c-1.17,0,-2.16,-0.26,-2.97,-0.79c-0.45,-0.3,-0.68,-0.62,-0.68,-0.94c0,-0.14,0.03,-0.29,0.1,-0.43c0.1,-0.22,0.31,-0.53,0.63,-0.94c0.04,-0.05,0.35,-0.38,0.93,-0.98c-0.31,-0.18,-0.54,-0.35,-0.67,-0.5c-0.13,-0.14,-0.19,-0.31,-0.19,-0.5c0,-0.21,0.08,-0.46,0.26,-0.74c0.17,-0.28,0.57,-0.69,1.2,-1.21m1.58,-5.12c-0.45,0,-0.82,0.17,-1.13,0.53c-0.3,0.35,-0.45,0.91,-0.45,1.65c0,0.96,0.2,1.7,0.62,2.23c0.31,0.4,0.71,0.6,1.2,0.6c0.46,0,0.84,-0.17,1.14,-0.52c0.29,-0.34,0.44,-0.89,0.44,-1.63c0,-0.96,-0.21,-1.72,-0.63,-2.27c-0.31,-0.4,-0.7,-0.6,-1.19,-0.6m-1.68,8.17c-0.28,0.31,-0.5,0.59,-0.64,0.86c-0.14,0.26,-0.21,0.51,-0.21,0.73c0,0.29,0.17,0.54,0.52,0.76c0.6,0.37,1.48,0.56,2.63,0.56c1.09,0,1.9,-0.19,2.42,-0.57c0.52,-0.38,0.78,-0.79,0.78,-1.23c0,-0.31,-0.15,-0.54,-0.46,-0.67c-0.31,-0.13,-0.94,-0.21,-1.88,-0.23c-1.36,-0.03,-2.42,-0.1,-3.15,-0.21m9.63,-11.11l0,2.74l1.95,0l0,0.63l-1.95,0l0,5.42c0,0.54,0.07,0.9,0.23,1.09c0.15,0.18,0.35,0.28,0.59,0.28c0.2,0,0.39,-0.06,0.58,-0.18c0.18,-0.12,0.33,-0.3,0.43,-0.55l0.35,0c-0.21,0.59,-0.51,1.04,-0.9,1.34c-0.38,0.3,-0.79,0.45,-1.2,0.45c-0.28,0,-0.55,-0.07,-0.82,-0.23c-0.26,-0.15,-0.46,-0.37,-0.59,-0.66c-0.12,-0.28,-0.19,-0.73,-0.19,-1.33l0,-5.62l-1.32,0l0,-0.3c0.33,-0.13,0.67,-0.36,1.02,-0.68c0.35,-0.31,0.66,-0.69,0.93,-1.13c0.14,-0.23,0.33,-0.65,0.58,-1.26l0.28,0m5.22,-1.87l0,6.11c0.67,-0.74,1.21,-1.21,1.6,-1.42c0.39,-0.21,0.79,-0.31,1.18,-0.31c0.47,0,0.88,0.13,1.22,0.39c0.34,0.26,0.59,0.67,0.75,1.23c0.11,0.38,0.17,1.1,0.17,2.13l0,2.95c0,0.52,0.04,0.89,0.12,1.08c0.06,0.14,0.16,0.26,0.31,0.34c0.14,0.08,0.41,0.12,0.8,0.12l0,0.32l-4.1,0l0,-0.32l0.19,0c0.38,0,0.66,-0.05,0.81,-0.17c0.15,-0.11,0.25,-0.29,0.31,-0.52c0.01,-0.09,0.02,-0.38,0.02,-0.85l0,-2.95c0,-0.91,-0.04,-1.51,-0.14,-1.79c-0.09,-0.28,-0.24,-0.5,-0.45,-0.64c-0.2,-0.14,-0.45,-0.21,-0.74,-0.21c-0.29,0,-0.6,0.07,-0.93,0.23c-0.32,0.15,-0.7,0.47,-1.15,0.95l0,4.41c0,0.57,0.03,0.92,0.09,1.06c0.06,0.14,0.18,0.25,0.35,0.35c0.17,0.09,0.47,0.14,0.89,0.14l0,0.32l-4.14,0l0,-0.32c0.37,0,0.66,-0.05,0.87,-0.17c0.12,-0.06,0.21,-0.17,0.29,-0.34c0.07,-0.17,0.1,-0.51,0.1,-1.04l0,-7.56c0,-0.95,-0.02,-1.54,-0.06,-1.76c-0.04,-0.21,-0.11,-0.36,-0.21,-0.44c-0.09,-0.07,-0.22,-0.11,-0.37,-0.11c-0.12,0,-0.33,0.04,-0.62,0.14l-0.12,-0.31l2.5,-1.02l0.42,0m12.11,16.64l0,0.33c-0.91,-0.46,-1.68,-1,-2.3,-1.62c-0.87,-0.88,-1.55,-1.92,-2.02,-3.12c-0.47,-1.19,-0.71,-2.44,-0.71,-3.73c0,-1.88,0.46,-3.6,1.39,-5.16c0.93,-1.55,2.14,-2.66,3.64,-3.33l0,0.38c-0.74,0.41,-1.36,0.98,-1.84,1.69c-0.48,0.71,-0.84,1.62,-1.07,2.73c-0.23,1.1,-0.35,2.25,-0.35,3.45c0,1.3,0.1,2.48,0.3,3.55c0.15,0.84,0.35,1.51,0.57,2.02c0.22,0.5,0.52,0.99,0.9,1.46c0.38,0.46,0.87,0.91,1.49,1.34m3.44,-10.5c0.98,-1.18,1.91,-1.77,2.8,-1.77c0.45,0,0.84,0.11,1.17,0.34c0.32,0.22,0.59,0.6,0.78,1.12c0.13,0.36,0.2,0.92,0.2,1.68l0,3.57c0,0.52,0.04,0.88,0.12,1.07c0.06,0.15,0.17,0.27,0.32,0.35c0.14,0.08,0.42,0.12,0.82,0.12l0,0.32l-4.13,0l0,-0.32l0.17,0c0.38,0,0.66,-0.05,0.81,-0.17c0.15,-0.11,0.26,-0.29,0.32,-0.52c0.02,-0.09,0.03,-0.37,0.03,-0.85l0,-3.42c0,-0.76,-0.09,-1.31,-0.29,-1.65c-0.19,-0.34,-0.53,-0.51,-0.99,-0.51c-0.72,0,-1.44,0.39,-2.16,1.18l0,4.41c0,0.56,0.03,0.91,0.1,1.05c0.08,0.17,0.2,0.3,0.35,0.38c0.14,0.08,0.45,0.12,0.9,0.12l0,0.32l-4.13,0l0,-0.32l0.18,0c0.42,0,0.71,-0.1,0.86,-0.32c0.14,-0.21,0.22,-0.62,0.22,-1.23l0,-3.1c0,-1,-0.02,-1.61,-0.06,-1.83c-0.04,-0.21,-0.11,-0.36,-0.21,-0.44c-0.09,-0.07,-0.22,-0.11,-0.37,-0.11c-0.17,0,-0.37,0.04,-0.61,0.13l-0.13,-0.32l2.52,-1.02l0.39,0l0,1.77m9.39,0c0.6,-0.6,0.96,-0.95,1.07,-1.05c0.27,-0.23,0.56,-0.41,0.88,-0.53c0.31,-0.12,0.63,-0.19,0.94,-0.19c0.52,0,0.97,0.15,1.35,0.45c0.37,0.3,0.63,0.74,0.75,1.32c0.62,-0.73,1.15,-1.2,1.58,-1.43c0.43,-0.22,0.87,-0.34,1.33,-0.34c0.44,0,0.83,0.11,1.18,0.34c0.34,0.22,0.61,0.6,0.81,1.11c0.13,0.35,0.2,0.9,0.2,1.66l0,3.59c0,0.52,0.03,0.88,0.11,1.07c0.06,0.13,0.17,0.24,0.33,0.34c0.16,0.09,0.43,0.14,0.8,0.14l0,0.32l-4.12,0l0,-0.32l0.17,0c0.35,0,0.63,-0.07,0.84,-0.21c0.14,-0.09,0.24,-0.25,0.3,-0.46c0.02,-0.1,0.03,-0.39,0.03,-0.88l0,-3.59c0,-0.68,-0.08,-1.16,-0.24,-1.44c-0.23,-0.38,-0.61,-0.58,-1.14,-0.58c-0.32,0,-0.64,0.08,-0.97,0.24c-0.32,0.16,-0.71,0.46,-1.18,0.89l-0.01,0.1l0.01,0.39l0,3.99c0,0.57,0.03,0.92,0.09,1.06c0.06,0.14,0.18,0.25,0.36,0.35c0.17,0.09,0.47,0.14,0.9,0.14l0,0.32l-4.22,0l0,-0.32c0.46,0,0.78,-0.05,0.95,-0.16c0.17,-0.1,0.29,-0.27,0.36,-0.49c0.03,-0.1,0.04,-0.4,0.04,-0.9l0,-3.59c0,-0.68,-0.1,-1.17,-0.3,-1.47c-0.26,-0.38,-0.64,-0.58,-1.12,-0.58c-0.32,0,-0.65,0.08,-0.97,0.26c-0.5,0.26,-0.89,0.56,-1.16,0.9l0,4.48c0,0.54,0.03,0.9,0.11,1.06c0.07,0.16,0.18,0.28,0.33,0.36c0.14,0.08,0.45,0.12,0.9,0.12l0,0.32l-4.13,0l0,-0.32c0.38,0,0.65,-0.04,0.8,-0.12c0.15,-0.08,0.26,-0.21,0.34,-0.39c0.07,-0.17,0.11,-0.52,0.11,-1.04l0,-3.19c0,-0.91,-0.02,-1.51,-0.08,-1.78c-0.04,-0.2,-0.1,-0.33,-0.2,-0.41c-0.09,-0.07,-0.21,-0.11,-0.37,-0.11c-0.17,0,-0.37,0.04,-0.61,0.13l-0.13,-0.32l2.52,-1.02l0.39,0l0,1.78m11.89,-5.77l0,-0.38c0.92,0.45,1.69,0.99,2.31,1.61c0.87,0.88,1.54,1.93,2.01,3.12c0.47,1.19,0.71,2.44,0.71,3.73c0,1.88,-0.46,3.6,-1.39,5.16c-0.92,1.55,-2.14,2.66,-3.64,3.33l0,-0.33c0.74,-0.42,1.36,-0.98,1.84,-1.7c0.48,-0.71,0.84,-1.62,1.07,-2.73c0.23,-1.1,0.35,-2.25,0.35,-3.45c0,-1.29,-0.1,-2.48,-0.3,-3.55c-0.15,-0.84,-0.34,-1.51,-0.57,-2.01c-0.22,-0.5,-0.53,-0.99,-0.9,-1.46c-0.37,-0.46,-0.87,-0.91,-1.49,-1.34" fill="#000000" stroke="none" fill-opacity="1"/>
<path d="m58.8,402.77l-0.86,2.38l-7.3,0l0,-0.33c2.14,-1.96,3.66,-3.56,4.53,-4.8c0.87,-1.24,1.31,-2.37,1.31,-3.4c0,-0.78,-0.24,-1.43,-0.72,-1.93c-0.48,-0.5,-1.05,-0.75,-1.72,-0.75c-0.6,0,-1.15,0.17,-1.63,0.53c-0.48,0.35,-0.84,0.87,-1.07,1.56l-0.33,0c0.15,-1.12,0.54,-1.99,1.17,-2.59c0.63,-0.6,1.41,-0.9,2.36,-0.9c1,0,1.84,0.32,2.51,0.96c0.67,0.64,1,1.4,1,2.28c0,0.62,-0.14,1.25,-0.43,1.88c-0.45,0.98,-1.18,2.03,-2.19,3.13c-1.51,1.65,-2.46,2.65,-2.83,2.99l3.23,0c0.65,0,1.11,-0.02,1.38,-0.07c0.26,-0.04,0.5,-0.14,0.71,-0.29c0.21,-0.14,0.39,-0.36,0.55,-0.63l0.33,0m1.45,-3.73c0,-1.41,0.21,-2.62,0.63,-3.64c0.42,-1.01,0.99,-1.77,1.69,-2.27c0.54,-0.39,1.11,-0.59,1.69,-0.59c0.94,0,1.8,0.48,2.55,1.45c0.94,1.19,1.41,2.82,1.41,4.87c0,1.43,-0.2,2.65,-0.62,3.66c-0.41,1,-0.94,1.73,-1.58,2.18c-0.64,0.45,-1.26,0.68,-1.85,0.68c-1.18,0,-2.16,-0.69,-2.94,-2.09c-0.66,-1.17,-0.99,-2.59,-0.99,-4.24m1.78,0.22c0,1.7,0.21,3.09,0.63,4.17c0.34,0.9,0.86,1.36,1.55,1.36c0.32,0,0.66,-0.14,1.02,-0.44c0.35,-0.29,0.62,-0.78,0.8,-1.48c0.28,-1.04,0.42,-2.52,0.42,-4.42c0,-1.41,-0.14,-2.59,-0.43,-3.53c-0.21,-0.7,-0.5,-1.19,-0.84,-1.48c-0.24,-0.2,-0.55,-0.3,-0.9,-0.3c-0.41,0,-0.78,0.18,-1.1,0.55c-0.43,0.5,-0.73,1.29,-0.89,2.38c-0.15,1.08,-0.23,2.15,-0.23,3.2m7.56,-0.22c0,-1.41,0.21,-2.62,0.63,-3.64c0.42,-1.01,0.99,-1.77,1.69,-2.27c0.54,-0.39,1.11,-0.59,1.69,-0.59c0.94,0,1.8,0.48,2.55,1.45c0.94,1.19,1.41,2.82,1.41,4.87c0,1.43,-0.2,2.65,-0.62,3.66c-0.41,1,-0.94,1.73,-1.58,2.18c-0.64,0.45,-1.26,0.68,-1.85,0.68c-1.18,0,-2.16,-0.69,-2.94,-2.09c-0.66,-1.17,-0.99,-2.59,-0.99,-4.24m1.78,0.22c0,1.7,0.21,3.09,0.63,4.17c0.34,0.9,0.86,1.36,1.55,1.36c0.32,0,0.66,-0.14,1.02,-0.44c0.35,-0.29,0.62,-0.78,0.8,-1.48c0.28,-1.04,0.42,-2.52,0.42,-4.42c0,-1.41,-0.14,-2.59,-0.43,-3.53c-0.21,-0.7,-0.5,-1.19,-0.84,-1.48c-0.24,-0.2,-0.55,-0.3,-0.9,-0.3c-0.41,0,-0.78,0.18,-1.1,0.55c-0.43,0.5,-0.73,1.29,-0.89,2.38c-0.15,1.08,-0.23,2.15,-0.23,3.2" fill="#000000" stroke="none" fill-opacity="1"/>
<path d="m127.49,395.13c0.35,-0.83,0.79,-1.47,1.33,-1.93c0.53,-0.45,1.2,-0.68,2.01,-0.68c0.99,0,1.75,0.32,2.28,0.96c0.4,0.48,0.6,0.99,0.6,1.54c0,0.9,-0.56,1.83,-1.69,2.79c0.76,0.29,1.33,0.72,1.72,1.27c0.38,0.55,0.58,1.2,0.58,1.95c0,1.07,-0.34,1.99,-1.02,2.78c-0.88,1.02,-2.17,1.53,-3.86,1.53c-0.83,0,-1.4,-0.1,-1.7,-0.31c-0.3,-0.2,-0.45,-0.42,-0.45,-0.66c0,-0.17,0.07,-0.33,0.21,-0.46c0.14,-0.13,0.31,-0.2,0.51,-0.2c0.15,0,0.3,0.02,0.46,0.07c0.1,0.03,0.33,0.14,0.7,0.33c0.36,0.19,0.61,0.3,0.75,0.34c0.22,0.06,0.46,0.1,0.72,0.1c0.62,0,1.16,-0.24,1.62,-0.72c0.45,-0.48,0.68,-1.05,0.68,-1.7c0,-0.48,-0.1,-0.94,-0.31,-1.4c-0.15,-0.34,-0.33,-0.59,-0.52,-0.77c-0.26,-0.24,-0.62,-0.46,-1.07,-0.66c-0.45,-0.19,-0.92,-0.29,-1.39,-0.29l-0.29,0l0,-0.27c0.48,-0.06,0.96,-0.23,1.44,-0.52c0.48,-0.28,0.83,-0.63,1.05,-1.03c0.21,-0.4,0.32,-0.84,0.32,-1.32c0,-0.62,-0.19,-1.13,-0.58,-1.52c-0.39,-0.38,-0.88,-0.57,-1.46,-0.57c-0.94,0,-1.73,0.5,-2.36,1.51l-0.3,-0.14m9.07,3.9c0,-1.41,0.21,-2.62,0.63,-3.64c0.42,-1.01,0.99,-1.77,1.69,-2.27c0.54,-0.39,1.11,-0.59,1.69,-0.59c0.94,0,1.8,0.48,2.55,1.45c0.94,1.19,1.41,2.82,1.41,4.87c0,1.43,-0.2,2.65,-0.62,3.66c-0.41,1,-0.94,1.73,-1.58,2.18c-0.64,0.45,-1.26,0.68,-1.85,0.68c-1.18,0,-2.16,-0.69,-2.94,-2.09c-0.66,-1.17,-0.99,-2.59,-0.99,-4.24m1.78,0.22c0,1.7,0.21,3.09,0.63,4.17c0.34,0.9,0.86,1.36,1.55,1.36c0.32,0,0.66,-0.14,1.02,-0.44c0.35,-0.29,0.62,-0.78,0.8,-1.48c0.28,-1.04,0.42,-2.52,0.42,-4.42c0,-1.41,-0.14,-2.59,-0.43,-3.53c-0.21,-0.7,-0.5,-1.19,-0.84,-1.48c-0.24,-0.2,-0.55,-0.3,-0.9,-0.3c-0.41,0,-0.78,0.18,-1.1,0.55c-0.43,0.5,-0.73,1.29,-0.89,2.38c-0.15,1.08,-0.23,2.15,-0.23,3.2m7.56,-0.22c0,-1.41,0.21,-2.62,0.63,-3.64c0.42,-1.01,0.99,-1.77,1.69,-2.27c0.54,-0.39,1.11,-0.59,1.69,-0.59c0.94,0,1.8,0.48,2.55,1.45c0.94,1.19,1.41,2.82,1.41,4.87c0,1.43,-0.2,2.65,-0.62,3.66c-0.41,1,-0.94,1.73,-1.58,2.18c-0.64,0.45,-1.26,0.68,-1.85,0.68c-1.18,0,-2.16,-0.69,-2.94,-2.09c-0.66,-1.17,-0.99,-2.59,-0.99,-4.24m1.78,0.22c0,1.7,0.21,3.09,0.63,4.17c0.34,0.9,0.86,1.36,1.55,1.36c0.32,0,0.66,-0.14,1.02,-0.44c0.35,-0.29,0.62,-0.78,0.8,-1.48c0.28,-1.04,0.42,-2.52,0.42,-4.42c0,-1.41,-0.14,-2.59,-0.43,-3.53c-0.21,-0.7,-0.5,-1.19,-0.84,-1.48c-0.24,-0.2,-0.55,-0.3,-0.9,-0.3c-0.41,0,-0.78,0.18,-1.1,0.55c-0.43,0.5,-0.73,1.29,-0.89,2.38c-0.15,1.08,-0.23,2.15,-0.23,3.2" fill="#000000" stroke="none" fill-opacity="1"/>
<path d="m211.57,400.59l0,1.29l-1.66,0l0,3.26l-1.5,0l0,-3.26l-5.24,0l0,-1.16l5.74,-8.19l1,0l0,8.07l1.66,0m-3.16,0l0,-6.14l-4.34,6.14l4.34,0m4.49,-1.55c0,-1.41,0.21,-2.62,0.63,-3.64c0.42,-1.01,0.99,-1.77,1.69,-2.27c0.54,-0.39,1.11,-0.59,1.69,-0.59c0.94,0,1.8,0.48,2.55,1.45c0.94,1.19,1.41,2.82,1.41,4.87c0,1.43,-0.2,2.65,-0.62,3.66c-0.41,1,-0.94,1.73,-1.58,2.18c-0.64,0.45,-1.26,0.68,-1.85,0.68c-1.18,0,-2.16,-0.69,-2.94,-2.09c-0.66,-1.17,-0.99,-2.59,-0.99,-4.24m1.78,0.22c0,1.7,0.21,3.09,0.63,4.17c0.34,0.9,0.86,1.36,1.55,1.36c0.32,0,0.66,-0.14,1.02,-0.44c0.35,-0.29,0.62,-0.78,0.8,-1.48c0.28,-1.04,0.42,-2.52,0.42,-4.42c0,-1.41,-0.14,-2.59,-0.43,-3.53c-0.21,-0.7,-0.5,-1.19,-0.84,-1.48c-0.24,-0.2,-0.55,-0.3,-0.9,-0.3c-0.41,0,-0.78,0.18,-1.1,0.55c-0.43,0.5,-0.73,1.29,-0.89,2.38c-0.15,1.08,-0.23,2.15,-0.23,3.2m7.56,-0.22c0,-1.41,0.21,-2.62,0.63,-3.64c0.42,-1.01,0.99,-1.77,1.69,-2.27c0.54,-0.39,1.11,-0.59,1.69,-0.59c0.94,0,1.8,0.48,2.55,1.45c0.94,1.19,1.41,2.82,1.41,4.87c0,1.43,-0.2,2.65,-0.62,3.66c-0.41,1,-0.94,1.73,-1.58,2.18c-0.64,0.45,-1.26,0.68,-1.85,0.68c-1.18,0,-2.16,-0.69,-2.94,-2.09c-0.66,-1.17,-0.99,-2.59,-0.99,-4.24m1.78,0.22c0,1.7,0.21,3.09,0.63,4.17c0.34,0.9,0.86,1.36,1.55,1.36c0.32,0,0.66,-0.14,1.02,-0.44c0.35,-0.29,0.62,-0.78,0.8,-1.48c0.28,-1.04,0.42,-2.52,0.42,-4.42c0,-1.41,-0.14,-2.59,-0.43,-3.53c-0.21,-0.7,-0.5,-1.19,-0.84,-1.48c-0.24,-0.2,-0.55,-0.3,-0.9,-0.3c-0.41,0,-0.78,0.18,-1.1,0.55c-0.43,0.5,-0.73,1.29,-0.89,2.38c-0.15,1.08,-0.23,2.15,-0.23,3.2" fill="#000000" stroke="none" fill-opacity="1"/>
<path d="m287.31,392.77l-0.71,1.55l-3.72,0l-0.81,1.66c1.61,0.23,2.89,0.83,3.83,1.79c0.8,0.82,1.21,1.8,1.21,2.92c0,0.65,-0.13,1.25,-0.39,1.8c-0.26,0.55,-0.59,1.02,-0.99,1.41c-0.4,0.38,-0.84,0.7,-1.34,0.94c-0.7,0.33,-1.41,0.5,-2.15,0.5c-0.74,0,-1.28,-0.12,-1.62,-0.37c-0.33,-0.25,-0.5,-0.53,-0.5,-0.83c0,-0.17,0.07,-0.32,0.21,-0.45c0.14,-0.13,0.31,-0.19,0.52,-0.19c0.15,0,0.29,0.02,0.41,0.07c0.11,0.04,0.32,0.17,0.6,0.37c0.45,0.31,0.91,0.47,1.38,0.47c0.71,0,1.33,-0.26,1.87,-0.8c0.53,-0.53,0.8,-1.19,0.8,-1.96c0,-0.74,-0.24,-1.44,-0.72,-2.09c-0.48,-0.64,-1.14,-1.14,-1.99,-1.5c-0.66,-0.27,-1.56,-0.43,-2.71,-0.47l2.37,-4.81l4.43,0m1.9,6.26c0,-1.41,0.21,-2.62,0.63,-3.64c0.42,-1.01,0.99,-1.77,1.69,-2.27c0.54,-0.39,1.11,-0.59,1.69,-0.59c0.94,0,1.8,0.48,2.55,1.45c0.94,1.19,1.41,2.82,1.41,4.87c0,1.43,-0.2,2.65,-0.62,3.66c-0.41,1,-0.94,1.73,-1.58,2.18c-0.64,0.45,-1.26,0.68,-1.85,0.68c-1.18,0,-2.16,-0.69,-2.94,-2.09c-0.66,-1.17,-0.99,-2.59,-0.99,-4.24m1.78,0.22c0,1.7,0.21,3.09,0.63,4.17c0.34,0.9,0.86,1.36,1.55,1.36c0.32,0,0.66,-0.14,1.02,-0.44c0.35,-0.29,0.62,-0.78,0.8,-1.48c0.28,-1.04,0.42,-2.52,0.42,-4.42c0,-1.41,-0.14,-2.59,-0.43,-3.53c-0.21,-0.7,-0.5,-1.19,-0.84,-1.48c-0.24,-0.2,-0.55,-0.3,-0.9,-0.3c-0.41,0,-0.78,0.18,-1.1,0.55c-0.43,0.5,-0.73,1.29,-0.89,2.38c-0.15,1.08,-0.23,2.15,-0.23,3.2m7.56,-0.22c0,-1.41,0.21,-2.62,0.63,-3.64c0.42,-1.01,0.99,-1.77,1.69,-2.27c0.54,-0.39,1.11,-0.59,1.69,-0.59c0.94,0,1.8,0.48,2.55,1.45c0.94,1.19,1.41,2.82,1.41,4.87c0,1.43,-0.2,2.65,-0.62,3.66c-0.41,1,-0.94,1.73,-1.58,2.18c-0.64,0.45,-1.26,0.68,-1.85,0.68c-1.18,0,-2.16,-0.69,-2.94,-2.09c-0.66,-1.17,-0.99,-2.59,-0.99,-4.24m1.78,0.22c0,1.7,0.21,3.09,0.63,4.17c0.34,0.9,0.86,1.36,1.55,1.36c0.32,0,0.66,-0.14,1.02,-0.44c0.35,-0.29,0.62,-0.78,0.8,-1.48c0.28,-1.04,0.42,-2.52,0.42,-4.42c0,-1.41,-0.14,-2.59,-0.43,-3.53c-0.21,-0.7,-0.5,-1.19,-0.84,-1.48c-0.24,-0.2,-0.55,-0.3,-0.9,-0.3c-0.41,0,-0.78,0.18,-1.1,0.55c-0.43,0.5,-0.73,1.29,-0.89,2.38c-0.15,1.08,-0.23,2.15,-0.23,3.2" fill="#000000" stroke="none" fill-opacity="1"/>
<path d="m363.9,392.52l0,0.33c-0.8,0.07,-1.45,0.23,-1.96,0.47c-0.5,0.24,-1.01,0.6,-1.5,1.1c-0.49,0.49,-0.9,1.04,-1.23,1.64c-0.32,0.6,-0.59,1.32,-0.81,2.15c0.87,-0.6,1.75,-0.9,2.63,-0.9c0.84,0,1.57,0.34,2.2,1.02c0.62,0.68,0.93,1.55,0.93,2.62c0,1.03,-0.31,1.97,-0.94,2.83c-0.75,1.03,-1.75,1.55,-2.99,1.55c-0.84,0,-1.56,-0.28,-2.15,-0.84c-1.15,-1.08,-1.73,-2.5,-1.73,-4.23c0,-1.1,0.22,-2.16,0.66,-3.15c0.44,-0.99,1.07,-1.88,1.9,-2.65c0.82,-0.77,1.61,-1.29,2.36,-1.56c0.75,-0.26,1.45,-0.4,2.1,-0.4l0.52,0m-5.67,6.39c-0.1,0.82,-0.16,1.48,-0.16,1.99c0,0.58,0.1,1.21,0.32,1.9c0.21,0.68,0.53,1.22,0.96,1.62c0.31,0.28,0.68,0.42,1.13,0.42c0.52,0,1,-0.24,1.41,-0.74c0.41,-0.49,0.62,-1.21,0.62,-2.13c0,-1.04,-0.2,-1.94,-0.62,-2.7c-0.41,-0.76,-1,-1.14,-1.76,-1.14c-0.23,0,-0.47,0.04,-0.74,0.14c-0.26,0.09,-0.65,0.3,-1.17,0.63m7.32,0.12c0,-1.41,0.21,-2.62,0.63,-3.64c0.42,-1.01,0.99,-1.77,1.69,-2.27c0.54,-0.39,1.11,-0.59,1.69,-0.59c0.94,0,1.8,0.48,2.55,1.45c0.94,1.19,1.41,2.82,1.41,4.87c0,1.43,-0.2,2.65,-0.62,3.66c-0.41,1,-0.94,1.73,-1.58,2.18c-0.64,0.45,-1.26,0.68,-1.85,0.68c-1.18,0,-2.16,-0.69,-2.94,-2.09c-0.66,-1.17,-0.99,-2.59,-0.99,-4.24m1.78,0.22c0,1.7,0.21,3.09,0.63,4.17c0.34,0.9,0.86,1.36,1.55,1.36c0.32,0,0.66,-0.14,1.02,-0.44c0.35,-0.29,0.62,-0.78,0.8,-1.48c0.28,-1.04,0.42,-2.52,0.42,-4.42c0,-1.41,-0.14,-2.59,-0.43,-3.53c-0.21,-0.7,-0.5,-1.19,-0.84,-1.48c-0.24,-0.2,-0.55,-0.3,-0.9,-0.3c-0.41,0,-0.78,0.18,-1.1,0.55c-0.43,0.5,-0.73,1.29,-0.89,2.38c-0.15,1.08,-0.23,2.15,-0.23,3.2m7.56,-0.22c0,-1.41,0.21,-2.62,0.63,-3.64c0.42,-1.01,0.99,-1.77,1.69,-2.27c0.54,-0.39,1.11,-0.59,1.69,-0.59c0.94,0,1.8,0.48,2.55,1.45c0.94,1.19,1.41,2.82,1.41,4.87c0,1.43,-0.2,2.65,-0.62,3.66c-0.41,1,-0.94,1.73,-1.58,2.18c-0.64,0.45,-1.26,0.68,-1.85,0.68c-1.18,0,-2.16,-0.69,-2.94,-2.09c-0.66,-1.17,-0.99,-2.59,-0.99,-4.24m1.78,0.22c0,1.7,0.21,3.09,0.63,4.17c0.34,0.9,0.86,1.36,1.55,1.36c0.32,0,0.66,-0.14,1.02,-0.44c0.35,-0.29,0.62,-0.78,0.8,-1.48c0.28,-1.04,0.42,-2.52,0.42,-4.42c0,-1.41,-0.14,-2.59,-0.43,-3.53c-0.21,-0.7,-0.5,-1.19,-0.84,-1.48c-0.24,-0.2,-0.55,-0.3,-0.9,-0.3c-0.41,0,-0.78,0.18,-1.1,0.55c-0.43,0.5,-0.73,1.29,-0.89,2.38c-0.15,1.08,-0.23,2.15,-0.23,3.2" fill="#000000" stroke="none" fill-opacity="1"/>
<path d="m433.72,392.77l6.63,0l0,0.34l-4.12,12.29l-1.02,0l3.69,-11.14l-3.4,0c-0.68,0,-1.17,0.08,-1.47,0.24c-0.51,0.28,-0.92,0.71,-1.23,1.29l-0.26,-0.1l1.18,-2.93m8.14,6.26c0,-1.41,0.21,-2.62,0.63,-3.64c0.42,-1.01,0.99,-1.77,1.69,-2.27c0.54,-0.39,1.11,-0.59,1.69,-0.59c0.94,0,1.8,0.48,2.55,1.45c0.94,1.19,1.41,2.82,1.41,4.87c0,1.43,-0.2,2.65,-0.62,3.66c-0.41,1,-0.94,1.73,-1.58,2.18c-0.64,0.45,-1.26,0.68,-1.85,0.68c-1.18,0,-2.16,-0.69,-2.94,-2.09c-0.66,-1.17,-0.99,-2.59,-0.99,-4.24m1.78,0.22c0,1.7,0.21,3.09,0.63,4.17c0.34,0.9,0.86,1.36,1.55,1.36c0.32,0,0.66,-0.14,1.02,-0.44c0.35,-0.29,0.62,-0.78,0.8,-1.48c0.28,-1.04,0.42,-2.52,0.42,-4.42c0,-1.41,-0.14,-2.59,-0.43,-3.53c-0.21,-0.7,-0.5,-1.19,-0.84,-1.48c-0.24,-0.2,-0.55,-0.3,-0.9,-0.3c-0.41,0,-0.78,0.18,-1.1,0.55c-0.43,0.5,-0.73,1.29,-0.89,2.38c-0.15,1.08,-0.23,2.15,-0.23,3.2m7.56,-0.22c0,-1.41,0.21,-2.62,0.63,-3.64c0.42,-1.01,0.99,-1.77,1.69,-2.27c0.54,-0.39,1.11,-0.59,1.69,-0.59c0.94,0,1.8,0.48,2.55,1.45c0.94,1.19,1.41,2.82,1.41,4.87c0,1.43,-0.2,2.65,-0.62,3.66c-0.41,1,-0.94,1.73,-1.58,2.18c-0.64,0.45,-1.26,0.68,-1.85,0.68c-1.18,0,-2.16,-0.69,-2.94,-2.09c-0.66,-1.17,-0.99,-2.59,-0.99,-4.24m1.78,0.22c0,1.7,0.21,3.09,0.63,4.17c0.34,0.9,0.86,1.36,1.55,1.36c0.32,0,0.66,-0.14,1.02,-0.44c0.35,-0.29,0.62,-0.78,0.8,-1.48c0.28,-1.04,0.42,-2.52,0.42,-4.42c0,-1.41,-0.14,-2.59,-0.43,-3.53c-0.21,-0.7,-0.5,-1.19,-0.84,-1.48c-0.24,-0.2,-0.55,-0.3,-0.9,-0.3c-0.41,0,-0.78,0.18,-1.1,0.55c-0.43,0.5,-0.73,1.29,-0.89,2.38c-0.15,1.08,-0.23,2.15,-0.23,3.2" fill="#000000" stroke="none" fill-opacity="1"/>
<path d="m511.75,398.92c-0.98,-0.8,-1.61,-1.44,-1.89,-1.93c-0.28,-0.48,-0.42,-0.99,-0.42,-1.51c0,-0.8,0.31,-1.49,0.93,-2.07c0.62,-0.58,1.44,-0.87,2.47,-0.87c0.99,0,1.8,0.27,2.41,0.81c0.6,0.54,0.91,1.15,0.91,1.85c0,0.46,-0.16,0.93,-0.49,1.41c-0.32,0.48,-1.01,1.04,-2.05,1.69c1.07,0.82,1.78,1.47,2.12,1.95c0.46,0.62,0.69,1.27,0.69,1.96c0,0.87,-0.33,1.61,-0.99,2.23c-0.66,0.61,-1.53,0.92,-2.61,0.92c-1.17,0,-2.09,-0.36,-2.74,-1.1c-0.52,-0.59,-0.78,-1.23,-0.78,-1.93c0,-0.54,0.18,-1.09,0.55,-1.62c0.36,-0.53,1,-1.13,1.9,-1.78m1.43,-0.97c0.73,-0.65,1.19,-1.17,1.38,-1.55c0.19,-0.38,0.29,-0.81,0.29,-1.29c0,-0.63,-0.17,-1.13,-0.53,-1.5c-0.35,-0.36,-0.84,-0.54,-1.47,-0.54c-0.62,0,-1.12,0.17,-1.51,0.53c-0.38,0.35,-0.58,0.77,-0.58,1.26c0,0.31,0.08,0.63,0.24,0.94c0.16,0.31,0.39,0.61,0.68,0.9l1.49,1.24m-1,1.32c-0.5,0.42,-0.87,0.89,-1.12,1.39c-0.24,0.5,-0.36,1.04,-0.36,1.62c0,0.78,0.21,1.41,0.64,1.88c0.42,0.47,0.97,0.7,1.63,0.7c0.65,0,1.18,-0.18,1.57,-0.55c0.39,-0.37,0.59,-0.82,0.59,-1.35c0,-0.43,-0.11,-0.83,-0.34,-1.17c-0.43,-0.64,-1.3,-1.48,-2.62,-2.52m6,-0.22c0,-1.41,0.21,-2.62,0.63,-3.64c0.42,-1.01,0.99,-1.77,1.69,-2.27c0.54,-0.39,1.11,-0.59,1.69,-0.59c0.94,0,1.8,0.48,2.55,1.45c0.94,1.19,1.41,2.82,1.41,4.87c0,1.43,-0.2,2.65,-0.62,3.66c-0.41,1,-0.94,1.73,-1.58,2.18c-0.64,0.45,-1.26,0.68,-1.85,0.68c-1.18,0,-2.16,-0.69,-2.94,-2.09c-0.66,-1.17,-0.99,-2.59,-0.99,-4.24m1.78,0.22c0,1.7,0.21,3.09,0.63,4.17c0.34,0.9,0.86,1.36,1.55,1.36c0.32,0,0.66,-0.14,1.02,-0.44c0.35,-0.29,0.62,-0.78,0.8,-1.48c0.28,-1.04,0.42,-2.52,0.42,-4.42c0,-1.41,-0.14,-2.59,-0.43,-3.53c-0.21,-0.7,-0.5,-1.19,-0.84,-1.48c-0.24,-0.2,-0.55,-0.3,-0.9,-0.3c-0.41,0,-0.78,0.18,-1.1,0.55c-0.43,0.5,-0.73,1.29,-0.89,2.38c-0.15,1.08,-0.23,2.15,-0.23,3.2m7.56,-0.22c0,-1.41,0.21,-2.62,0.63,-3.64c0.42,-1.01,0.99,-1.77,1.69,-2.27c0.54,-0.39,1.11,-0.59,1.69,-0.59c0.94,0,1.8,0.48,2.55,1.45c0.94,1.19,1.41,2.82,1.41,4.87c0,1.43,-0.2,2.65,-0.62,3.66c-0.41,1,-0.94,1.73,-1.58,2.18c-0.64,0.45,-1.26,0.68,-1.85,0.68c-1.18,0,-2.16,-0.69,-2.94,-2.09c-0.66,-1.17,-0.99,-2.59,-0.99,-4.24m1.78,0.22c0,1.7,0.21,3.09,0.63,4.17c0.34,0.9,0.86,1.36,1.55,1.36c0.32,0,0.66,-0.14,1.02,-0.44c0.35,-0.29,0.62,-0.78,0.8,-1.48c0.28,-1.04,0.42,-2.52,0.42,-4.42c0,-1.41,-0.14,-2.59,-0.43,-3.53c-0.21,-0.7,-0.5,-1.19,-0.84,-1.48c-0.24,-0.2,-0.55,-0.3,-0.9,-0.3c-0.41,0,-0.78,0.18,-1.1,0.55c-0.43,0.5,-0.73,1.29,-0.89,2.38c-0.15,1.08,-0.23,2.15,-0.23,3.2" fill="#000000" stroke="none" fill-opacity="1"/>
</g>
<g fill="none" stroke-linecap="butt" stroke-width="0.66">
<path d="M64.25,7.55l496.1,0"/>
<path d="M64.25,7.55l0,4M102.41,7.55l0,4M140.57,7.55l0,4M178.73,7.55l0,4M216.89,7.55l0,4M255.06,7.55l0,4M293.22,7.55l0,4M331.38,7.55l0,4M369.54,7.55l0,4M407.7,7.55l0,4M445.86,7.55l0,4M484.02,7.55l0,4M522.19,7.55l0,4M560.35,7.55l0,4"/>
<path d="M64.25,7.55l0,8M140.57,7.55l0,8M216.89,7.55l0,8M293.22,7.55l0,8M369.54,7.55l0,8M445.86,7.55l0,8M522.19,7.55l0,8"/>
</g>
<g fill="#ffffff" stroke-width="0.66">
<use xlink:href="#p0"/>
</g>
</g>
<g clip-path="url(#c1)">
<g fill="#e41a1c" stroke-width="0.66">
<use xlink:href="#p1"/>
</g>
</g>
<g clip-path="url(#c0)">
<g fill="none" stroke-linecap="butt" stroke-width="0.66">
<path d="M64.25,383.65l0,-376.1"/>
<path d="M64.25,366.56l4,0M64.25,349.46l4,0M64.25,332.37l4,0M64.25,315.27l4,0M64.25,298.18l4,0M64.25,281.08l4,0M64.25,263.99l4,0M64.25,246.89l4,0M64.25,229.8l4,0M64.25,212.7l4,0M64.25,195.6l4,0M64.25,178.51l4,0M64.25,161.41l4,0M64.25,144.32l4,0M64.25,127.22l4,0M64.25,110.13l4,0M64.25,93.03l4,0M64.25,75.94l4,0M64.25,58.84l4,0M64.25,41.75l4,0M64.25,24.65l4,0M64.25,7.55l4,0"/>
<path d="M64.25,315.27l8,0M64.25,246.89l8,0M64.25,178.51l8,0M64.25,110.13l8,0M64.25,41.75l8,0"/>
</g>
<g fill="none" stroke-width="0.1">
<g transform="matrix(0 -1 1 0 22.32 228.32)">
<path d="m5.77,-0.33l0,0.33l-5.3,0l0,-0.33l0.43,0c0.51,0,0.88,-0.14,1.11,-0.44c0.14,-0.19,0.21,-0.66,0.21,-1.4l0,-7.99c0,-0.62,-0.03,-1.04,-0.11,-1.24c-0.06,-0.15,-0.18,-0.28,-0.37,-0.39c-0.26,-0.14,-0.54,-0.21,-0.84,-0.21l-0.43,0l0,-0.33l5.3,0l0,0.33l-0.44,0c-0.5,0,-0.87,0.14,-1.1,0.44c-0.15,0.19,-0.22,0.66,-0.22,1.4l0,7.99c0,0.62,0.03,1.04,0.11,1.24c0.06,0.15,0.18,0.28,0.38,0.39c0.26,0.14,0.53,0.21,0.83,0.21l0.44,0m3.47,-6.5c0.98,-1.18,1.91,-1.77,2.8,-1.77c0.45,0,0.84,0.11,1.17,0.34c0.32,0.22,0.59,0.6,0.78,1.12c0.13,0.36,0.2,0.92,0.2,1.68l0,3.57c0,0.52,0.04,0.88,0.12,1.07c0.06,0.15,0.17,0.27,0.32,0.35c0.14,0.08,0.42,0.12,0.82,0.12l0,0.32l-4.13,0l0,-0.32l0.17,0c0.38,0,0.66,-0.05,0.81,-0.17c0.15,-0.11,0.26,-0.29,0.32,-0.52c0.02,-0.09,0.03,-0.37,0.03,-0.85l0,-3.42c0,-0.76,-0.09,-1.31,-0.29,-1.65c-0.19,-0.34,-0.53,-0.51,-0.99,-0.51c-0.72,0,-1.44,0.39,-2.16,1.18l0,4.41c0,0.56,0.03,0.91,0.1,1.05c0.08,0.17,0.2,0.3,0.35,0.38c0.14,0.08,0.45,0.12,0.9,0.12l0,0.32l-4.13,0l0,-0.32l0.18,0c0.42,0,0.71,-0.1,0.86,-0.32c0.14,-0.21,0.22,-0.62,0.22,-1.23l0,-3.1c0,-1,-0.02,-1.61,-0.06,-1.83c-0.04,-0.21,-0.11,-0.36,-0.21,-0.44c-0.09,-0.07,-0.22,-0.11,-0.37,-0.11c-0.17,0,-0.37,0.04,-0.61,0.13l-0.13,-0.32l2.52,-1.02l0.39,0l0,1.77m9.34,-4.27l0,2.74l1.95,0l0,0.63l-1.95,0l0,5.42c0,0.54,0.07,0.9,0.23,1.09c0.15,0.18,0.35,0.28,0.59,0.28c0.2,0,0.39,-0.06,0.58,-0.18c0.18,-0.12,0.33,-0.3,0.43,-0.55l0.35,0c-0.21,0.59,-0.51,1.04,-0.9,1.34c-0.38,0.3,-0.79,0.45,-1.2,0.45c-0.28,0,-0.55,-0.07,-0.82,-0.23c-0.26,-0.15,-0.46,-0.37,-0.59,-0.66c-0.12,-0.28,-0.19,-0.73,-0.19,-1.33l0,-5.62l-1.32,0l0,-0.3c0.33,-0.13,0.67,-0.36,1.02,-0.68c0.35,-0.31,0.66,-0.69,0.93,-1.13c0.14,-0.23,0.33,-0.65,0.58,-1.26l0.28,0m4.17,5.89c0,1.24,0.29,2.21,0.9,2.92c0.6,0.7,1.32,1.05,2.14,1.05c0.54,0,1.02,-0.15,1.42,-0.45c0.4,-0.3,0.74,-0.81,1.01,-1.54l0.28,0.18c-0.12,0.83,-0.49,1.59,-1.11,2.27c-0.61,0.68,-1.38,1.02,-2.31,1.02c-1,0,-1.86,-0.39,-2.57,-1.17c-0.71,-0.78,-1.07,-1.83,-1.07,-3.15c0,-1.43,0.36,-2.54,1.1,-3.34c0.73,-0.8,1.65,-1.2,2.76,-1.2c0.93,0,1.7,0.3,2.31,0.92c0.6,0.61,0.9,1.44,0.9,2.47l-5.77,0m0,-0.52l3.87,0c-0.03,-0.53,-0.09,-0.91,-0.19,-1.13c-0.15,-0.34,-0.37,-0.6,-0.68,-0.8c-0.3,-0.19,-0.61,-0.29,-0.94,-0.29c-0.5,0,-0.95,0.19,-1.35,0.58c-0.39,0.39,-0.63,0.93,-0.69,1.63m9.33,-1.09c0.98,-1.18,1.91,-1.77,2.8,-1.77c0.45,0,0.84,0.11,1.17,0.34c0.32,0.22,0.59,0.6,0.78,1.12c0.13,0.36,0.2,0.92,0.2,1.68l0,3.57c0,0.52,0.04,0.88,0.12,1.07c0.06,0.15,0.17,0.27,0.32,0.35c0.14,0.08,0.42,0.12,0.82,0.12l0,0.32l-4.13,0l0,-0.32l0.17,0c0.38,0,0.66,-0.05,0.81,-0.17c0.15,-0.11,0.26,-0.29,0.32,-0.52c0.02,-0.09,0.03,-0.37,0.03,-0.85l0,-3.42c0,-0.76,-0.09,-1.31,-0.29,-1.65c-0.19,-0.34,-0.53,-0.51,-0.99,-0.51c-0.72,0,-1.44,0.39,-2.16,1.18l0,4.41c0,0.56,0.03,0.91,0.1,1.05c0.08,0.17,0.2,0.3,0.35,0.38c0.14,0.08,0.45,0.12,0.9,0.12l0,0.32l-4.13,0l0,-0.32l0.18,0c0.42,0,0.71,-0.1,0.86,-0.32c0.14,-0.21,0.22,-0.62,0.22,-1.23l0,-3.1c0,-1,-0.02,-1.61,-0.06,-1.83c-0.04,-0.21,-0.11,-0.36,-0.21,-0.44c-0.09,-0.07,-0.22,-0.11,-0.37,-0.11c-0.17,0,-0.37,0.04,-0.61,0.13l-0.13,-0.32l2.52,-1.02l0.39,0l0,1.77m12.31,-1.77l0,2.84l-0.3,0c-0.23,-0.89,-0.52,-1.5,-0.89,-1.82c-0.36,-0.32,-0.82,-0.48,-1.38,-0.48c-0.42,0,-0.77,0.11,-1.03,0.33c-0.26,0.22,-0.39,0.47,-0.39,0.74c0,0.34,0.09,0.63,0.29,0.87c0.18,0.24,0.57,0.51,1.15,0.79l1.33,0.64c1.23,0.6,1.85,1.39,1.85,2.38c0,0.76,-0.28,1.37,-0.86,1.83c-0.57,0.46,-1.21,0.69,-1.93,0.69c-0.51,0,-1.09,-0.09,-1.75,-0.27c-0.2,-0.06,-0.36,-0.09,-0.49,-0.09c-0.14,0,-0.24,0.07,-0.32,0.23l-0.3,0l0,-2.98l0.3,0c0.17,0.85,0.49,1.49,0.97,1.92c0.48,0.43,1.01,0.64,1.61,0.64c0.42,0,0.76,-0.12,1.02,-0.36c0.26,-0.24,0.39,-0.54,0.39,-0.89c0,-0.42,-0.14,-0.77,-0.44,-1.05c-0.29,-0.28,-0.88,-0.64,-1.76,-1.08c-0.88,-0.43,-1.46,-0.83,-1.73,-1.18c-0.27,-0.34,-0.41,-0.78,-0.41,-1.31c0,-0.68,0.23,-1.26,0.7,-1.72c0.47,-0.46,1.08,-0.69,1.83,-0.69c0.32,0,0.72,0.07,1.19,0.21c0.31,0.09,0.51,0.13,0.62,0.13c0.09,0,0.17,-0.02,0.22,-0.06c0.05,-0.04,0.11,-0.13,0.19,-0.28l0.3,0m3.99,-4.37c0.25,0,0.47,0.08,0.65,0.26c0.17,0.17,0.26,0.39,0.26,0.65c0,0.25,-0.08,0.47,-0.26,0.65c-0.17,0.18,-0.39,0.27,-0.65,0.27c-0.25,0,-0.47,-0.09,-0.65,-0.27c-0.18,-0.18,-0.27,-0.4,-0.27,-0.65c0,-0.25,0.08,-0.47,0.26,-0.65c0.17,-0.17,0.4,-0.26,0.66,-0.26m0.75,4.37l0,6.72c0,0.52,0.03,0.87,0.11,1.04c0.07,0.17,0.18,0.3,0.33,0.38c0.14,0.08,0.42,0.12,0.81,0.12l0,0.32l-4.06,0l0,-0.32c0.4,0,0.68,-0.03,0.82,-0.11c0.14,-0.07,0.25,-0.21,0.33,-0.39c0.08,-0.18,0.12,-0.53,0.12,-1.05l0,-3.22c0,-0.9,-0.02,-1.49,-0.08,-1.76c-0.04,-0.19,-0.1,-0.33,-0.2,-0.4c-0.09,-0.07,-0.21,-0.11,-0.37,-0.11c-0.17,0,-0.37,0.04,-0.62,0.13l-0.12,-0.32l2.52,-1.02l0.4,0m4.73,-2.5l0,2.74l1.95,0l0,0.63l-1.95,0l0,5.42c0,0.54,0.07,0.9,0.23,1.09c0.15,0.18,0.35,0.28,0.59,0.28c0.2,0,0.39,-0.06,0.58,-0.18c0.18,-0.12,0.33,-0.3,0.43,-0.55l0.35,0c-0.21,0.59,-0.51,1.04,-0.9,1.34c-0.38,0.3,-0.79,0.45,-1.2,0.45c-0.28,0,-0.55,-0.07,-0.82,-0.23c-0.26,-0.15,-0.46,-0.37,-0.59,-0.66c-0.12,-0.28,-0.19,-0.73,-0.19,-1.33l0,-5.62l-1.32,0l0,-0.3c0.33,-0.13,0.67,-0.36,1.02,-0.68c0.35,-0.31,0.66,-0.69,0.93,-1.13c0.14,-0.23,0.33,-0.65,0.58,-1.26l0.28,0m2.29,2.74l3.89,0l0,0.33l-0.19,0c-0.27,0,-0.47,0.05,-0.61,0.17c-0.13,0.11,-0.2,0.26,-0.2,0.44c0,0.23,0.1,0.56,0.3,0.98l2.03,4.21l1.87,-4.62c0.1,-0.24,0.15,-0.49,0.15,-0.73c0,-0.1,-0.02,-0.19,-0.06,-0.24c-0.04,-0.06,-0.12,-0.12,-0.22,-0.15c-0.1,-0.03,-0.28,-0.05,-0.54,-0.05l0,-0.33l2.72,0l0,0.33c-0.22,0.02,-0.39,0.07,-0.52,0.14c-0.12,0.07,-0.25,0.21,-0.4,0.41c-0.05,0.08,-0.15,0.31,-0.31,0.7l-3.4,8.34c-0.32,0.8,-0.75,1.42,-1.29,1.83c-0.53,0.41,-1.04,0.62,-1.53,0.62c-0.35,0,-0.65,-0.1,-0.88,-0.31c-0.23,-0.2,-0.34,-0.44,-0.34,-0.71c0,-0.25,0.08,-0.46,0.25,-0.61c0.16,-0.15,0.39,-0.23,0.68,-0.23c0.2,0,0.47,0.06,0.82,0.2c0.24,0.09,0.39,0.13,0.45,0.13c0.18,0,0.38,-0.09,0.59,-0.28c0.21,-0.18,0.43,-0.55,0.65,-1.09l0.59,-1.45l-3,-6.3c-0.09,-0.18,-0.23,-0.42,-0.43,-0.7c-0.15,-0.21,-0.27,-0.35,-0.37,-0.42c-0.14,-0.09,-0.36,-0.18,-0.67,-0.25l0,-0.33" fill="#000000" stroke="none" fill-opacity="1"/>
</g>
<path d="m36.71,315.58c0,-1.41,0.21,-2.62,0.63,-3.64c0.42,-1.01,0.99,-1.77,1.69,-2.27c0.54,-0.39,1.11,-0.59,1.69,-0.59c0.94,0,1.8,0.48,2.55,1.45c0.94,1.19,1.41,2.82,1.41,4.87c0,1.43,-0.2,2.65,-0.62,3.66c-0.41,1,-0.94,1.73,-1.58,2.18c-0.64,0.45,-1.26,0.68,-1.85,0.68c-1.18,0,-2.16,-0.69,-2.94,-2.09c-0.66,-1.17,-0.99,-2.59,-0.99,-4.24m1.78,0.22c0,1.7,0.21,3.09,0.63,4.17c0.34,0.9,0.86,1.36,1.55,1.36c0.32,0,0.66,-0.14,1.02,-0.44c0.35,-0.29,0.62,-0.78,0.8,-1.48c0.28,-1.04,0.42,-2.52,0.42,-4.42c0,-1.41,-0.14,-2.59,-0.43,-3.53c-0.21,-0.7,-0.5,-1.19,-0.84,-1.48c-0.24,-0.2,-0.55,-0.3,-0.9,-0.3c-0.41,0,-0.78,0.18,-1.1,0.55c-0.43,0.5,-0.73,1.29,-0.89,2.38c-0.15,1.08,-0.23,2.15,-0.23,3.2m9.22,4.11c0.28,0,0.52,0.09,0.72,0.29c0.19,0.19,0.29,0.43,0.29,0.71c0,0.28,-0.09,0.51,-0.29,0.71c-0.19,0.19,-0.43,0.29,-0.71,0.29c-0.28,0,-0.51,-0.09,-0.71,-0.29c-0.19,-0.19,-0.29,-0.43,-0.29,-0.71c0,-0.28,0.09,-0.52,0.29,-0.72c0.19,-0.19,0.43,-0.29,0.71,-0.29m10.91,-0.61l-0.86,2.38l-7.3,0l0,-0.33c2.14,-1.96,3.66,-3.56,4.53,-4.8c0.87,-1.24,1.31,-2.37,1.31,-3.4c0,-0.78,-0.24,-1.43,-0.72,-1.93c-0.48,-0.5,-1.05,-0.75,-1.72,-0.75c-0.6,0,-1.15,0.17,-1.63,0.53c-0.48,0.35,-0.84,0.87,-1.07,1.56l-0.33,0c0.15,-1.12,0.54,-1.99,1.17,-2.59c0.63,-0.6,1.41,-0.9,2.36,-0.9c1,0,1.84,0.32,2.51,0.96c0.67,0.64,1,1.4,1,2.28c0,0.62,-0.14,1.25,-0.43,1.88c-0.45,0.98,-1.18,2.03,-2.19,3.13c-1.51,1.65,-2.46,2.65,-2.83,2.99l3.23,0c0.65,0,1.11,-0.02,1.38,-0.07c0.26,-0.04,0.5,-0.14,0.71,-0.29c0.21,-0.14,0.39,-0.36,0.55,-0.63l0.33,0" fill="#000000" stroke="none" fill-opacity="1"/>
<path d="m36.71,247.2c0,-1.41,0.21,-2.62,0.63,-3.64c0.42,-1.01,0.99,-1.77,1.69,-2.27c0.54,-0.39,1.11,-0.59,1.69,-0.59c0.94,0,1.8,0.48,2.55,1.45c0.94,1.19,1.41,2.82,1.41,4.87c0,1.43,-0.2,2.65,-0.62,3.66c-0.41,1,-0.94,1.73,-1.58,2.18c-0.64,0.45,-1.26,0.68,-1.85,0.68c-1.18,0,-2.16,-0.69,-2.94,-2.09c-0.66,-1.17,-0.99,-2.59,-0.99,-4.24m1.78,0.22c0,1.7,0.21,3.09,0.63,4.17c0.34,0.9,0.86,1.36,1.55,1.36c0.32,0,0.66,-0.14,1.02,-0.44c0.35,-0.29,0.62,-0.78,0.8,-1.48c0.28,-1.04,0.42,-2.52,0.42,-4.42c0,-1.41,-0.14,-2.59,-0.43,-3.53c-0.21,-0.7,-0.5,-1.19,-0.84,-1.48c-0.24,-0.2,-0.55,-0.3,-0.9,-0.3c-0.41,0,-0.78,0.18,-1.1,0.55c-0.43,0.5,-0.73,1.29,-0.89,2.38c-0.15,1.08,-0.23,2.15,-0.23,3.2m9.22,4.11c0.28,0,0.52,0.09,0.72,0.29c0.19,0.19,0.29,0.43,0.29,0.71c0,0.28,-0.09,0.51,-0.29,0.71c-0.19,0.19,-0.43,0.29,-0.71,0.29c-0.28,0,-0.51,-0.09,-0.71,-0.29c-0.19,-0.19,-0.29,-0.43,-0.29,-0.71c0,-0.28,0.09,-0.52,0.29,-0.72c0.19,-0.19,0.43,-0.29,0.71,-0.29m11.03,-2.79l0,1.29l-1.66,0l0,3.26l-1.5,0l0,-3.26l-5.24,0l0,-1.16l5.74,-8.19l1,0l0,8.07l1.66,0m-3.16,0l0,-6.14l-4.34,6.14l4.34,0" fill="#000000" stroke="none" fill-opacity="1"/>
<path d="m36.71,178.82c0,-1.41,0.21,-2.62,0.63,-3.64c0.42,-1.01,0.99,-1.77,1.69,-2.27c0.54,-0.39,1.11,-0.59,1.69,-0.59c0.94,0,1.8,0.48,2.55,1.45c0.94,1.19,1.41,2.82,1.41,4.87c0,1.43,-0.2,2.65,-0.62,3.66c-0.41,1,-0.94,1.73,-1.58,2.18c-0.64,0.45,-1.26,0.68,-1.85,0.68c-1.18,0,-2.16,-0.69,-2.94,-2.09c-0.66,-1.17,-0.99,-2.59,-0.99,-4.24m1.78,0.22c0,1.7,0.21,3.09,0.63,4.17c0.34,0.9,0.86,1.36,1.55,1.36c0.32,0,0.66,-0.14,1.02,-0.44c0.35,-0.29,0.62,-0.78,0.8,-1.48c0.28,-1.04,0.42,-2.52,0.42,-4.42c0,-1.41,-0.14,-2.59,-0.43,-3.53c-0.21,-0.7,-0.5,-1.19,-0.84,-1.48c-0.24,-0.2,-0.55,-0.3,-0.9,-0.3c-0.41,0,-0.78,0.18,-1.1,0.55c-0.43,0.5,-0.73,1.29,-0.89,2.38c-0.15,1.08,-0.23,2.15,-0.23,3.2m9.22,4.11c0.28,0,0.52,0.09,0.72,0.29c0.19,0.19,0.29,0.43,0.29,0.71c0,0.28,-0.09,0.51,-0.29,0.71c-0.19,0.19,-0.43,0.29,-0.71,0.29c-0.28,0,-0.51,-0.09,-0.71,-0.29c-0.19,-0.19,-0.29,-0.43,-0.29,-0.71c0,-0.28,0.09,-0.52,0.29,-0.72c0.19,-0.19,0.43,-0.29,0.71,-0.29m10.71,-10.86l0,0.33c-0.8,0.07,-1.45,0.23,-1.96,0.47c-0.5,0.24,-1.01,0.6,-1.5,1.1c-0.49,0.49,-0.9,1.04,-1.23,1.64c-0.32,0.6,-0.59,1.32,-0.81,2.15c0.87,-0.6,1.75,-0.9,2.63,-0.9c0.84,0,1.57,0.34,2.2,1.02c0.62,0.68,0.93,1.55,0.93,2.62c0,1.03,-0.31,1.97,-0.94,2.83c-0.75,1.03,-1.75,1.55,-2.99,1.55c-0.84,0,-1.56,-0.28,-2.15,-0.84c-1.15,-1.08,-1.73,-2.5,-1.73,-4.23c0,-1.1,0.22,-2.16,0.66,-3.15c0.44,-0.99,1.07,-1.88,1.9,-2.65c0.82,-0.77,1.61,-1.29,2.36,-1.56c0.75,-0.26,1.45,-0.4,2.1,-0.4l0.52,0m-5.67,6.39c-0.1,0.82,-0.16,1.48,-0.16,1.99c0,0.58,0.1,1.21,0.32,1.9c0.21,0.68,0.53,1.22,0.96,1.62c0.31,0.28,0.68,0.42,1.13,0.42c0.52,0,1,-0.24,1.41,-0.74c0.41,-0.49,0.62,-1.21,0.62,-2.13c0,-1.04,-0.2,-1.94,-0.62,-2.7c-0.41,-0.76,-1,-1.14,-1.76,-1.14c-0.23,0,-0.47,0.04,-0.74,0.14c-0.26,0.09,-0.65,0.3,-1.17,0.63" fill="#000000" stroke="none" fill-opacity="1"/>
<path d="m36.71,110.44c0,-1.41,0.21,-2.62,0.63,-3.64c0.42,-1.01,0.99,-1.77,1.69,-2.27c0.54,-0.39,1.11,-0.59,1.69,-0.59c0.94,0,1.8,0.48,2.55,1.45c0.94,1.19,1.41,2.82,1.41,4.87c0,1.43,-0.2,2.65,-0.62,3.66c-0.41,1,-0.94,1.73,-1.58,2.18c-0.64,0.45,-1.26,0.68,-1.85,0.68c-1.18,0,-2.16,-0.69,-2.94,-2.09c-0.66,-1.17,-0.99,-2.59,-0.99,-4.24m1.78,0.22c0,1.7,0.21,3.09,0.63,4.17c0.34,0.9,0.86,1.36,1.55,1.36c0.32,0,0.66,-0.14,1.02,-0.44c0.35,-0.29,0.62,-0.78,0.8,-1.48c0.28,-1.04,0.42,-2.52,0.42,-4.42c0,-1.41,-0.14,-2.59,-0.43,-3.53c-0.21,-0.7,-0.5,-1.19,-0.84,-1.48c-0.24,-0.2,-0.55,-0.3,-0.9,-0.3c-0.41,0,-0.78,0.18,-1.1,0.55c-0.43,0.5,-0.73,1.29,-0.89,2.38c-0.15,1.08,-0.23,2.15,-0.23,3.2m9.22,4.11c0.28,0,0.52,0.09,0.72,0.29c0.19,0.19,0.29,0.43,0.29,0.71c0,0.28,-0.09,0.51,-0.29,0.71c-0.19,0.19,-0.43,0.29,-0.71,0.29c-0.28,0,-0.51,-0.09,-0.71,-0.29c-0.19,-0.19,-0.29,-0.43,-0.29,-0.71c0,-0.28,0.09,-0.52,0.29,-0.72c0.19,-0.19,0.43,-0.29,0.71,-0.29m5.92,-4.46c-0.98,-0.8,-1.61,-1.44,-1.89,-1.93c-0.28,-0.48,-0.42,-0.99,-0.42,-1.51c0,-0.8,0.31,-1.49,0.93,-2.07c0.62,-0.58,1.44,-0.87,2.47,-0.87c0.99,0,1.8,0.27,2.41,0.81c0.6,0.54,0.91,1.15,0.91,1.85c0,0.46,-0.16,0.93,-0.49,1.41c-0.32,0.48,-1.01,1.04,-2.05,1.69c1.07,0.82,1.78,1.47,2.12,1.95c0.46,0.62,0.69,1.27,0.69,1.96c0,0.87,-0.33,1.61,-0.99,2.23c-0.66,0.61,-1.53,0.92,-2.61,0.92c-1.17,0,-2.09,-0.36,-2.74,-1.1c-0.52,-0.59,-0.78,-1.23,-0.78,-1.93c0,-0.54,0.18,-1.09,0.55,-1.62c0.36,-0.53,1,-1.13,1.9,-1.78m1.43,-0.97c0.73,-0.65,1.19,-1.17,1.38,-1.55c0.19,-0.38,0.29,-0.81,0.29,-1.29c0,-0.63,-0.17,-1.13,-0.53,-1.5c-0.35,-0.36,-0.84,-0.54,-1.47,-0.54c-0.62,0,-1.12,0.17,-1.51,0.53c-0.38,0.35,-0.58,0.77,-0.58,1.26c0,0.31,0.08,0.63,0.24,0.94c0.16,0.31,0.39,0.61,0.68,0.9l1.49,1.24m-1,1.32c-0.5,0.42,-0.87,0.89,-1.12,1.39c-0.24,0.5,-0.36,1.04,-0.36,1.62c0,0.78,0.21,1.41,0.64,1.88c0.42,0.47,0.97,0.7,1.63,0.7c0.65,0,1.18,-0.18,1.57,-0.55c0.39,-0.37,0.59,-0.82,0.59,-1.35c0,-0.43,-0.11,-0.83,-0.34,-1.17c-0.43,-0.64,-1.3,-1.48,-2.62,-2.52" fill="#000000" stroke="none" fill-opacity="1"/>
<path d="m52.25,37.01l3.01,-1.47l0.3,0l0,10.45c0,0.69,0.02,1.12,0.08,1.29c0.05,0.17,0.17,0.3,0.36,0.39c0.18,0.09,0.55,0.14,1.11,0.15l0,0.33l-4.65,0l0,-0.33c0.58,-0.01,0.96,-0.06,1.13,-0.15c0.17,-0.08,0.28,-0.2,0.35,-0.35c0.06,-0.14,0.1,-0.59,0.1,-1.33l0,-6.68c0,-0.9,-0.03,-1.47,-0.09,-1.73c-0.04,-0.19,-0.12,-0.33,-0.23,-0.42c-0.11,-0.09,-0.24,-0.13,-0.4,-0.13c-0.22,0,-0.53,0.09,-0.94,0.28l-0.13,-0.28" fill="#000000" stroke="none" fill-opacity="1"/>
</g>
<g fill="none" stroke-linecap="butt" stroke-width="0.66">
<path d="M560.35,383.65l0,-376.1"/>
<path d="M560.35,366.56l-4,0M560.35,349.46l-4,0M560.35,332.37l-4,0M560.35,315.27l-4,0M560.35,298.18l-4,0M560.35,281.08l-4,0M560.35,263.99l-4,0M560.35,246.89l-4,0M560.35,229.8l-4,0M560.35,212.7l-4,0M560.35,195.6l-4,0M560.35,178.51l-4,0M560.35,161.41l-4,0M560.35,144.32l-4,0M560.35,127.22l-4,0M560.35,110.13l-4,0M560.35,93.03l-4,0M560.35,75.94l-4,0M560.35,58.84l-4,0M560.35,41.75l-4,0M560.35,24.65l-4,0M560.35,7.55l-4,0"/>
<path d="M560.35,315.27l-8,0M560.35,246.89l-8,0M560.35,178.51l-8,0M560.35,110.13l-8,0M560.35,41.75l-8,0"/>
<path d="M64.25,383.65l496.1,0"/>
<path d="M64.25,383.65l0,-4M102.41,383.65l0,-4M140.57,383.65l0,-4M178.73,383.65l0,-4M216.89,383.65l0,-4M255.06,383.65l0,-4M293.22,383.65l0,-4M331.38,383.65l0,-4M369.54,383.65l0,-4M407.7,383.65l0,-4M445.86,383.65l0,-4M484.02,383.65l0,-4M522.19,383.65l0,-4M560.35,383.65l0,-4"/>
<path d="M64.25,383.65l0,-8M140.57,383.65l0,-8M216.89,383.65l0,-8M293.22,383.65l0,-8M369.54,383.65l0,-8M445.86,383.65l0,-8M522.19,383.65l0,-8"/>
</g>
<g fill="none" stroke-width="0.1">
<path d="m267.21,419.11l0,0.33c-0.32,0,-0.58,0.05,-0.78,0.17c-0.2,0.11,-0.39,0.33,-0.57,0.64c-0.12,0.21,-0.31,0.72,-0.57,1.52l-3.45,9.98l-0.36,0l-2.82,-7.91l-2.8,7.91l-0.32,0l-3.67,-10.28c-0.27,-0.76,-0.44,-1.22,-0.52,-1.36c-0.12,-0.23,-0.28,-0.4,-0.49,-0.51c-0.21,-0.11,-0.49,-0.16,-0.85,-0.16l0,-0.33l4.58,0l0,0.33l-0.21,0c-0.32,0,-0.56,0.07,-0.73,0.21c-0.17,0.14,-0.25,0.32,-0.25,0.52c0,0.21,0.13,0.7,0.4,1.47l2.43,6.94l2.05,-5.9l-0.36,-1.04l-0.29,-0.83c-0.12,-0.3,-0.27,-0.57,-0.42,-0.8c-0.07,-0.11,-0.17,-0.21,-0.29,-0.29c-0.15,-0.1,-0.3,-0.18,-0.45,-0.23c-0.11,-0.03,-0.29,-0.05,-0.54,-0.05l0,-0.33l4.82,0l0,0.33l-0.32,0c-0.34,0,-0.59,0.07,-0.74,0.21c-0.15,0.14,-0.23,0.34,-0.23,0.59c0,0.31,0.13,0.85,0.41,1.62l2.37,6.72l2.35,-6.82c0.26,-0.75,0.4,-1.27,0.4,-1.57c0,-0.14,-0.04,-0.27,-0.13,-0.39c-0.08,-0.12,-0.19,-0.2,-0.33,-0.25c-0.23,-0.08,-0.53,-0.12,-0.9,-0.12l0,-0.33l3.69,0m3.97,11.17c-0.85,0.66,-1.39,1.04,-1.61,1.15c-0.32,0.15,-0.67,0.22,-1.05,0.22c-0.57,0,-1.05,-0.19,-1.42,-0.59c-0.37,-0.39,-0.56,-0.91,-0.56,-1.56c0,-0.4,0.09,-0.76,0.27,-1.05c0.24,-0.41,0.68,-0.8,1.3,-1.16c0.61,-0.36,1.64,-0.8,3.08,-1.33l0,-0.32c0,-0.83,-0.13,-1.4,-0.39,-1.71c-0.26,-0.31,-0.64,-0.46,-1.15,-0.46c-0.38,0,-0.68,0.1,-0.91,0.31c-0.23,0.2,-0.34,0.44,-0.34,0.71l0.01,0.52c0,0.28,-0.07,0.49,-0.21,0.64c-0.14,0.15,-0.33,0.22,-0.56,0.22c-0.22,0,-0.4,-0.07,-0.55,-0.23c-0.14,-0.15,-0.21,-0.37,-0.21,-0.64c0,-0.52,0.26,-1,0.8,-1.44c0.53,-0.43,1.28,-0.65,2.25,-0.65c0.74,0,1.35,0.12,1.82,0.37c0.35,0.18,0.62,0.48,0.79,0.88c0.1,0.26,0.16,0.79,0.16,1.6l0,2.83c0,0.79,0.01,1.28,0.04,1.46c0.03,0.17,0.08,0.29,0.15,0.36c0.07,0.06,0.15,0.09,0.24,0.09c0.09,0,0.18,-0.02,0.25,-0.06c0.12,-0.07,0.37,-0.3,0.73,-0.66l0,0.51c-0.68,0.91,-1.33,1.36,-1.95,1.36c-0.29,0,-0.53,-0.1,-0.71,-0.31c-0.17,-0.2,-0.26,-0.56,-0.27,-1.05m0,-0.59l0,-3.18c-0.91,0.36,-1.51,0.62,-1.78,0.77c-0.48,0.26,-0.82,0.54,-1.03,0.84c-0.2,0.29,-0.31,0.61,-0.31,0.95c0,0.43,0.13,0.8,0.39,1.09c0.26,0.28,0.56,0.43,0.9,0.43c0.46,0,1.07,-0.3,1.82,-0.91m3.13,-6.56l3.93,0l0,0.33l-0.25,0c-0.23,0,-0.41,0.05,-0.54,0.17c-0.12,0.11,-0.18,0.27,-0.18,0.46c0,0.21,0.06,0.46,0.19,0.75l1.94,4.62l1.95,-4.79c0.14,-0.34,0.21,-0.59,0.21,-0.77c0,-0.08,-0.02,-0.15,-0.07,-0.21c-0.06,-0.09,-0.15,-0.15,-0.25,-0.18c-0.1,-0.03,-0.31,-0.05,-0.63,-0.05l0,-0.33l2.73,0l0,0.33c-0.31,0.02,-0.53,0.08,-0.65,0.19c-0.21,0.18,-0.4,0.48,-0.57,0.91l-2.96,7.17l-0.37,0l-2.98,-7.05c-0.13,-0.32,-0.26,-0.56,-0.38,-0.7c-0.12,-0.14,-0.27,-0.26,-0.46,-0.36c-0.1,-0.05,-0.3,-0.1,-0.61,-0.15l0,-0.33m11.18,3.15c0,1.24,0.29,2.21,0.9,2.92c0.6,0.7,1.32,1.05,2.14,1.05c0.54,0,1.02,-0.15,1.42,-0.45c0.4,-0.3,0.74,-0.81,1.01,-1.54l0.28,0.18c-0.12,0.83,-0.49,1.59,-1.11,2.27c-0.61,0.68,-1.38,1.02,-2.31,1.02c-1,0,-1.86,-0.39,-2.57,-1.17c-0.71,-0.78,-1.07,-1.83,-1.07,-3.15c0,-1.43,0.36,-2.54,1.1,-3.34c0.73,-0.8,1.65,-1.2,2.76,-1.2c0.93,0,1.7,0.3,2.31,0.92c0.6,0.61,0.9,1.44,0.9,2.47l-5.77,0m0,-0.52l3.87,0c-0.03,-0.53,-0.09,-0.91,-0.19,-1.13c-0.15,-0.34,-0.37,-0.6,-0.68,-0.8c-0.3,-0.19,-0.61,-0.29,-0.94,-0.29c-0.5,0,-0.95,0.19,-1.35,0.58c-0.39,0.39,-0.63,0.93,-0.69,1.63m9.76,-7.24l0,11.09c0,0.52,0.03,0.87,0.11,1.04c0.07,0.17,0.19,0.29,0.35,0.38c0.15,0.08,0.45,0.13,0.88,0.13l0,0.32l-4.09,0l0,-0.32c0.38,0,0.64,-0.03,0.78,-0.11c0.14,-0.07,0.24,-0.21,0.32,-0.39c0.07,-0.18,0.11,-0.53,0.11,-1.05l0,-7.59c0,-0.94,-0.02,-1.52,-0.06,-1.73c-0.04,-0.21,-0.11,-0.36,-0.2,-0.44c-0.09,-0.07,-0.21,-0.11,-0.36,-0.11c-0.15,0,-0.35,0.04,-0.6,0.14l-0.15,-0.31l2.49,-1.02l0.41,0m3.72,7.77c0,1.24,0.29,2.21,0.9,2.92c0.6,0.7,1.32,1.05,2.14,1.05c0.54,0,1.02,-0.15,1.42,-0.45c0.4,-0.3,0.74,-0.81,1.01,-1.54l0.28,0.18c-0.12,0.83,-0.49,1.59,-1.11,2.27c-0.61,0.68,-1.38,1.02,-2.31,1.02c-1,0,-1.86,-0.39,-2.57,-1.17c-0.71,-0.78,-1.07,-1.83,-1.07,-3.15c0,-1.43,0.36,-2.54,1.1,-3.34c0.73,-0.8,1.65,-1.2,2.76,-1.2c0.93,0,1.7,0.3,2.31,0.92c0.6,0.61,0.9,1.44,0.9,2.47l-5.77,0m0,-0.52l3.87,0c-0.03,-0.53,-0.09,-0.91,-0.19,-1.13c-0.15,-0.34,-0.37,-0.6,-0.68,-0.8c-0.3,-0.19,-0.61,-0.29,-0.94,-0.29c-0.5,0,-0.95,0.19,-1.35,0.58c-0.39,0.39,-0.63,0.93,-0.69,1.63m9.33,-1.09c0.98,-1.18,1.91,-1.77,2.8,-1.77c0.45,0,0.84,0.11,1.17,0.34c0.32,0.22,0.59,0.6,0.78,1.12c0.13,0.36,0.2,0.92,0.2,1.68l0,3.57c0,0.52,0.04,0.88,0.12,1.07c0.06,0.15,0.17,0.27,0.32,0.35c0.14,0.08,0.42,0.12,0.82,0.12l0,0.32l-4.13,0l0,-0.32l0.17,0c0.38,0,0.66,-0.05,0.81,-0.17c0.15,-0.11,0.26,-0.29,0.32,-0.52c0.02,-0.09,0.03,-0.37,0.03,-0.85l0,-3.42c0,-0.76,-0.09,-1.31,-0.29,-1.65c-0.19,-0.34,-0.53,-0.51,-0.99,-0.51c-0.72,0,-1.44,0.39,-2.16,1.18l0,4.41c0,0.56,0.03,0.91,0.1,1.05c0.08,0.17,0.2,0.3,0.35,0.38c0.14,0.08,0.45,0.12,0.9,0.12l0,0.32l-4.13,0l0,-0.32l0.18,0c0.42,0,0.71,-0.1,0.86,-0.32c0.14,-0.21,0.22,-0.62,0.22,-1.23l0,-3.1c0,-1,-0.02,-1.61,-0.06,-1.83c-0.04,-0.21,-0.11,-0.36,-0.21,-0.44c-0.09,-0.07,-0.22,-0.11,-0.37,-0.11c-0.17,0,-0.37,0.04,-0.61,0.13l-0.13,-0.32l2.52,-1.02l0.39,0l0,1.77m9.14,3.78c-0.51,-0.24,-0.9,-0.59,-1.17,-1.04c-0.27,-0.44,-0.41,-0.94,-0.41,-1.48c0,-0.82,0.31,-1.54,0.93,-2.13c0.62,-0.59,1.42,-0.89,2.39,-0.89c0.79,0,1.48,0.19,2.07,0.58l1.77,0c0.26,0,0.41,0,0.45,0.02c0.04,0.01,0.07,0.04,0.09,0.07c0.03,0.05,0.05,0.15,0.05,0.29c0,0.15,-0.01,0.26,-0.04,0.32c-0.01,0.03,-0.05,0.05,-0.09,0.07c-0.04,0.01,-0.19,0.02,-0.46,0.02l-1.08,0c0.34,0.43,0.51,0.99,0.51,1.68c0,0.77,-0.29,1.44,-0.89,1.99c-0.59,0.55,-1.39,0.83,-2.4,0.83c-0.41,0,-0.83,-0.06,-1.26,-0.18c-0.26,0.23,-0.44,0.43,-0.54,0.6c-0.09,0.17,-0.14,0.32,-0.14,0.44c0,0.1,0.05,0.2,0.15,0.3c0.1,0.09,0.29,0.16,0.58,0.21c0.17,0.02,0.59,0.04,1.27,0.06c1.25,0.03,2.06,0.07,2.43,0.12c0.56,0.07,1.01,0.28,1.35,0.63c0.33,0.34,0.5,0.76,0.5,1.26c0,0.68,-0.32,1.33,-0.96,1.93c-0.94,0.88,-2.18,1.33,-3.71,1.33c-1.17,0,-2.16,-0.26,-2.97,-0.79c-0.45,-0.3,-0.68,-0.62,-0.68,-0.94c0,-0.14,0.03,-0.29,0.1,-0.43c0.1,-0.22,0.31,-0.53,0.63,-0.94c0.04,-0.05,0.35,-0.38,0.93,-0.98c-0.31,-0.18,-0.54,-0.35,-0.67,-0.5c-0.13,-0.14,-0.19,-0.31,-0.19,-0.5c0,-0.21,0.08,-0.46,0.26,-0.74c0.17,-0.28,0.57,-0.69,1.2,-1.21m1.58,-5.12c-0.45,0,-0.82,0.17,-1.13,0.53c-0.3,0.35,-0.45,0.91,-0.45,1.65c0,0.96,0.2,1.7,0.62,2.23c0.31,0.4,0.71,0.6,1.2,0.6c0.46,0,0.84,-0.17,1.14,-0.52c0.29,-0.34,0.44,-0.89,0.44,-1.63c0,-0.96,-0.21,-1.72,-0.63,-2.27c-0.31,-0.4,-0.7,-0.6,-1.19,-0.6m-1.68,8.17c-0.28,0.31,-0.5,0.59,-0.64,0.86c-0.14,0.26,-0.21,0.51,-0.21,0.73c0,0.29,0.17,0.54,0.52,0.76c0.6,0.37,1.48,0.56,2.63,0.56c1.09,0,1.9,-0.19,2.42,-0.57c0.52,-0.38,0.78,-0.79,0.78,-1.23c0,-0.31,-0.15,-0.54,-0.46,-0.67c-0.31,-0.13,-0.94,-0.21,-1.88,-0.23c-1.36,-0.03,-2.42,-0.1,-3.15,-0.21m9.63,-11.11l0,2.74l1.95,0l0,0.63l-1.95,0l0,5.42c0,0.54,0.07,0.9,0.23,1.09c0.15,0.18,0.35,0.28,0.59,0.28c0.2,0,0.39,-0.06,0.58,-0.18c0.18,-0.12,0.33,-0.3,0.43,-0.55l0.35,0c-0.21,0.59,-0.51,1.04,-0.9,1.34c-0.38,0.3,-0.79,0.45,-1.2,0.45c-0.28,0,-0.55,-0.07,-0.82,-0.23c-0.26,-0.15,-0.46,-0.37,-0.59,-0.66c-0.12,-0.28,-0.19,-0.73,-0.19,-1.33l0,-5.62l-1.32,0l0,-0.3c0.33,-0.13,0.67,-0.36,1.02,-0.68c0.35,-0.31,0.66,-0.69,0.93,-1.13c0.14,-0.23,0.33,-0.65,0.58,-1.26l0.28,0m5.22,-1.87l0,6.11c0.67,-0.74,1.21,-1.21,1.6,-1.42c0.39,-0.21,0.79,-0.31,1.18,-0.31c0.47,0,0.88,0.13,1.22,0.39c0.34,0.26,0.59,0.67,0.75,1.23c0.11,0.38,0.17,1.1,0.17,2.13l0,2.95c0,0.52,0.04,0.89,0.12,1.08c0.06,0.14,0.16,0.26,0.31,0.34c0.14,0.08,0.41,0.12,0.8,0.12l0,0.32l-4.1,0l0,-0.32l0.19,0c0.38,0,0.66,-0.05,0.81,-0.17c0.15,-0.11,0.25,-0.29,0.31,-0.52c0.01,-0.09,0.02,-0.38,0.02,-0.85l0,-2.95c0,-0.91,-0.04,-1.51,-0.14,-1.79c-0.09,-0.28,-0.24,-0.5,-0.45,-0.64c-0.2,-0.14,-0.45,-0.21,-0.74,-0.21c-0.29,0,-0.6,0.07,-0.93,0.23c-0.32,0.15,-0.7,0.47,-1.15,0.95l0,4.41c0,0.57,0.03,0.92,0.09,1.06c0.06,0.14,0.18,0.25,0.35,0.35c0.17,0.09,0.47,0.14,0.89,0.14l0,0.32l-4.14,0l0,-0.32c0.37,0,0.66,-0.05,0.87,-0.17c0.12,-0.06,0.21,-0.17,0.29,-0.34c0.07,-0.17,0.1,-0.51,0.1,-1.04l0,-7.56c0,-0.95,-0.02,-1.54,-0.06,-1.76c-0.04,-0.21,-0.11,-0.36,-0.21,-0.44c-0.09,-0.07,-0.22,-0.11,-0.37,-0.11c-0.12,0,-0.33,0.04,-0.62,0.14l-0.12,-0.31l2.5,-1.02l0.42,0m12.11,16.64l0,0.33c-0.91,-0.46,-1.68,-1,-2.3,-1.62c-0.87,-0.88,-1.55,-1.92,-2.02,-3.12c-0.47,-1.19,-0.71,-2.44,-0.71,-3.73c0,-1.88,0.46,-3.6,1.39,-5.16c0.93,-1.55,2.14,-2.66,3.64,-3.33l0,0.38c-0.74,0.41,-1.36,0.98,-1.84,1.69c-0.48,0.71,-0.84,1.62,-1.07,2.73c-0.23,1.1,-0.35,2.25,-0.35,3.45c0,1.3,0.1,2.48,0.3,3.55c0.15,0.84,0.35,1.51,0.57,2.02c0.22,0.5,0.52,0.99,0.9,1.46c0.38,0.46,0.87,0.91,1.49,1.34m3.44,-10.5c0.98,-1.18,1.91,-1.77,2.8,-1.77c0.45,0,0.84,0.11,1.17,0.34c0.32,0.22,0.59,0.6,0.78,1.12c0.13,0.36,0.2,0.92,0.2,1.68l0,3.57c0,0.52,0.04,0.88,0.12,1.07c0.06,0.15,0.17,0.27,0.32,0.35c0.14,0.08,0.42,0.12,0.82,0.12l0,0.32l-4.13,0l0,-0.32l0.17,0c0.38,0,0.66,-0.05,0.81,-0.17c0.15,-0.11,0.26,-0.29,0.32,-0.52c0.02,-0.09,0.03,-0.37,0.03,-0.85l0,-3.42c0,-0.76,-0.09,-1.31,-0.29,-1.65c-0.19,-0.34,-0.53,-0.51,-0.99,-0.51c-0.72,0,-1.44,0.39,-2.16,1.18l0,4.41c0,0.56,0.03,0.91,0.1,1.05c0.08,0.17,0.2,0.3,0.35,0.38c0.14,0.08,0.45,0.12,0.9,0.12l0,0.32l-4.13,0l0,-0.32l0.18,0c0.42,0,0.71,-0.1,0.86,-0.32c0.14,-0.21,0.22,-0.62,0.22,-1.23l0,-3.1c0,-1,-0.02,-1.61,-0.06,-1.83c-0.04,-0.21,-0.11,-0.36,-0.21,-0.44c-0.09,-0.07,-0.22,-0.11,-0.37,-0.11c-0.17,0,-0.37,0.04,-0.61,0.13l-0.13,-0.32l2.52,-1.02l0.39,0l0,1.77m9.39,0c0.6,-0.6,0.96,-0.95,1.07,-1.05c0.27,-0.23,0.56,-0.41,0.88,-0.53c0.31,-0.12,0.63,-0.19,0.94,-0.19c0.52,0,0.97,0.15,1.35,0.45c0.37,0.3,0.63,0.74,0.75,1.32c0.62,-0.73,1.15,-1.2,1.58,-1.43c0.43,-0.22,0.87,-0.34,1.33,-0.34c0.44,0,0.83,0.11,1.18,0.34c0.34,0.22,0.61,0.6,0.81,1.11c0.13,0.35,0.2,0.9,0.2,1.66l0,3.59c0,0.52,0.03,0.88,0.11,1.07c0.06,0.13,0.17,0.24,0.33,0.34c0.16,0.09,0.43,0.14,0.8,0.14l0,0.32l-4.12,0l0,-0.32l0.17,0c0.35,0,0.63,-0.07,0.84,-0.21c0.14,-0.09,0.24,-0.25,0.3,-0.46c0.02,-0.1,0.03,-0.39,0.03,-0.88l0,-3.59c0,-0.68,-0.08,-1.16,-0.24,-1.44c-0.23,-0.38,-0.61,-0.58,-1.14,-0.58c-0.32,0,-0.64,0.08,-0.97,0.24c-0.32,0.16,-0.71,0.46,-1.18,0.89l-0.01,0.1l0.01,0.39l0,3.99c0,0.57,0.03,0.92,0.09,1.06c0.06,0.14,0.18,0.25,0.36,0.35c0.17,0.09,0.47,0.14,0.9,0.14l0,0.32l-4.22,0l0,-0.32c0.46,0,0.78,-0.05,0.95,-0.16c0.17,-0.1,0.29,-0.27,0.36,-0.49c0.03,-0.1,0.04,-0.4,0.04,-0.9l0,-3.59c0,-0.68,-0.1,-1.17,-0.3,-1.47c-0.26,-0.38,-0.64,-0.58,-1.12,-0.58c-0.32,0,-0.65,0.08,-0.97,0.26c-0.5,0.26,-0.89,0.56,-1.16,0.9l0,4.48c0,0.54,0.03,0.9,0.11,1.06c0.07,0.16,0.18,0.28,0.33,0.36c0.14,0.08,0.45,0.12,0.9,0.12l0,0.32l-4.13,0l0,-0.32c0.38,0,0.65,-0.04,0.8,-0.12c0.15,-0.08,0.26,-0.21,0.34,-0.39c0.07,-0.17,0.11,-0.52,0.11,-1.04l0,-3.19c0,-0.91,-0.02,-1.51,-0.08,-1.78c-0.04,-0.2,-0.1,-0.33,-0.2,-0.41c-0.09,-0.07,-0.21,-0.11,-0.37,-0.11c-0.17,0,-0.37,0.04,-0.61,0.13l-0.13,-0.32l2.52,-1.02l0.39,0l0,1.78m11.89,-5.77l0,-0.38c0.92,0.45,1.69,0.99,2.31,1.61c0.87,0.88,1.54,1.93,2.01,3.12c0.47,1.19,0.71,2.44,0.71,3.73c0,1.88,-0.46,3.6,-1.39,5.16c-0.92,1.55,-2.14,2.66,-3.64,3.33l0,-0.33c0.74,-0.42,1.36,-0.98,1.84,-1.7c0.48,-0.71,0.84,-1.62,1.07,-2.73c0.23,-1.1,0.35,-2.25,0.35,-3.45c0,-1.29,-0.1,-2.48,-0.3,-3.55c-0.15,-0.84,-0.34,-1.51,-0.57,-2.01c-0.22,-0.5,-0.53,-0.99,-0.9,-1.46c-0.37,-0.46,-0.87,-0.91,-1.49,-1.34" fill="#000000" stroke="none" fill-opacity="1"/>
<path d="m58.8,402.77l-0.86,2.38l-7.3,0l0,-0.33c2.14,-1.96,3.66,-3.56,4.53,-4.8c0.87,-1.24,1.31,-2.37,1.31,-3.4c0,-0.78,-0.24,-1.43,-0.72,-1.93c-0.48,-0.5,-1.05,-0.75,-1.72,-0.75c-0.6,0,-1.15,0.17,-1.63,0.53c-0.48,0.35,-0.84,0.87,-1.07,1.56l-0.33,0c0.15,-1.12,0.54,-1.99,1.17,-2.59c0.63,-0.6,1.41,-0.9,2.36,-0.9c1,0,1.84,0.32,2.51,0.96c0.67,0.64,1,1.4,1,2.28c0,0.62,-0.14,1.25,-0.43,1.88c-0.45,0.98,-1.18,2.03,-2.19,3.13c-1.51,1.65,-2.46,2.65,-2.83,2.99l3.23,0c0.65,0,1.11,-0.02,1.38,-0.07c0.26,-0.04,0.5,-0.14,0.71,-0.29c0.21,-0.14,0.39,-0.36,0.55,-0.63l0.33,0m1.45,-3.73c0,-1.41,0.21,-2.62,0.63,-3.64c0.42,-1.01,0.99,-1.77,1.69,-2.27c0.54,-0.39,1.11,-0.59,1.69,-0.59c0.94,0,1.8,0.48,2.55,1.45c0.94,1.19,1.41,2.82,1.41,4.87c0,1.43,-0.2,2.65,-0.62,3.66c-0.41,1,-0.94,1.73,-1.58,2.18c-0.64,0.45,-1.26,0.68,-1.85,0.68c-1.18,0,-2.16,-0.69,-2.94,-2.09c-0.66,-1.17,-0.99,-2.59,-0.99,-4.24m1.78,0.22c0,1.7,0.21,3.09,0.63,4.17c0.34,0.9,0.86,1.36,1.55,1.36c0.32,0,0.66,-0.14,1.02,-0.44c0.35,-0.29,0.62,-0.78,0.8,-1.48c0.28,-1.04,0.42,-2.52,0.42,-4.42c0,-1.41,-0.14,-2.59,-0.43,-3.53c-0.21,-0.7,-0.5,-1.19,-0.84,-1.48c-0.24,-0.2,-0.55,-0.3,-0.9,-0.3c-0.41,0,-0.78,0.18,-1.1,0.55c-0.43,0.5,-0.73,1.29,-0.89,2.38c-0.15,1.08,-0.23,2.15,-0.23,3.2m7.56,-0.22c0,-1.41,0.21,-2.62,0.63,-3.64c0.42,-1.01,0.99,-1.77,1.69,-2.27c0.54,-0.39,1.11,-0.59,1.69,-0.59c0.94,0,1.8,0.48,2.55,1.45c0.94,1.19,1.41,2.82,1.41,4.87c0,1.43,-0.2,2.65,-0.62,3.66c-0.41,1,-0.94,1.73,-1.58,2.18c-0.64,0.45,-1.26,0.68,-1.85,0.68c-1.18,0,-2.16,-0.69,-2.94,-2.09c-0.66,-1.17,-0.99,-2.59,-0.99,-4.24m1.78,0.22c0,1.7,0.21,3.09,0.63,4.17c0.34,0.9,0.86,1.36,1.55,1.36c0.32,0,0.66,-0.14,1.02,-0.44c0.35,-0.29,0.62,-0.78,0.8,-1.48c0.28,-1.04,0.42,-2.52,0.42,-4.42c0,-1.41,-0.14,-2.59,-0.43,-3.53c-0.21,-0.7,-0.5,-1.19,-0.84,-1.48c-0.24,-0.2,-0.55,-0.3,-0.9,-0.3c-0.41,0,-0.78,0.18,-1.1,0.55c-0.43,0.5,-0.73,1.29,-0.89,2.38c-0.15,1.08,-0.23,2.15,-0.23,3.2" fill="#000000" stroke="none" fill-opacity="1"/>
<path d="m127.49,395.13c0.35,-0.83,0.79,-1.47,1.33,-1.93c0.53,-0.45,1.2,-0.68,2.01,-0.68c0.99,0,1.75,0.32,2.28,0.96c0.4,0.48,0.6,0.99,0.6,1.54c0,0.9,-0.56,1.83,-1.69,2.79c0.76,0.29,1.33,0.72,1.72,1.27c0.38,0.55,0.58,1.2,0.58,1.95c0,1.07,-0.34,1.99,-1.02,2.78c-0.88,1.02,-2.17,1.53,-3.86,1.53c-0.83,0,-1.4,-0.1,-1.7,-0.31c-0.3,-0.2,-0.45,-0.42,-0.45,-0.66c0,-0.17,0.07,-0.33,0.21,-0.46c0.14,-0.13,0.31,-0.2,0.51,-0.2c0.15,0,0.3,0.02,0.46,0.07c0.1,0.03,0.33,0.14,0.7,0.33c0.36,0.19,0.61,0.3,0.75,0.34c0.22,0.06,0.46,0.1,0.72,0.1c0.62,0,1.16,-0.24,1.62,-0.72c0.45,-0.48,0.68,-1.05,0.68,-1.7c0,-0.48,-0.1,-0.94,-0.31,-1.4c-0.15,-0.34,-0.33,-0.59,-0.52,-0.77c-0.26,-0.24,-0.62,-0.46,-1.07,-0.66c-0.45,-0.19,-0.92,-0.29,-1.39,-0.29l-0.29,0l0,-0.27c0.48,-0.06,0.96,-0.23,1.44,-0.52c0.48,-0.28,0.83,-0.63,1.05,-1.03c0.21,-0.4,0.32,-0.84,0.32,-1.32c0,-0.62,-0.19,-1.13,-0.58,-1.52c-0.39,-0.38,-0.88,-0.57,-1.46,-0.57c-0.94,0,-1.73,0.5,-2.36,1.51l-0.3,-0.14m9.07,3.9c0,-1.41,0.21,-2.62,0.63,-3.64c0.42,-1.01,0.99,-1.77,1.69,-2.27c0.54,-0.39,1.11,-0.59,1.69,-0.59c0.94,0,1.8,0.48,2.55,1.45c0.94,1.19,1.41,2.82,1.41,4.87c0,1.43,-0.2,2.65,-0.62,3.66c-0.41,1,-0.94,1.73,-1.58,2.18c-0.64,0.45,-1.26,0.68,-1.85,0.68c-1.18,0,-2.16,-0.69,-2.94,-2.09c-0.66,-1.17,-0.99,-2.59,-0.99,-4.24m1.78,0.22c0,1.7,0.21,3.09,0.63,4.17c0.34,0.9,0.86,1.36,1.55,1.36c0.32,0,0.66,-0.14,1.02,-0.44c0.35,-0.29,0.62,-0.78,0.8,-1.48c0.28,-1.04,0.42,-2.52,0.42,-4.42c0,-1.41,-0.14,-2.59,-0.43,-3.53c-0.21,-0.7,-0.5,-1.19,-0.84,-1.48c-0.24,-0.2,-0.55,-0.3,-0.9,-0.3c-0.41,0,-0.78,0.18,-1.1,0.55c-0.43,0.5,-0.73,1.29,-0.89,2.38c-0.15,1.08,-0.23,2.15,-0.23,3.2m7.56,-0.22c0,-1.41,0.21,-2.62,0.63,-3.64c0.42,-1.01,0.99,-1.77,1.69,-2.27c0.54,-0.39,1.11,-0.59,1.69,-0.59c0.94,0,1.8,0.48,2.55,1.45c0.94,1.19,1.41,2.82,1.41,4.87c0,1.43,-0.2,2.65,-0.62,3.66c-0.41,1,-0.94,1.73,-1.58,2.18c-0.64,0.45,-1.26,0.68,-1.85,0.68c-1.18,0,-2.16,-0.69,-2.94,-2.09c-0.66,-1.17,-0.99,-2.59,-0.99,-4.24m1.78,0.22c0,1.7,0.21,3.09,0.63,4.17c0.34,0.9,0.86,1.36,1.55,1.36c0.32,0,0.66,-0.14,1.02,-0.44c0.35,-0.29,0.62,-0.78,0.8,-1.48c0.28,-1.04,0.42,-2.52,0.42,-4.42c0,-1.41,-0.14,-2.59,-0.43,-3.53c-0.21,-0.7,-0.5,-1.19,-0.84,-1.48c-0.24,-0.2,-0.55,-0.3,-0.9,-0.3c-0.41,0,-0.78,0.18,-1.1,0.55c-0.43,0.5,-0.73,1.29,-0.89,2.38c-0.15,1.08,-0.23,2.15,-0.23,3.2" fill="#000000" stroke="none" fill-opacity="1"/>
<path d="m211.57,400.59l0,1.29l-1.66,0l0,3.26l-1.5,0l0,-3.26l-5.24,0l0,-1.16l5.74,-8.19l1,0l0,8.07l1.66,0m-3.16,0l0,-6.14l-4.34,6.14l4.34,0m4.49,-1.55c0,-1.41,0.21,-2.62,0.63,-3.64c0.42,-1.01,0.99,-1.77,1.69,-2.27c0.54,-0.39,1.11,-0.59,1.69,-0.59c0.94,0,1.8,0.48,2.55,1.45c0.94,1.19,1.41,2.82,1.41,4.87c0,1.43,-0.2,2.65,-0.62,3.66c-0.41,1,-0.94,1.73,-1.58,2.18c-0.64,0.45,-1.26,0.68,-1.85,0.68c-1.18,0,-2.16,-0.69,-2.94,-2.09c-0.66,-1.17,-0.99,-2.59,-0.99,-4.24m1.78,0.22c0,1.7,0.21,3.09,0.63,4.17c0.34,0.9,0.86,1.36,1.55,1.36c0.32,0,0.66,-0.14,1.02,-0.44c0.35,-0.29,0.62,-0.78,0.8,-1.48c0.28,-1.04,0.42,-2.52,0.42,-4.42c0,-1.41,-0.14,-2.59,-0.43,-3.53c-0.21,-0.7,-0.5,-1.19,-0.84,-1.48c-0.24,-0.2,-0.55,-0.3,-0.9,-0.3c-0.41,0,-0.78,0.18,-1.1,0.55c-0.43,0.5,-0.73,1.29,-0.89,2.38c-0.15,1.08,-0.23,2.15,-0.23,3.2m7.56,-0.22c0,-1.41,0.21,-2.62,0.63,-3.64c0.42,-1.01,0.99,-1.77,1.69,-2.27c0.54,-0.39,1.11,-0.59,1.69,-0.59c0.94,0,1.8,0.48,2.55,1.45c0.94,1.19,1.41,2.82,1.41,4.87c0,1.43,-0.2,2.65,-0.62,3.66c-0.41,1,-0.94,1.73,-1.58,2.18c-0.64,0.45,-1.26,0.68,-1.85,0.68c-1.18,0,-2.16,-0.69,-2.94,-2.09c-0.66,-1.17,-0.99,-2.59,-0.99,-4.24m1.78,0.22c0,1.7,0.21,3.09,0.63,4.17c0.34,0.9,0.86,1.36,1.55,1.36c0.32,0,0.66,-0.14,1.02,-0.44c0.35,-0.29,0.62,-0.78,0.8,-1.48c0.28,-1.04,0.42,-2.52,0.42,-4.42c0,-1.41,-0.14,-2.59,-0.43,-3.53c-0.21,-0.7,-0.5,-1.19,-0.84,-1.48c-0.24,-0.2,-0.55,-0.3,-0.9,-0.3c-0.41,0,-0.78,0.18,-1.1,0.55c-0.43,0.5,-0.73,1.29,-0.89,2.38c-0.15,1.08,-0.23,2.15,-0.23,3.2" fill="#000000" stroke="none" fill-opacity="1"/>
<path d="m287.31,392.77l-0.71,1.55l-3.72,0l-0.81,1.66c1.61,0.23,2.89,0.83,3.83,1.79c0.8,0.82,1.21,1.8,1.21,2.92c0,0.65,-0.13,1.25,-0.39,1.8c-0.26,0.55,-0.59,1.02,-0.99,1.41c-0.4,0.38,-0.84,0.7,-1.34,0.94c-0.7,0.33,-1.41,0.5,-2.15,0.5c-0.74,0,-1.28,-0.12,-1.62,-0.37c-0.33,-0.25,-0.5,-0.53,-0.5,-0.83c0,-0.17,0.07,-0.32,0.21,-0.45c0.14,-0.13,0.31,-0.19,0.52,-0.19c0.15,0,0.29,0.02,0.41,0.07c0.11,0.04,0.32,0.17,0.6,0.37c0.45,0.31,0.91,0.47,1.38,0.47c0.71,0,1.33,-0.26,1.87,-0.8c0.53,-0.53,0.8,-1.19,0.8,-1.96c0,-0.74,-0.24,-1.44,-0.72,-2.09c-0.48,-0.64,-1.14,-1.14,-1.99,-1.5c-0.66,-0.27,-1.56,-0.43,-2.71,-0.47l2.37,-4.81l4.43,0m1.9,6.26c0,-1.41,0.21,-2.62,0.63,-3.64c0.42,-1.01,0.99,-1.77,1.69,-2.27c0.54,-0.39,1.11,-0.59,1.69,-0.59c0.94,0,1.8,0.48,2.55,1.45c0.94,1.19,1.41,2.82,1.41,4.87c0,1.43,-0.2,2.65,-0.62,3.66c-0.41,1,-0.94,1.73,-1.58,2.18c-0.64,0.45,-1.26,0.68,-1.85,0.68c-1.18,0,-2.16,-0.69,-2.94,-2.09c-0.66,-1.17,-0.99,-2.59,-0.99,-4.24m1.78,0.22c0,1.7,0.21,3.09,0.63,4.17c0.34,0.9,0.86,1.36,1.55,1.36c0.32,0,0.66,-0.14,1.02,-0.44c0.35,-0.29,0.62,-0.78,0.8,-1.48c0.28,-1.04,0.42,-2.52,0.42,-4.42c0,-1.41,-0.14,-2.59,-0.43,-3.53c-0.21,-0.7,-0.5,-1.19,-0.84,-1.48c-0.24,-0.2,-0.55,-0.3,-0.9,-0.3c-0.41,0,-0.78,0.18,-1.1,0.55c-0.43,0.5,-0.73,1.29,-0.89,2.38c-0.15,1.08,-0.23,2.15,-0.23,3.2m7.56,-0.22c0,-1.41,0.21,-2.62,0.63,-3.64c0.42,-1.01,0.99,-1.77,1.69,-2.27c0.54,-0.39,1.11,-0.59,1.69,-0.59c0.94,0,1.8,0.48,2.55,1.45c0.94,1.19,1.41,2.82,1.41,4.87c0,1.43,-0.2,2.65,-0.62,3.66c-0.41,1,-0.94,1.73,-1.58,2.18c-0.64,0.45,-1.26,0.68,-1.85,0.68c-1.18,0,-2.16,-0.69,-2.94,-2.09c-0.66,-1.17,-0.99,-2.59,-0.99,-4.24m1.78,0.22c0,1.7,0.21,3.09,0.63,4.17c0.34,0.9,0.86,1.36,1.55,1.36c0.32,0,0.66,-0.14,1.02,-0.44c0.35,-0.29,0.62,-0.78,0.8,-1.48c0.28,-1.04,0.42,-2.52,0.42,-4.42c0,-1.41,-0.14,-2.59,-0.43,-3.53c-0.21,-0.7,-0.5,-1.19,-0.84,-1.48c-0.24,-0.2,-0.55,-0.3,-0.9,-0.3c-0.41,0,-0.78,0.18,-1.1,0.55c-0.43,0.5,-0.73,1.29,-0.89,2.38c-0.15,1.08,-0.23,2.15,-0.23,3.2" fill="#000000" stroke="none" fill-opacity="1"/>
<path d="m363.9,392.52l0,0.33c-0.8,0.07,-1.45,0.23,-1.96,0.47c-0.5,0.24,-1.01,0.6,-1.5,1.1c-0.49,0.49,-0.9,1.04,-1.23,1.64c-0.32,0.6,-0.59,1.32,-0.81,2.15c0.87,-0.6,1.75,-0.9,2.63,-0.9c0.84,0,1.57,0.34,2.2,1.02c0.62,0.68,0.93,1.55,0.93,2.62c0,1.03,-0.31,1.97,-0.94,2.83c-0.75,1.03,-1.75,1.55,-2.99,1.55c-0.84,0,-1.56,-0.28,-2.15,-0.84c-1.15,-1.08,-1.73,-2.5,-1.73,-4.23c0,-1.1,0.22,-2.16,0.66,-3.15c0.44,-0.99,1.07,-1.88,1.9,-2.65c0.82,-0.77,1.61,-1.29,2.36,-1.56c0.75,-0.26,1.45,-0.4,2.1,-0.4l0.52,0m-5.67,6.39c-0.1,0.82,-0.16,1.48,-0.16,1.99c0,0.58,0.1,1.21,0.32,1.9c0.21,0.68,0.53,1.22,0.96,1.62c0.31,0.28,0.68,0.42,1.13,0.42c0.52,0,1,-0.24,1.41,-0.74c0.41,-0.49,0.62,-1.21,0.62,-2.13c0,-1.04,-0.2,-1.94,-0.62,-2.7c-0.41,-0.76,-1,-1.14,-1.76,-1.14c-0.23,0,-0.47,0.04,-0.74,0.14c-0.26,0.09,-0.65,0.3,-1.17,0.63m7.32,0.12c0,-1.41,0.21,-2.62,0.63,-3.64c0.42,-1.01,0.99,-1.77,1.69,-2.27c0.54,-0.39,1.11,-0.59,1.69,-0.59c0.94,0,1.8,0.48,2.55,1.45c0.94,1.19,1.41,2.82,1.41,4.87c0,1.43,-0.2,2.65,-0.62,3.66c-0.41,1,-0.94,1.73,-1.58,2.18c-0.64,0.45,-1.26,0.68,-1.85,0.68c-1.18,0,-2.16,-0.69,-2.94,-2.09c-0.66,-1.17,-0.99,-2.59,-0.99,-4.24m1.78,0.22c0,1.7,0.21,3.09,0.63,4.17c0.34,0.9,0.86,1.36,1.55,1.36c0.32,0,0.66,-0.14,1.02,-0.44c0.35,-0.29,0.62,-0.78,0.8,-1.48c0.28,-1.04,0.42,-2.52,0.42,-4.42c0,-1.41,-0.14,-2.59,-0.43,-3.53c-0.21,-0.7,-0.5,-1.19,-0.84,-1.48c-0.24,-0.2,-0.55,-0.3,-0.9,-0.3c-0.41,0,-0.78,0.18,-1.1,0.55c-0.43,0.5,-0.73,1.29,-0.89,2.38c-0.15,1.08,-0.23,2.15,-0.23,3.2m7.56,-0.22c0,-1.41,0.21,-2.62,0.63,-3.64c0.42,-1.01,0.99,-1.77,1.69,-2.27c0.54,-0.39,1.11,-0.59,1.69,-0.59c0.94,0,1.8,0.48,2.55,1.45c0.94,1.19,1.41,2.82,1.41,4.87c0,1.43,-0.2,2.65,-0.62,3.66c-0.41,1,-0.94,1.73,-1.58,2.18c-0.64,0.45,-1.26,0.68,-1.85,0.68c-1.18,0,-2.16,-0.69,-2.94,-2.09c-0.66,-1.17,-0.99,-2.59,-0.99,-4.24m1.78,0.22c0,1.7,0.21,3.09,0.63,4.17c0.34,0.9,0.86,1.36,1.55,1.36c0.32,0,0.66,-0.14,1.02,-0.44c0.35,-0.29,0.62,-0.78,0.8,-1.48c0.28,-1.04,0.42,-2.52,0.42,-4.42c0,-1.41,-0.14,-2.59,-0.43,-3.53c-0.21,-0.7,-0.5,-1.19,-0.84,-1.48c-0.24,-0.2,-0.55,-0.3,-0.9,-0.3c-0.41,0,-0.78,0.18,-1.1,0.55c-0.43,0.5,-0.73,1.29,-0.89,2.38c-0.15,1.08,-0.23,2.15,-0.23,3.2" fill="#000000" stroke="none" fill-opacity="1"/>
<path d="m433.72,392.77l6.63,0l0,0.34l-4.12,12.29l-1.02,0l3.69,-11.14l-3.4,0c-0.68,0,-1.17,0.08,-1.47,0.24c-0.51,0.28,-0.92,0.71,-1.23,1.29l-0.26,-0.1l1.18,-2.93m8.14,6.26c0,-1.41,0.21,-2.62,0.63,-3.64c0.42,-1.01,0.99,-1.77,1.69,-2.27c0.54,-0.39,1.11,-0.59,1.69,-0.59c0.94,0,1.8,0.48,2.55,1.45c0.94,1.19,1.41,2.82,1.41,4.87c0,1.43,-0.2,2.65,-0.62,3.66c-0.41,1,-0.94,1.73,-1.58,2.18c-0.64,0.45,-1.26,0.68,-1.85,0.68c-1.18,0,-2.16,-0.69,-2.94,-2.09c-0.66,-1.17,-0.99,-2.59,-0.99,-4.24m1.78,0.22c0,1.7,0.21,3.09,0.63,4.17c0.34,0.9,0.86,1.36,1.55,1.36c0.32,0,0.66,-0.14,1.02,-0.44c0.35,-0.29,0.62,-0.78,0.8,-1.48c0.28,-1.04,0.42,-2.52,0.42,-4.42c0,-1.41,-0.14,-2.59,-0.43,-3.53c-0.21,-0.7,-0.5,-1.19,-0.84,-1.48c-0.24,-0.2,-0.55,-0.3,-0.9,-0.3c-0.41,0,-0.78,0.18,-1.1,0.55c-0.43,0.5,-0.73,1.29,-0.89,2.38c-0.15,1.08,-0.23,2.15,-0.23,3.2m7.56,-0.22c0,-1.41,0.21,-2.62,0.63,-3.64c0.42,-1.01,0.99,-1.77,1.69,-2.27c0.54,-0.39,1.11,-0.59,1.69,-0.59c0.94,0,1.8,0.48,2.55,1.45c0.94,1.19,1.41,2.82,1.41,4.87c0,1.43,-0.2,2.65,-0.62,3.66c-0.41,1,-0.94,1.73,-1.58,2.18c-0.64,0.45,-1.26,0.68,-1.85,0.68c-1.18,0,-2.16,-0.69,-2.94,-2.09c-0.66,-1.17,-0.99,-2.59,-0.99,-4.24m1.78,0.22c0,1.7,0.21,3.09,0.63,4.17c0.34,0.9,0.86,1.36,1.55,1.36c0.32,0,0.66,-0.14,1.02,-0.44c0.35,-0.29,0.62,-0.78,0.8,-1.48c0.28,-1.04,0.42,-2.52,0.42,-4.42c0,-1.41,-0.14,-2.59,-0.43,-3.53c-0.21,-0.7,-0.5,-1.19,-0.84,-1.48c-0.24,-0.2,-0.55,-0.3,-0.9,-0.3c-0.41,0,-0.78,0.18,-1.1,0.55c-0.43,0.5,-0.73,1.29,-0.89,2.38c-0.15,1.08,-0.23,2.15,-0.23,3.2" fill="#000000" stroke="none" fill-opacity="1"/>
<path d="m511.75,398.92c-0.98,-0.8,-1.61,-1.44,-1.89,-1.93c-0.28,-0.48,-0.42,-0.99,-0.42,-1.51c0,-0.8,0.31,-1.49,0.93,-2.07c0.62,-0.58,1.44,-0.87,2.47,-0.87c0.99,0,1.8,0.27,2.41,0.81c0.6,0.54,0.91,1.15,0.91,1.85c0,0.46,-0.16,0.93,-0.49,1.41c-0.32,0.48,-1.01,1.04,-2.05,1.69c1.07,0.82,1.78,1.47,2.12,1.95c0.46,0.62,0.69,1.27,0.69,1.96c0,0.87,-0.33,1.61,-0.99,2.23c-0.66,0.61,-1.53,0.92,-2.61,0.92c-1.17,0,-2.09,-0.36,-2.74,-1.1c-0.52,-0.59,-0.78,-1.23,-0.78,-1.93c0,-0.54,0.18,-1.09,0.55,-1.62c0.36,-0.53,1,-1.13,1.9,-1.78m1.43,-0.97c0.73,-0.65,1.19,-1.17,1.38,-1.55c0.19,-0.38,0.29,-0.81,0.29,-1.29c0,-0.63,-0.17,-1.13,-0.53,-1.5c-0.35,-0.36,-0.84,-0.54,-1.47,-0.54c-0.62,0,-1.12,0.17,-1.51,0.53c-0.38,0.35,-0.58,0.77,-0.58,1.26c0,0.31,0.08,0.63,0.24,0.94c0.16,0.31,0.39,0.61,0.68,0.9l1.49,1.24m-1,1.32c-0.5,0.42,-0.87,0.89,-1.12,1.39c-0.24,0.5,-0.36,1.04,-0.36,1.62c0,0.78,0.21,1.41,0.64,1.88c0.42,0.47,0.97,0.7,1.63,0.7c0.65,0,1.18,-0.18,1.57,-0.55c0.39,-0.37,0.59,-0.82,0.59,-1.35c0,-0.43,-0.11,-0.83,-0.34,-1.17c-0.43,-0.64,-1.3,-1.48,-2.62,-2.52m6,-0.22c0,-1.41,0.21,-2.62,0.63,-3.64c0.42,-1.01,0.99,-1.77,1.69,-2.27c0.54,-0.39,1.11,-0.59,1.69,-0.59c0.94,0,1.8,0.48,2.55,1.45c0.94,1.19,1.41,2.82,1.41,4.87c0,1.43,-0.2,2.65,-0.62,3.66c-0.41,1,-0.94,1.73,-1.58,2.18c-0.64,0.45,-1.26,0.68,-1.85,0.68c-1.18,0,-2.16,-0.69,-2.94,-2.09c-0.66,-1.17,-0.99,-2.59,-0.99,-4.24m1.78,0.22c0,1.7,0.21,3.09,0.63,4.17c0.34,0.9,0.86,1.36,1.55,1.36c0.32,0,0.66,-0.14,1.02,-0.44c0.35,-0.29,0.62,-0.78,0.8,-1.48c0.28,-1.04,0.42,-2.52,0.42,-4.42c0,-1.41,-0.14,-2.59,-0.43,-3.53c-0.21,-0.7,-0.5,-1.19,-0.84,-1.48c-0.24,-0.2,-0.55,-0.3,-0.9,-0.3c-0.41,0,-0.78,0.18,-1.1,0.55c-0.43,0.5,-0.73,1.29,-0.89,2.38c-0.15,1.08,-0.23,2.15,-0.23,3.2m7.56,-0.22c0,-1.41,0.21,-2.62,0.63,-3.64c0.42,-1.01,0.99,-1.77,1.69,-2.27c0.54,-0.39,1.11,-0.59,1.69,-0.59c0.94,0,1.8,0.48,2.55,1.45c0.94,1.19,1.41,2.82,1.41,4.87c0,1.43,-0.2,2.65,-0.62,3.66c-0.41,1,-0.94,1.73,-1.58,2.18c-0.64,0.45,-1.26,0.68,-1.85,0.68c-1.18,0,-2.16,-0.69,-2.94,-2.09c-0.66,-1.17,-0.99,-2.59,-0.99,-4.24m1.78,0.22c0,1.7,0.21,3.09,0.63,4.17c0.34,0.9,0.86,1.36,1.55,1.36c0.32,0,0.66,-0.14,1.02,-0.44c0.35,-0.29,0.62,-0.78,0.8,-1.48c0.28,-1.04,0.42,-2.52,0.42,-4.42c0,-1.41,-0.14,-2.59,-0.43,-3.53c-0.21,-0.7,-0.5,-1.19,-0.84,-1.48c-0.24,-0.2,-0.55,-0.3,-0.9,-0.3c-0.41,0,-0.78,0.18,-1.1,0.55c-0.43,0.5,-0.73,1.29,-0.89,2.38c-0.15,1.08,-0.23,2.15,-0.23,3.2" fill="#000000" stroke="none" fill-opacity="1"/>
</g>
<g fill="none" stroke-linecap="butt" stroke-width="0.66">
<path d="M64.25,7.55l496.1,0"/>
<path d="M64.25,7.55l0,4M102.41,7.55l0,4M140.57,7.55l0,4M178.73,7.55l0,4M216.89,7.55l0,4M255.06,7.55l0,4M293.22,7.55l0,4M331.38,7.55l0,4M369.54,7.55l0,4M407.7,7.55l0,4M445.86,7.55l0,4M484.02,7.55l0,4M522.19,7.55l0,4M560.35,7.55l0,4"/>
<path d="M64.25,7.55l0,8M140.57,7.55l0,8M216.89,7.55l0,8M293.22,7.55l0,8M369.54,7.55l0,8M445.86,7.55l0,8M522.19,7.55l0,8"/>
</g>
</g>
</g>
</svg>
