<?xml version="1.0" standalone="no"?>
<!DOCTYPE svg PUBLIC "-//W3C//DTD SVG 1.1//EN"
  "http://www.w3.org/Graphics/SVG/1.1/DTD/svg11.dtd">
<svg width="566.92px" height="435.93px" version="1.1"
    xmlns="http://www.w3.org/2000/svg"
    xmlns:xlink="http://www.w3.org/1999/xlink">
<desc>Veusz output document</desc>
<defs>
<clipPath id="c0">
<path d="m0,0l566.92,0l0,435.93l-566.92,0l0,-435.93"/>
</clipPath>
<clipPath id="c1">
<path d="m64.25,7.55l495.11,0l0,364.11l-495.11,0l0,-364.11"/>
</clipPath>
</defs>
<g stroke-linejoin="bevel" stroke-linecap="square" stroke="#000000" fill-rule="evenodd">
<g clip-path="url(#c0)">
<g fill="#ffffff" stroke-width="0.66">
<path d="m64.25,7.55l495.11,0l0,364.11l-495.11,0l0,-364.11"/>
</g>
</g>
<g clip-path="url(#c1)">
<g fill="none" stroke="#e41a1c" stroke-width="0.66">
<polyline fill="none" points="109.75,370.3 110.35,368.28 110.95,363.97 111.55,356.83 112.15,346.12 112.75,329.99 113.35,305.81 113.95,274.73 114.55,246.65 115.15,236.68 115.75,252.58 116.35,286.79 116.95,323.03 117.54,349.29 118.14,363.32 118.74,368.83 119.34,369.94 119.94,368.49 120.54,363.78 121.14,353.08 121.74,333.79 122.34,307.53 122.94,283.25 123.54,273.35 124.14,283.85 124.74,308.76 125.34,335.54 125.94,355.02 126.54,365.4 127.14,369.35 127.74,369.86 128.34,368.54 128.93,366.24 129.53,363.58 130.13,360.9 130.73,357.32 131.33,351.15 131.93,342.06 132.53,333.19 133.13,329.72 133.73,334.43 134.33,345.04 134.93,356.39 135.53,364.62 136.13,368.98 136.73,370.55 137.33,370.51 137.93,369.51 138.53,367.97 139.13,366.5 139.73,365.85 140.32,366.27 140.92,367.16 141.52,367.33 142.12,365.88 142.72,362.93 143.32,359.87 143.92,358.58 144.52,359.97 145.12,363.29 145.72,366.85 146.32,369.45 146.92,370.81 147.52,371.28 148.12,371.21 148.72,370.78 149.32,370.13 149.92,369.52 150.52,369.26 151.12,369.5 151.72,370.07 152.31,370.57 152.91,370.69 153.51,370.26 154.11,369.44 154.71,368.61 155.31,368.26 155.91,368.62 156.51,369.48 157.11,370.42 157.71,371.09 158.31,371.46 158.91,371.6 159.51,371.61 160.11,371.54 160.71,371.39 161.31,371.18 161.91,370.99 162.51,370.91 163.11,370.99 163.7,371.18 164.3,371.38 164.9,371.5 165.5,371.49 166.1,371.37 166.7,371.17 167.3,370.98 167.9,370.9 168.5,370.98 169.1,371.18 169.7,371.39 170.3,371.54 170.9,371.63 171.5,371.66 172.1,371.67 172.7,371.66 173.3,371.64 173.9,371.6 174.5,371.55 175.1,371.49 175.69,371.47 176.29,371.49 176.89,371.55 177.49,371.6 178.09,371.64 178.69,371.65 179.29,371.64 179.89,371.61 180.49,371.57 181.09,371.53 181.69,371.52 182.29,371.53 182.89,371.57 183.49,371.62 184.09,371.65 184.69,371.66 185.29,371.67 185.89,371.67 186.49,371.67 187.08,371.67 187.68,371.67 188.28,371.66 188.88,371.64 189.48,371.63 190.08,371.63 190.68,371.63 191.28,371.64 191.88,371.66 192.48,371.67 193.08,371.67 193.68,371.67 194.28,371.67 194.88,371.67 195.48,371.66 196.08,371.65 196.68,371.65 197.28,371.64 197.88,371.65 198.48,371.65 199.07,371.66 199.67,371.67 200.27,371.67 200.87,371.67 201.47,371.67 202.07,371.67 202.67,371.67 203.27,371.67 203.87,371.67 204.47,371.67 205.07,371.67 205.67,371.67 206.27,371.66 206.87,371.67 207.47,371.67 208.07,371.67 208.67,371.67 209.27,371.67 209.87,371.67 210.46,371.67 211.06,371.67 211.66,371.67 212.26,371.67 212.86,371.67 213.46,371.56 214.06,371.1 214.66,369.27 215.26,363.55 215.86,349.65 216.46,323.81 217.06,288.34 217.66,255.44 218.26,241.81 218.86,255.44 219.46,288.34 220.06,323.81 220.66,349.65 221.26,363.56 221.85,369.28 222.45,371.11 223.05,371.57 223.65,371.67 224.25,371.67 224.85,371.67 225.45,371.67 226.05,371.67 226.65,371.67 227.25,371.67 227.85,371.67 228.45,371.67 229.05,371.67 229.65,371.67 230.25,371.67 230.85,371.67 231.45,371.67 232.05,371.67 232.65,371.67 233.25,371.67 233.84,371.55 234.44,371.04 235.04,368.99 235.64,362.57 236.24,346.98 236.84,317.99 237.44,278.21 238.04,241.32 238.64,226.03 239.24,241.32 239.84,278.21 240.44,317.99 241.04,346.98 241.64,362.57 242.24,368.99 242.84,371.04 243.44,371.55 244.04,371.67 244.64,371.67 245.23,371.67 245.83,371.67 246.43,371.67 247.03,371.67 247.63,371.67 248.23,371.67 248.83,371.67 249.43,371.67 250.03,371.67 250.63,371.67 251.23,371.67 251.83,371.67 252.43,371.67 253.03,371.67 253.63,371.67 254.23,371.67 254.83,371.67 255.43,371.67 256.03,371.6 256.63,371.26 257.22,369.94 257.82,365.81 258.42,355.75 259.02,337.07 259.62,311.42 260.22,287.64 260.82,277.78 261.42,287.64 262.02,311.42 262.62,337.07 263.22,355.75 263.82,365.81 264.42,369.94 265.02,371.26 265.62,371.6 266.22,371.67 266.82,371.67 267.42,371.67 268.02,371.67 268.61,371.67 269.21,371.67 269.81,371.67 270.41,371.67 271.01,371.67 271.61,371.67 272.21,371.67 272.81,371.67 273.41,371.67 274.01,371.67 274.61,371.67 275.21,371.67 275.81,371.67 276.41,371.67 277.01,371.67 277.61,371.67 278.21,371.67 278.81,371.67 279.41,371.67 280.01,371.67 280.6,371.67 281.2,371.64 281.8,371.47 282.4,370.83 283,368.82 283.6,363.94 284.2,354.87 284.8,342.41 285.4,330.86 286,326.07 286.6,330.86 287.2,342.41 287.8,354.87 288.4,363.94 289,368.82 289.6,370.83 290.2,371.47 290.8,371.64 291.4,371.67 291.99,371.67 292.59,371.67 293.19,371.67 293.79,371.67 294.39,371.67 294.99,371.67 295.59,371.67 296.19,371.67 296.79,371.67 297.39,371.67 297.99,371.67 298.59,371.67 299.19,371.67 299.79,371.67 300.39,371.67 300.99,371.67 301.59,371.67 302.19,371.67 302.79,371.67 303.38,371.67 303.98,371.67 304.58,371.67 305.18,371.67 305.78,371.67 306.38,371.67 306.98,371.67 307.58,371.67 308.18,371.67 308.78,371.67 309.38,371.67 309.98,371.66 310.58,371.59 311.18,371.33 311.78,370.51 312.38,368.51 312.98,364.8 313.58,359.71 314.18,354.99 314.78,353.03 315.37,354.99 315.97,359.71 316.57,364.8 317.17,368.51 317.77,370.51 318.37,371.33 318.97,371.59 319.57,371.66 320.17,371.67 320.77,371.67 321.37,371.67 321.97,371.67 322.57,371.67 323.17,371.67 323.77,371.67 324.37,371.67 324.97,371.67 325.57,371.67 326.17,371.67 326.76,371.67 327.36,371.67 327.96,371.67 328.56,371.67 329.16,371.67 329.76,371.67 330.36,371.67 330.96,371.67 331.56,371.67 332.16,371.67 332.76,371.67 333.36,371.67 333.96,371.67 334.56,371.67 335.16,371.67 335.76,371.67 336.36,371.67 336.96,371.67 337.56,371.67 338.16,371.67 338.75,371.67 339.35,371.67 339.95,371.67 340.55,371.67 341.15,371.67 341.75,371.67 342.35,371.67 342.95,371.67 343.55,371.64 344.15,371.55 344.75,371.25 345.35,370.52 345.95,369.16 346.55,367.3 347.15,365.57 347.75,364.86 348.35,365.57 348.95,367.3 349.55,369.16 350.14,370.52 350.74,371.25 351.34,371.55 351.94,371.64 352.54,371.67 353.14,371.67 353.74,371.67 354.34,371.67 354.94,371.67 355.54,371.67 356.14,371.67 356.74,371.67 357.34,371.67 357.94,371.67 358.54,371.67 359.14,371.67 359.74,371.67 360.34,371.67 360.94,371.67 361.54,371.67 362.13,371.67 362.73,371.67 363.33,371.67 363.93,371.67 364.53,371.67 365.13,371.67 365.73,371.67 366.33,371.67 366.93,371.67 367.53,371.67 368.13,371.67 368.73,371.67 369.33,371.67 369.93,371.67 370.53,371.67 371.13,371.67 371.73,371.67 372.33,371.67 372.93,371.67 373.52,371.67 374.12,371.67 374.72,371.67 375.32,371.67 375.92,371.67 376.52,371.67 377.12,371.67 377.72,371.67 378.32,371.67 378.92,371.67 379.52,371.67 380.12,371.67 380.72,371.67 381.32,371.67 381.92,371.66 382.52,371.63 383.12,371.53 383.72,371.28 384.32,370.82 384.91,370.19 385.51,369.61 386.11,369.37 386.71,369.61 387.31,370.19 387.91,370.82 388.51,371.28 389.11,371.53 389.71,371.63 390.31,371.66 390.91,371.67 391.51,371.67 392.11,371.67 392.71,371.67 393.31,371.67 393.91,371.67 394.51,371.67 395.11,371.67 395.71,371.67 396.31,371.67 396.9,371.67 397.5,371.67 398.1,371.67 398.7,371.67 399.3,371.67 399.9,371.67 400.5,371.67 401.1,371.67 401.7,371.67 402.3,371.67 402.9,371.67 403.5,371.67 404.1,371.67 404.7,371.67 405.3,371.67 405.9,371.67 406.5,371.67 407.1,371.67 407.7,371.67 408.29,371.67 408.89,371.67 409.49,371.67 410.09,371.67 410.69,371.67 411.29,371.67 411.89,371.67 412.49,371.67 413.09,371.67 413.69,371.67 414.29,371.67 414.89,371.67 415.49,371.67 416.09,371.67 416.69,371.67 417.29,371.67 417.89,371.67 418.49,371.67 419.09,371.67 419.69,371.67 420.28,371.67 420.88,371.67 421.48,371.67 422.08,371.67 422.68,371.67 423.28,371.67 423.88,371.67 424.48,371.67 425.08,371.67 425.68,371.67 426.28,371.67 426.88,371.67 427.48,371.67 428.08,371.67 428.68,371.67 429.28,371.66 429.88,371.63 430.48,371.55 431.08,371.4 431.67,371.2 432.27,371.02 432.87,370.94 433.47,371.02 434.07,371.2 434.67,371.4 435.27,371.55 435.87,371.63 436.47,371.66 437.07,371.67 437.67,371.67 438.27,371.67 438.87,371.67 439.47,371.67 440.07,371.67 440.67,371.67 441.27,371.67 441.87,371.67 442.47,371.67 443.06,371.67 443.66,371.67 444.26,371.67 444.86,371.67 445.46,371.67 446.06,371.67 446.66,371.67 447.26,371.67 447.86,371.67 448.46,371.67 449.06,371.67 449.66,371.67 450.26,371.67 450.86,371.67 451.46,371.67 452.06,371.67 452.66,371.67 453.26,371.67 453.86,371.67 454.46,371.67 455.05,371.67 455.65,371.67 456.25,371.67 456.85,371.67 457.45,371.67 458.05,371.67 458.65,371.67 459.25,371.67 459.85,371.67 460.45,371.67 461.05,371.67 461.65,371.67 462.25,371.67 462.85,371.67 463.45,371.67 464.05,371.67 464.65,371.67 465.25,371.67 465.85,371.67 466.44,371.67 467.04,371.67 467.64,371.67 468.24,371.67 468.84,371.67 469.44,371.67 470.04,371.67 470.64,371.67 471.24,371.67 471.84,371.67 472.44,371.67 473.04,371.67 473.64,371.67 474.24,371.67 474.84,371.67 475.44,371.67 476.04,371.67 476.64,371.67 477.24,371.67 477.84,371.67 478.43,371.67 479.03,371.67 479.63,371.67 480.23,371.67 480.83,371.67 481.43,371.67 482.03,371.67 482.63,371.67 483.23,371.67 483.83,371.67 484.43,371.67 485.03,371.67 485.63,371.67 486.23,371.66 486.83,371.64 487.43,371.59 488.03,371.53 488.63,371.47 489.23,371.45 489.82,371.47 490.42,371.53 491.02,371.59 491.62,371.64 492.22,371.66 492.82,371.67 493.42,371.67 494.02,371.67 494.62,371.67 495.22,371.67 495.82,371.67 496.42,371.67 497.02,371.67 497.62,371.67 498.22,371.67 498.82,371.67 499.42,371.67 500.02,371.67 500.62,371.67 501.22,371.67 501.81,371.67 502.41,371.67 503.01,371.67 503.61,371.67 504.21,371.67 504.81,371.67 505.41,371.67 506.01,371.67 506.61,371.67 507.21,371.67 507.81,371.67 508.41,371.67 509.01,371.67 509.61,371.67 510.21,371.67 510.81,371.67 511.41,371.67 512.01,371.67 512.61,371.67 513.2,371.67 513.8,371.67 514.4,371.67 515,371.67 515.6,371.67 516.2,371.67 516.8,371.67 517.4,371.67 518,371.67 518.6,371.67 519.2,371.67 519.8,371.67 520.4,371.67 521,371.67 521.6,371.67 522.2,371.67 522.8,371.67 523.4,371.67 524,371.67 524.59,371.67 525.19,371.67 525.79,371.67 526.39,371.67 526.99,371.67 527.59,371.67 528.19,371.67 528.79,371.67 529.39,371.67 529.99,371.67 530.59,371.67 531.19,371.67 531.79,371.67 532.39,371.67 532.99,371.67 533.59,371.67 534.19,371.67 534.79,371.67 535.39,371.67 535.99,371.67 536.58,371.67 537.18,371.67 537.78,371.67 538.38,371.67 538.98,371.67 539.58,371.67 540.18,371.67 540.78,371.67 541.38,371.67 541.98,371.67 542.58,371.67 543.18,371.67 543.78,371.67 544.38,371.67 544.98,371.67 545.58,371.67 546.18,371.67 546.78,371.67 547.38,371.67 547.97,371.67 548.57,371.67 549.17,371.67 549.77,371.67 550.37,371.67 550.97,371.67 551.57,371.67 552.17,371.67 552.77,371.67 553.37,371.67 553.97,371.67 554.57,371.67"/>
</g>
</g>
<g clip-path="url(#c0)">
<g fill="none" stroke-linecap="butt" stroke-width="0.66">
<path d="M64.25,371.67l0,-364.11"/>
<path d="M64.25,371.67l4,0M64.25,353.47l4,0M64.25,335.26l4,0M64.25,317.06l4,0M64.25,298.85l4,0M64.25,280.64l4,0M64.25,262.44l4,0M64.25,244.23l4,0M64.25,226.03l4,0M64.25,207.82l4,0M64.25,189.61l4,0M64.25,171.41l4,0M64.25,153.2l4,0M64.25,135l4,0M64.25,116.79l4,0M64.25,98.58l4,0M64.25,80.38l4,0M64.25,62.17l4,0M64.25,43.97l4,0M64.25,25.76l4,0M64.25,7.55l4,0"/>
<path d="M64.25,371.67l8,0M64.25,298.85l8,0M64.25,226.03l8,0M64.25,153.2l8,0M64.25,80.38l8,0M64.25,7.55l8,0"/>
</g>
<g fill="none" stroke-width="0.1">
<g transform="matrix(0 -1 1 0 21.55 241.06)">
<path d="m3.03,-8.61l0,1.88c0.7,-1.25,1.41,-1.88,2.15,-1.88c0.33,0,0.61,0.1,0.83,0.3c0.21,0.2,0.32,0.43,0.32,0.7c0,0.23,-0.07,0.43,-0.23,0.6c-0.15,0.16,-0.34,0.24,-0.56,0.24c-0.21,0,-0.45,-0.1,-0.71,-0.31c-0.26,-0.21,-0.46,-0.31,-0.58,-0.31c-0.1,0,-0.22,0.06,-0.35,0.18c-0.27,0.24,-0.55,0.66,-0.84,1.23l0,4c0,0.46,0.05,0.81,0.17,1.05c0.07,0.16,0.21,0.3,0.42,0.41c0.2,0.1,0.49,0.16,0.86,0.16l0,0.32l-4.28,0l0,-0.32c0.42,0,0.74,-0.06,0.94,-0.2c0.15,-0.09,0.25,-0.25,0.31,-0.46c0.03,-0.1,0.04,-0.39,0.04,-0.88l0,-3.24c0,-0.97,-0.01,-1.55,-0.05,-1.73c-0.03,-0.18,-0.11,-0.32,-0.21,-0.4c-0.1,-0.08,-0.23,-0.12,-0.39,-0.12c-0.18,0,-0.4,0.04,-0.63,0.13l-0.09,-0.32l2.52,-1.02l0.38,0m8.49,7.4c-0.85,0.66,-1.39,1.04,-1.61,1.15c-0.32,0.15,-0.67,0.22,-1.05,0.22c-0.57,0,-1.05,-0.19,-1.42,-0.59c-0.37,-0.39,-0.56,-0.91,-0.56,-1.56c0,-0.4,0.09,-0.76,0.27,-1.05c0.24,-0.41,0.68,-0.8,1.3,-1.16c0.61,-0.36,1.64,-0.8,3.08,-1.33l0,-0.32c0,-0.83,-0.13,-1.4,-0.39,-1.71c-0.26,-0.31,-0.64,-0.46,-1.15,-0.46c-0.38,0,-0.68,0.1,-0.91,0.31c-0.23,0.2,-0.34,0.44,-0.34,0.71l0.01,0.52c0,0.28,-0.07,0.49,-0.21,0.64c-0.14,0.15,-0.33,0.22,-0.56,0.22c-0.22,0,-0.4,-0.07,-0.55,-0.23c-0.14,-0.15,-0.21,-0.37,-0.21,-0.64c0,-0.52,0.26,-1,0.8,-1.44c0.53,-0.43,1.28,-0.65,2.25,-0.65c0.74,0,1.35,0.12,1.82,0.37c0.35,0.18,0.62,0.48,0.79,0.88c0.1,0.26,0.16,0.79,0.16,1.6l0,2.83c0,0.79,0.01,1.28,0.04,1.46c0.03,0.17,0.08,0.29,0.15,0.36c0.07,0.06,0.15,0.09,0.24,0.09c0.09,0,0.18,-0.02,0.25,-0.06c0.12,-0.07,0.37,-0.3,0.73,-0.66l0,0.51c-0.68,0.91,-1.33,1.36,-1.95,1.36c-0.29,0,-0.53,-0.1,-0.71,-0.31c-0.17,-0.2,-0.26,-0.56,-0.27,-1.05m0,-0.59l0,-3.18c-0.91,0.36,-1.51,0.62,-1.78,0.77c-0.48,0.26,-0.82,0.54,-1.03,0.84c-0.2,0.29,-0.31,0.61,-0.31,0.95c0,0.43,0.13,0.8,0.39,1.09c0.26,0.28,0.56,0.43,0.9,0.43c0.46,0,1.07,-0.3,1.82,-0.91m9.46,0.85c-0.4,0.42,-0.8,0.73,-1.19,0.91c-0.38,0.18,-0.8,0.27,-1.26,0.27c-0.91,0,-1.71,-0.38,-2.39,-1.14c-0.68,-0.76,-1.02,-1.74,-1.02,-2.94c0,-1.19,0.37,-2.29,1.13,-3.29c0.75,-0.99,1.72,-1.49,2.91,-1.49c0.73,0,1.34,0.23,1.82,0.7l0,-1.54c0,-0.95,-0.02,-1.54,-0.06,-1.76c-0.04,-0.21,-0.11,-0.36,-0.21,-0.44c-0.09,-0.07,-0.21,-0.11,-0.36,-0.11c-0.15,0,-0.36,0.04,-0.63,0.14l-0.11,-0.31l2.49,-1.02l0.41,0l0,9.66c0,0.98,0.02,1.57,0.06,1.79c0.04,0.21,0.11,0.36,0.21,0.45c0.1,0.08,0.21,0.12,0.35,0.12c0.16,0,0.38,-0.05,0.65,-0.15l0.1,0.31l-2.48,1.03l-0.42,0l0,-1.19m0,-0.63l0,-4.3c-0.03,-0.41,-0.14,-0.79,-0.32,-1.13c-0.18,-0.34,-0.42,-0.59,-0.72,-0.77c-0.3,-0.17,-0.59,-0.26,-0.88,-0.26c-0.53,0,-1.01,0.24,-1.43,0.72c-0.55,0.63,-0.83,1.55,-0.83,2.77c0,1.22,0.26,2.17,0.8,2.82c0.53,0.65,1.13,0.98,1.78,0.98c0.55,0,1.08,-0.27,1.6,-0.83m5.61,-11.4c0.25,0,0.47,0.08,0.65,0.26c0.17,0.17,0.26,0.39,0.26,0.65c0,0.25,-0.08,0.47,-0.26,0.65c-0.17,0.18,-0.39,0.27,-0.65,0.27c-0.25,0,-0.47,-0.09,-0.65,-0.27c-0.18,-0.18,-0.27,-0.4,-0.27,-0.65c0,-0.25,0.08,-0.47,0.26,-0.65c0.17,-0.17,0.4,-0.26,0.66,-0.26m0.75,4.37l0,6.72c0,0.52,0.03,0.87,0.11,1.04c0.07,0.17,0.18,0.3,0.33,0.38c0.14,0.08,0.42,0.12,0.81,0.12l0,0.32l-4.06,0l0,-0.32c0.4,0,0.68,-0.03,0.82,-0.11c0.14,-0.07,0.25,-0.21,0.33,-0.39c0.08,-0.18,0.12,-0.53,0.12,-1.05l0,-3.22c0,-0.9,-0.02,-1.49,-0.08,-1.76c-0.04,-0.19,-0.1,-0.33,-0.2,-0.4c-0.09,-0.07,-0.21,-0.11,-0.37,-0.11c-0.17,0,-0.37,0.04,-0.62,0.13l-0.12,-0.32l2.52,-1.02l0.4,0m7.05,7.4c-0.85,0.66,-1.39,1.04,-1.61,1.15c-0.32,0.15,-0.67,0.22,-1.05,0.22c-0.57,0,-1.05,-0.19,-1.42,-0.59c-0.37,-0.39,-0.56,-0.91,-0.56,-1.56c0,-0.4,0.09,-0.76,0.27,-1.05c0.24,-0.41,0.68,-0.8,1.3,-1.16c0.61,-0.36,1.64,-0.8,3.08,-1.33l0,-0.32c0,-0.83,-0.13,-1.4,-0.39,-1.71c-0.26,-0.31,-0.64,-0.46,-1.15,-0.46c-0.38,0,-0.68,0.1,-0.91,0.31c-0.23,0.2,-0.34,0.44,-0.34,0.71l0.01,0.52c0,0.28,-0.07,0.49,-0.21,0.64c-0.14,0.15,-0.33,0.22,-0.56,0.22c-0.22,0,-0.4,-0.07,-0.55,-0.23c-0.14,-0.15,-0.21,-0.37,-0.21,-0.64c0,-0.52,0.26,-1,0.8,-1.44c0.53,-0.43,1.28,-0.65,2.25,-0.65c0.74,0,1.35,0.12,1.82,0.37c0.35,0.18,0.62,0.48,0.79,0.88c0.1,0.26,0.16,0.79,0.16,1.6l0,2.83c0,0.79,0.01,1.28,0.04,1.46c0.03,0.17,0.08,0.29,0.15,0.36c0.07,0.06,0.15,0.09,0.24,0.09c0.09,0,0.18,-0.02,0.25,-0.06c0.12,-0.07,0.37,-0.3,0.73,-0.66l0,0.51c-0.68,0.91,-1.33,1.36,-1.95,1.36c-0.29,0,-0.53,-0.1,-0.71,-0.31c-0.17,-0.2,-0.26,-0.56,-0.27,-1.05m0,-0.59l0,-3.18c-0.91,0.36,-1.51,0.62,-1.78,0.77c-0.48,0.26,-0.82,0.54,-1.03,0.84c-0.2,0.29,-0.31,0.61,-0.31,0.95c0,0.43,0.13,0.8,0.39,1.09c0.26,0.28,0.56,0.43,0.9,0.43c0.46,0,1.07,-0.3,1.82,-0.91m5.99,-5.04c0.98,-1.18,1.91,-1.77,2.8,-1.77c0.45,0,0.84,0.11,1.17,0.34c0.32,0.22,0.59,0.6,0.78,1.12c0.13,0.36,0.2,0.92,0.2,1.68l0,3.57c0,0.52,0.04,0.88,0.12,1.07c0.06,0.15,0.17,0.27,0.32,0.35c0.14,0.08,0.42,0.12,0.82,0.12l0,0.32l-4.13,0l0,-0.32l0.17,0c0.38,0,0.66,-0.05,0.81,-0.17c0.15,-0.11,0.26,-0.29,0.32,-0.52c0.02,-0.09,0.03,-0.37,0.03,-0.85l0,-3.42c0,-0.76,-0.09,-1.31,-0.29,-1.65c-0.19,-0.34,-0.53,-0.51,-0.99,-0.51c-0.72,0,-1.44,0.39,-2.16,1.18l0,4.41c0,0.56,0.03,0.91,0.1,1.05c0.08,0.17,0.2,0.3,0.35,0.38c0.14,0.08,0.45,0.12,0.9,0.12l0,0.32l-4.13,0l0,-0.32l0.18,0c0.42,0,0.71,-0.1,0.86,-0.32c0.14,-0.21,0.22,-0.62,0.22,-1.23l0,-3.1c0,-1,-0.02,-1.61,-0.06,-1.83c-0.04,-0.21,-0.11,-0.36,-0.21,-0.44c-0.09,-0.07,-0.22,-0.11,-0.37,-0.11c-0.17,0,-0.37,0.04,-0.61,0.13l-0.13,-0.32l2.52,-1.02l0.39,0l0,1.77m14.06,3.66c-0.22,1.1,-0.66,1.94,-1.32,2.54c-0.65,0.59,-1.38,0.89,-2.18,0.89c-0.94,0,-1.77,-0.39,-2.48,-1.19c-0.7,-0.79,-1.05,-1.87,-1.05,-3.23c0,-1.31,0.39,-2.38,1.17,-3.2c0.78,-0.82,1.72,-1.23,2.81,-1.23c0.82,0,1.49,0.21,2.02,0.65c0.52,0.43,0.79,0.88,0.79,1.35c0,0.23,-0.07,0.41,-0.22,0.56c-0.14,0.14,-0.35,0.21,-0.62,0.21c-0.35,0,-0.63,-0.11,-0.81,-0.34c-0.1,-0.12,-0.17,-0.37,-0.2,-0.73c-0.03,-0.35,-0.15,-0.63,-0.36,-0.82c-0.21,-0.18,-0.5,-0.27,-0.88,-0.27c-0.6,0,-1.09,0.22,-1.47,0.67c-0.49,0.59,-0.73,1.38,-0.73,2.36c0,0.99,0.24,1.87,0.73,2.64c0.49,0.76,1.15,1.14,1.98,1.14c0.59,0,1.13,-0.2,1.6,-0.61c0.33,-0.28,0.66,-0.78,0.97,-1.52l0.26,0.12m2.6,-2.03c0,1.24,0.29,2.21,0.9,2.92c0.6,0.7,1.32,1.05,2.14,1.05c0.54,0,1.02,-0.15,1.42,-0.45c0.4,-0.3,0.74,-0.81,1.01,-1.54l0.28,0.18c-0.12,0.83,-0.49,1.59,-1.11,2.27c-0.61,0.68,-1.38,1.02,-2.31,1.02c-1,0,-1.86,-0.39,-2.57,-1.17c-0.71,-0.78,-1.07,-1.83,-1.07,-3.15c0,-1.43,0.36,-2.54,1.1,-3.34c0.73,-0.8,1.65,-1.2,2.76,-1.2c0.93,0,1.7,0.3,2.31,0.92c0.6,0.61,0.9,1.44,0.9,2.47l-5.77,0m0,-0.52l3.87,0c-0.03,-0.53,-0.09,-0.91,-0.19,-1.13c-0.15,-0.34,-0.37,-0.6,-0.68,-0.8c-0.3,-0.19,-0.61,-0.29,-0.94,-0.29c-0.5,0,-0.95,0.19,-1.35,0.58c-0.39,0.39,-0.63,0.93,-0.69,1.63m12.11,9.4l0,0.33c-0.91,-0.46,-1.68,-1,-2.3,-1.62c-0.87,-0.88,-1.55,-1.92,-2.02,-3.12c-0.47,-1.19,-0.71,-2.44,-0.71,-3.73c0,-1.88,0.46,-3.6,1.39,-5.16c0.93,-1.55,2.14,-2.66,3.64,-3.33l0,0.38c-0.74,0.41,-1.36,0.98,-1.84,1.69c-0.48,0.71,-0.84,1.62,-1.07,2.73c-0.23,1.1,-0.35,2.25,-0.35,3.45c0,1.3,0.1,2.48,0.3,3.55c0.15,0.84,0.35,1.51,0.57,2.02c0.22,0.5,0.52,0.99,0.9,1.46c0.38,0.46,0.87,0.91,1.49,1.34m5.71,-4.86c-0.85,0.66,-1.39,1.04,-1.61,1.15c-0.32,0.15,-0.67,0.22,-1.05,0.22c-0.57,0,-1.05,-0.19,-1.42,-0.59c-0.37,-0.39,-0.56,-0.91,-0.56,-1.56c0,-0.4,0.09,-0.76,0.27,-1.05c0.24,-0.41,0.68,-0.8,1.3,-1.16c0.61,-0.36,1.64,-0.8,3.08,-1.33l0,-0.32c0,-0.83,-0.13,-1.4,-0.39,-1.71c-0.26,-0.31,-0.64,-0.46,-1.15,-0.46c-0.38,0,-0.68,0.1,-0.91,0.31c-0.23,0.2,-0.34,0.44,-0.34,0.71l0.01,0.52c0,0.28,-0.07,0.49,-0.21,0.64c-0.14,0.15,-0.33,0.22,-0.56,0.22c-0.22,0,-0.4,-0.07,-0.55,-0.23c-0.14,-0.15,-0.21,-0.37,-0.21,-0.64c0,-0.52,0.26,-1,0.8,-1.44c0.53,-0.43,1.28,-0.65,2.25,-0.65c0.74,0,1.35,0.12,1.82,0.37c0.35,0.18,0.62,0.48,0.79,0.88c0.1,0.26,0.16,0.79,0.16,1.6l0,2.83c0,0.79,0.01,1.28,0.04,1.46c0.03,0.17,0.08,0.29,0.15,0.36c0.07,0.06,0.15,0.09,0.24,0.09c0.09,0,0.18,-0.02,0.25,-0.06c0.12,-0.07,0.37,-0.3,0.73,-0.66l0,0.51c-0.68,0.91,-1.33,1.36,-1.95,1.36c-0.29,0,-0.53,-0.1,-0.71,-0.31c-0.17,-0.2,-0.26,-0.56,-0.27,-1.05m0,-0.59l0,-3.18c-0.91,0.36,-1.51,0.62,-1.78,0.77c-0.48,0.26,-0.82,0.54,-1.03,0.84c-0.2,0.29,-0.31,0.61,-0.31,0.95c0,0.43,0.13,0.8,0.39,1.09c0.26,0.28,0.56,0.43,0.9,0.43c0.46,0,1.07,-0.3,1.82,-0.91m5.31,0.02c0.28,0,0.52,0.09,0.72,0.29c0.19,0.19,0.29,0.43,0.29,0.71c0,0.28,-0.09,0.51,-0.29,0.71c-0.19,0.19,-0.43,0.29,-0.71,0.29c-0.28,0,-0.51,-0.09,-0.71,-0.29c-0.19,-0.19,-0.29,-0.43,-0.29,-0.71c0,-0.28,0.09,-0.52,0.29,-0.72c0.19,-0.19,0.43,-0.29,0.71,-0.29m10.27,-6.59l0,5.06c0,0.96,0.02,1.55,0.06,1.77c0.04,0.21,0.11,0.36,0.21,0.45c0.1,0.08,0.21,0.12,0.35,0.12c0.18,0,0.4,-0.05,0.63,-0.15l0.12,0.31l-2.5,1.03l-0.41,0l0,-1.77c-0.71,0.77,-1.26,1.26,-1.64,1.47c-0.37,0.2,-0.77,0.3,-1.19,0.3c-0.46,0,-0.87,-0.13,-1.21,-0.4c-0.34,-0.27,-0.58,-0.61,-0.71,-1.04c-0.13,-0.42,-0.2,-1.02,-0.2,-1.8l0,-3.73c0,-0.39,-0.04,-0.66,-0.12,-0.82c-0.08,-0.15,-0.21,-0.26,-0.37,-0.35c-0.16,-0.08,-0.47,-0.12,-0.9,-0.11l0,-0.33l2.93,0l0,5.59c0,0.77,0.13,1.29,0.4,1.53c0.27,0.24,0.59,0.36,0.98,0.36c0.26,0,0.55,-0.08,0.89,-0.24c0.33,-0.16,0.72,-0.47,1.18,-0.94l0,-4.73c0,-0.47,-0.08,-0.79,-0.26,-0.96c-0.17,-0.16,-0.53,-0.25,-1.08,-0.26l0,-0.33l2.84,0m3.82,6.59c0.28,0,0.52,0.09,0.72,0.29c0.19,0.19,0.29,0.43,0.29,0.71c0,0.28,-0.09,0.51,-0.29,0.71c-0.19,0.19,-0.43,0.29,-0.71,0.29c-0.28,0,-0.51,-0.09,-0.71,-0.29c-0.19,-0.19,-0.29,-0.43,-0.29,-0.71c0,-0.28,0.09,-0.52,0.29,-0.72c0.19,-0.19,0.43,-0.29,0.71,-0.29m2.78,-10.82l0,-0.38c0.92,0.45,1.69,0.99,2.31,1.61c0.87,0.88,1.54,1.93,2.01,3.12c0.47,1.19,0.71,2.44,0.71,3.73c0,1.88,-0.46,3.6,-1.39,5.16c-0.92,1.55,-2.14,2.66,-3.64,3.33l0,-0.33c0.74,-0.42,1.36,-0.98,1.84,-1.7c0.48,-0.71,0.84,-1.62,1.07,-2.73c0.23,-1.1,0.35,-2.25,0.35,-3.45c0,-1.29,-0.1,-2.48,-0.3,-3.55c-0.15,-0.84,-0.34,-1.51,-0.57,-2.01c-0.22,-0.5,-0.53,-0.99,-0.9,-1.46c-0.37,-0.46,-0.87,-0.91,-1.49,-1.34" fill="#000000" stroke="none" fill-opacity="1"/>
</g>
<path d="m50.52,371.96c0,-1.41,0.21,-2.62,0.63,-3.64c0.42,-1.01,0.99,-1.77,1.69,-2.27c0.54,-0.39,1.11,-0.59,1.69,-0.59c0.94,0,1.8,0.48,2.55,1.45c0.94,1.19,1.41,2.82,1.41,4.87c0,1.43,-0.2,2.65,-0.62,3.66c-0.41,1,-0.94,1.73,-1.58,2.18c-0.64,0.45,-1.26,0.68,-1.85,0.68c-1.18,0,-2.16,-0.69,-2.94,-2.09c-0.66,-1.17,-0.99,-2.59,-0.99,-4.24m1.78,0.22c0,1.7,0.21,3.09,0.63,4.17c0.34,0.9,0.86,1.36,1.55,1.36c0.32,0,0.66,-0.14,1.02,-0.44c0.35,-0.29,0.62,-0.78,0.8,-1.48c0.28,-1.04,0.42,-2.52,0.42,-4.42c0,-1.41,-0.14,-2.59,-0.43,-3.53c-0.21,-0.7,-0.5,-1.19,-0.84,-1.48c-0.24,-0.2,-0.55,-0.3,-0.9,-0.3c-0.41,0,-0.78,0.18,-1.1,0.55c-0.43,0.5,-0.73,1.29,-0.89,2.38c-0.15,1.08,-0.23,2.15,-0.23,3.2" fill="#000000" stroke="none" fill-opacity="1"/>
<path d="m36.42,299.13c0,-1.41,0.21,-2.62,0.63,-3.64c0.42,-1.01,0.99,-1.77,1.69,-2.27c0.54,-0.39,1.11,-0.59,1.69,-0.59c0.94,0,1.8,0.48,2.55,1.45c0.94,1.19,1.41,2.82,1.41,4.87c0,1.43,-0.2,2.65,-0.62,3.66c-0.41,1,-0.94,1.73,-1.58,2.18c-0.64,0.45,-1.26,0.68,-1.85,0.68c-1.18,0,-2.16,-0.69,-2.94,-2.09c-0.66,-1.17,-0.99,-2.59,-0.99,-4.24m1.78,0.22c0,1.7,0.21,3.09,0.63,4.17c0.34,0.9,0.86,1.36,1.55,1.36c0.32,0,0.66,-0.14,1.02,-0.44c0.35,-0.29,0.62,-0.78,0.8,-1.48c0.28,-1.04,0.42,-2.52,0.42,-4.42c0,-1.41,-0.14,-2.59,-0.43,-3.53c-0.21,-0.7,-0.5,-1.19,-0.84,-1.48c-0.24,-0.2,-0.55,-0.3,-0.9,-0.3c-0.41,0,-0.78,0.18,-1.1,0.55c-0.43,0.5,-0.73,1.29,-0.89,2.38c-0.15,1.08,-0.23,2.15,-0.23,3.2m9.27,4.11c0.28,0,0.52,0.09,0.72,0.29c0.19,0.19,0.29,0.43,0.29,0.71c0,0.28,-0.09,0.51,-0.29,0.71c-0.19,0.19,-0.43,0.29,-0.71,0.29c-0.28,0,-0.51,-0.09,-0.71,-0.29c-0.19,-0.19,-0.29,-0.43,-0.29,-0.71c0,-0.28,0.09,-0.52,0.29,-0.72c0.19,-0.19,0.43,-0.29,0.71,-0.29m10.93,-0.61l-0.86,2.38l-7.3,0l0,-0.33c2.14,-1.96,3.66,-3.56,4.53,-4.8c0.87,-1.24,1.31,-2.37,1.31,-3.4c0,-0.78,-0.24,-1.43,-0.72,-1.93c-0.48,-0.5,-1.05,-0.75,-1.72,-0.75c-0.6,0,-1.15,0.17,-1.63,0.53c-0.48,0.35,-0.84,0.87,-1.07,1.56l-0.33,0c0.15,-1.12,0.54,-1.99,1.17,-2.59c0.63,-0.6,1.41,-0.9,2.36,-0.9c1,0,1.84,0.32,2.51,0.96c0.67,0.64,1,1.4,1,2.28c0,0.62,-0.14,1.25,-0.43,1.88c-0.45,0.98,-1.18,2.03,-2.19,3.13c-1.51,1.65,-2.46,2.65,-2.83,2.99l3.23,0c0.65,0,1.11,-0.02,1.38,-0.07c0.26,-0.04,0.5,-0.14,0.71,-0.29c0.21,-0.14,0.39,-0.36,0.55,-0.63l0.33,0" fill="#000000" stroke="none" fill-opacity="1"/>
<path d="m36.42,226.31c0,-1.41,0.21,-2.62,0.63,-3.64c0.42,-1.01,0.99,-1.77,1.69,-2.27c0.54,-0.39,1.11,-0.59,1.69,-0.59c0.94,0,1.8,0.48,2.55,1.45c0.94,1.19,1.41,2.82,1.41,4.87c0,1.43,-0.2,2.65,-0.62,3.66c-0.41,1,-0.94,1.73,-1.58,2.18c-0.64,0.45,-1.26,0.68,-1.85,0.68c-1.18,0,-2.16,-0.69,-2.94,-2.09c-0.66,-1.17,-0.99,-2.59,-0.99,-4.24m1.78,0.22c0,1.7,0.21,3.09,0.63,4.17c0.34,0.9,0.86,1.36,1.55,1.36c0.32,0,0.66,-0.14,1.02,-0.44c0.35,-0.29,0.62,-0.78,0.8,-1.48c0.28,-1.04,0.42,-2.52,0.42,-4.42c0,-1.41,-0.14,-2.59,-0.43,-3.53c-0.21,-0.7,-0.5,-1.19,-0.84,-1.48c-0.24,-0.2,-0.55,-0.3,-0.9,-0.3c-0.41,0,-0.78,0.18,-1.1,0.55c-0.43,0.5,-0.73,1.29,-0.89,2.38c-0.15,1.08,-0.23,2.15,-0.23,3.2m9.27,4.11c0.28,0,0.52,0.09,0.72,0.29c0.19,0.19,0.29,0.43,0.29,0.71c0,0.28,-0.09,0.51,-0.29,0.71c-0.19,0.19,-0.43,0.29,-0.71,0.29c-0.28,0,-0.51,-0.09,-0.71,-0.29c-0.19,-0.19,-0.29,-0.43,-0.29,-0.71c0,-0.28,0.09,-0.52,0.29,-0.72c0.19,-0.19,0.43,-0.29,0.71,-0.29m11.06,-2.79l0,1.29l-1.66,0l0,3.26l-1.5,0l0,-3.26l-5.24,0l0,-1.16l5.74,-8.19l1,0l0,8.07l1.66,0m-3.16,0l0,-6.14l-4.34,6.14l4.34,0" fill="#000000" stroke="none" fill-opacity="1"/>
<path d="m36.42,153.48c0,-1.41,0.21,-2.62,0.63,-3.64c0.42,-1.01,0.99,-1.77,1.69,-2.27c0.54,-0.39,1.11,-0.59,1.69,-0.59c0.94,0,1.8,0.48,2.55,1.45c0.94,1.19,1.41,2.82,1.41,4.87c0,1.43,-0.2,2.65,-0.62,3.66c-0.41,1,-0.94,1.73,-1.58,2.18c-0.64,0.45,-1.26,0.68,-1.85,0.68c-1.18,0,-2.16,-0.69,-2.94,-2.09c-0.66,-1.17,-0.99,-2.59,-0.99,-4.24m1.78,0.22c0,1.7,0.21,3.09,0.63,4.17c0.34,0.9,0.86,1.36,1.55,1.36c0.32,0,0.66,-0.14,1.02,-0.44c0.35,-0.29,0.62,-0.78,0.8,-1.48c0.28,-1.04,0.42,-2.52,0.42,-4.42c0,-1.41,-0.14,-2.59,-0.43,-3.53c-0.21,-0.7,-0.5,-1.19,-0.84,-1.48c-0.24,-0.2,-0.55,-0.3,-0.9,-0.3c-0.41,0,-0.78,0.18,-1.1,0.55c-0.43,0.5,-0.73,1.29,-0.89,2.38c-0.15,1.08,-0.23,2.15,-0.23,3.2m9.27,4.11c0.28,0,0.52,0.09,0.72,0.29c0.19,0.19,0.29,0.43,0.29,0.71c0,0.28,-0.09,0.51,-0.29,0.71c-0.19,0.19,-0.43,0.29,-0.71,0.29c-0.28,0,-0.51,-0.09,-0.71,-0.29c-0.19,-0.19,-0.29,-0.43,-0.29,-0.71c0,-0.28,0.09,-0.52,0.29,-0.72c0.19,-0.19,0.43,-0.29,0.71,-0.29m10.74,-10.86l0,0.33c-0.8,0.07,-1.45,0.23,-1.96,0.47c-0.5,0.24,-1.01,0.6,-1.5,1.1c-0.49,0.49,-0.9,1.04,-1.23,1.64c-0.32,0.6,-0.59,1.32,-0.81,2.15c0.87,-0.6,1.75,-0.9,2.63,-0.9c0.84,0,1.57,0.34,2.2,1.02c0.62,0.68,0.93,1.55,0.93,2.62c0,1.03,-0.31,1.97,-0.94,2.83c-0.75,1.03,-1.75,1.55,-2.99,1.55c-0.84,0,-1.56,-0.28,-2.15,-0.84c-1.15,-1.08,-1.73,-2.5,-1.73,-4.23c0,-1.1,0.22,-2.16,0.66,-3.15c0.44,-0.99,1.07,-1.88,1.9,-2.65c0.82,-0.77,1.61,-1.29,2.36,-1.56c0.75,-0.26,1.45,-0.4,2.1,-0.4l0.52,0m-5.67,6.39c-0.1,0.82,-0.16,1.48,-0.16,1.99c0,0.58,0.1,1.21,0.32,1.9c0.21,0.68,0.53,1.22,0.96,1.62c0.31,0.28,0.68,0.42,1.13,0.42c0.52,0,1,-0.24,1.41,-0.74c0.41,-0.49,0.62,-1.21,0.62,-2.13c0,-1.04,-0.2,-1.94,-0.62,-2.7c-0.41,-0.76,-1,-1.14,-1.76,-1.14c-0.23,0,-0.47,0.04,-0.74,0.14c-0.26,0.09,-0.65,0.3,-1.17,0.63" fill="#000000" stroke="none" fill-opacity="1"/>
<path d="m36.42,80.66c0,-1.41,0.21,-2.62,0.63,-3.64c0.42,-1.01,0.99,-1.77,1.69,-2.27c0.54,-0.39,1.11,-0.59,1.69,-0.59c0.94,0,1.8,0.48,2.55,1.45c0.94,1.19,1.41,2.82,1.41,4.87c0,1.43,-0.2,2.65,-0.62,3.66c-0.41,1,-0.94,1.73,-1.58,2.18c-0.64,0.45,-1.26,0.68,-1.85,0.68c-1.18,0,-2.16,-0.69,-2.94,-2.09c-0.66,-1.17,-0.99,-2.59,-0.99,-4.24m1.78,0.22c0,1.7,0.21,3.09,0.63,4.17c0.34,0.9,0.86,1.36,1.55,1.36c0.32,0,0.66,-0.14,1.02,-0.44c0.35,-0.29,0.62,-0.78,0.8,-1.48c0.28,-1.04,0.42,-2.52,0.42,-4.42c0,-1.41,-0.14,-2.59,-0.43,-3.53c-0.21,-0.7,-0.5,-1.19,-0.84,-1.48c-0.24,-0.2,-0.55,-0.3,-0.9,-0.3c-0.41,0,-0.78,0.18,-1.1,0.55c-0.43,0.5,-0.73,1.29,-0.89,2.38c-0.15,1.08,-0.23,2.15,-0.23,3.2m9.27,4.11c0.28,0,0.52,0.09,0.72,0.29c0.19,0.19,0.29,0.43,0.29,0.71c0,0.28,-0.09,0.51,-0.29,0.71c-0.19,0.19,-0.43,0.29,-0.71,0.29c-0.28,0,-0.51,-0.09,-0.71,-0.29c-0.19,-0.19,-0.29,-0.43,-0.29,-0.71c0,-0.28,0.09,-0.52,0.29,-0.72c0.19,-0.19,0.43,-0.29,0.71,-0.29m5.95,-4.46c-0.98,-0.8,-1.61,-1.44,-1.89,-1.93c-0.28,-0.48,-0.42,-0.99,-0.42,-1.51c0,-0.8,0.31,-1.49,0.93,-2.07c0.62,-0.58,1.44,-0.87,2.47,-0.87c0.99,0,1.8,0.27,2.41,0.81c0.6,0.54,0.91,1.15,0.91,1.85c0,0.46,-0.16,0.93,-0.49,1.41c-0.32,0.48,-1.01,1.04,-2.05,1.69c1.07,0.82,1.78,1.47,2.12,1.95c0.46,0.62,0.69,1.27,0.69,1.96c0,0.87,-0.33,1.61,-0.99,2.23c-0.66,0.61,-1.53,0.92,-2.61,0.92c-1.17,0,-2.09,-0.36,-2.74,-1.1c-0.52,-0.59,-0.78,-1.23,-0.78,-1.93c0,-0.54,0.18,-1.09,0.55,-1.62c0.36,-0.53,1,-1.13,1.9,-1.78m1.43,-0.97c0.73,-0.65,1.19,-1.17,1.38,-1.55c0.19,-0.38,0.29,-0.81,0.29,-1.29c0,-0.63,-0.17,-1.13,-0.53,-1.5c-0.35,-0.36,-0.84,-0.54,-1.47,-0.54c-0.62,0,-1.12,0.17,-1.51,0.53c-0.38,0.35,-0.58,0.77,-0.58,1.26c0,0.31,0.08,0.63,0.24,0.94c0.16,0.31,0.39,0.61,0.68,0.9l1.49,1.24m-1,1.32c-0.5,0.42,-0.87,0.89,-1.12,1.39c-0.24,0.5,-0.36,1.04,-0.36,1.62c0,0.78,0.21,1.41,0.64,1.88c0.42,0.47,0.97,0.7,1.63,0.7c0.65,0,1.18,-0.18,1.57,-0.55c0.39,-0.37,0.59,-0.82,0.59,-1.35c0,-0.43,-0.11,-0.83,-0.34,-1.17c-0.43,-0.64,-1.3,-1.48,-2.62,-2.52" fill="#000000" stroke="none" fill-opacity="1"/>
<path d="m52.04,5.81l3.01,-1.47l0.3,0l0,10.45c0,0.69,0.02,1.12,0.08,1.29c0.05,0.17,0.17,0.3,0.36,0.39c0.18,0.09,0.55,0.14,1.11,0.15l0,0.33l-4.65,0l0,-0.33c0.58,-0.01,0.96,-0.06,1.13,-0.15c0.17,-0.08,0.28,-0.2,0.35,-0.35c0.06,-0.14,0.1,-0.59,0.1,-1.33l0,-6.68c0,-0.9,-0.03,-1.47,-0.09,-1.73c-0.04,-0.19,-0.12,-0.33,-0.23,-0.42c-0.11,-0.09,-0.24,-0.13,-0.4,-0.13c-0.22,0,-0.53,0.09,-0.94,0.28l-0.13,-0.28" fill="#000000" stroke="none" fill-opacity="1"/>
</g>
<g fill="none" stroke-linecap="butt" stroke-width="0.66">
<path d="M559.37,371.67l0,-364.11"/>
<path d="M559.37,371.67l-4,0M559.37,353.47l-4,0M559.37,335.26l-4,0M559.37,317.06l-4,0M559.37,298.85l-4,0M559.37,280.64l-4,0M559.37,262.44l-4,0M559.37,244.23l-4,0M559.37,226.03l-4,0M559.37,207.82l-4,0M559.37,189.61l-4,0M559.37,171.41l-4,0M559.37,153.2l-4,0M559.37,135l-4,0M559.37,116.79l-4,0M559.37,98.58l-4,0M559.37,80.38l-4,0M559.37,62.17l-4,0M559.37,43.97l-4,0M559.37,25.76l-4,0M559.37,7.55l-4,0"/>
<path d="M559.37,371.67l-8,0M559.37,298.85l-8,0M559.37,226.03l-8,0M559.37,153.2l-8,0M559.37,80.38l-8,0M559.37,7.55l-8,0"/>
<path d="M64.25,371.67l495.11,0"/>
<path d="M64.25,371.67l0,-4M94.22,371.67l0,-4M124.2,371.67l0,-4M154.17,371.67l0,-4M184.14,371.67l0,-4M214.12,371.67l0,-4M244.09,371.67l0,-4M274.07,371.67l0,-4M304.04,371.67l0,-4M334.02,371.67l0,-4M363.99,371.67l0,-4M393.96,371.67l0,-4M423.94,371.67l0,-4M453.91,371.67l0,-4M483.89,371.67l0,-4M513.86,371.67l0,-4M543.84,371.67l0,-4"/>
<path d="M64.25,371.67l0,-8M184.14,371.67l0,-8M304.04,371.67l0,-8M423.94,371.67l0,-8M543.84,371.67l0,-8"/>
</g>
<g fill="none" stroke-width="0.1">
<path d="m250.67,411.71l3.5,0l0,0.33c-0.32,0.02,-0.53,0.08,-0.63,0.17c-0.1,0.09,-0.15,0.22,-0.15,0.39c0,0.18,0.05,0.41,0.15,0.68l1.78,4.81l1.79,-3.91l-0.47,-1.23c-0.14,-0.36,-0.33,-0.61,-0.57,-0.75c-0.13,-0.08,-0.38,-0.13,-0.74,-0.15l0,-0.33l3.98,0l0,0.33c-0.43,0.01,-0.74,0.09,-0.93,0.23c-0.12,0.09,-0.18,0.25,-0.18,0.46c0,0.12,0.02,0.24,0.07,0.37l1.89,4.8l1.76,-4.62c0.12,-0.32,0.18,-0.59,0.18,-0.78c0,-0.11,-0.05,-0.21,-0.17,-0.31c-0.11,-0.09,-0.35,-0.14,-0.69,-0.15l0,-0.33l2.63,0l0,0.33c-0.52,0.07,-0.91,0.43,-1.16,1.07l-2.79,7.2l-0.37,0l-2.09,-5.34l-2.43,5.34l-0.33,0l-2.68,-7.03c-0.17,-0.44,-0.35,-0.74,-0.52,-0.89c-0.17,-0.15,-0.43,-0.27,-0.8,-0.35l0,-0.33m18.7,7.15c-0.85,0.66,-1.39,1.04,-1.61,1.15c-0.32,0.15,-0.67,0.22,-1.05,0.22c-0.57,0,-1.05,-0.19,-1.42,-0.59c-0.37,-0.39,-0.56,-0.91,-0.56,-1.56c0,-0.4,0.09,-0.76,0.27,-1.05c0.24,-0.41,0.68,-0.8,1.3,-1.16c0.61,-0.36,1.64,-0.8,3.08,-1.33l0,-0.32c0,-0.83,-0.13,-1.4,-0.39,-1.71c-0.26,-0.31,-0.64,-0.46,-1.15,-0.46c-0.38,0,-0.68,0.1,-0.91,0.31c-0.23,0.2,-0.34,0.44,-0.34,0.71l0.01,0.52c0,0.28,-0.07,0.49,-0.21,0.64c-0.14,0.15,-0.33,0.22,-0.56,0.22c-0.22,0,-0.4,-0.07,-0.55,-0.23c-0.14,-0.15,-0.21,-0.37,-0.21,-0.64c0,-0.52,0.26,-1,0.8,-1.44c0.53,-0.43,1.28,-0.65,2.25,-0.65c0.74,0,1.35,0.12,1.82,0.37c0.35,0.18,0.62,0.48,0.79,0.88c0.1,0.26,0.16,0.79,0.16,1.6l0,2.83c0,0.79,0.01,1.28,0.04,1.46c0.03,0.17,0.08,0.29,0.15,0.36c0.07,0.06,0.15,0.09,0.24,0.09c0.09,0,0.18,-0.02,0.25,-0.06c0.12,-0.07,0.37,-0.3,0.73,-0.66l0,0.51c-0.68,0.91,-1.33,1.36,-1.95,1.36c-0.29,0,-0.53,-0.1,-0.71,-0.31c-0.17,-0.2,-0.26,-0.56,-0.27,-1.05m0,-0.59l0,-3.18c-0.91,0.36,-1.51,0.62,-1.78,0.77c-0.48,0.26,-0.82,0.54,-1.03,0.84c-0.2,0.29,-0.31,0.61,-0.31,0.95c0,0.43,0.13,0.8,0.39,1.09c0.26,0.28,0.56,0.43,0.9,0.43c0.46,0,1.07,-0.3,1.82,-0.91m3.13,-6.56l3.93,0l0,0.33l-0.25,0c-0.23,0,-0.41,0.05,-0.54,0.17c-0.12,0.11,-0.18,0.27,-0.18,0.46c0,0.21,0.06,0.46,0.19,0.75l1.94,4.62l1.95,-4.79c0.14,-0.34,0.21,-0.59,0.21,-0.77c0,-0.08,-0.02,-0.15,-0.07,-0.21c-0.06,-0.09,-0.15,-0.15,-0.25,-0.18c-0.1,-0.03,-0.31,-0.05,-0.63,-0.05l0,-0.33l2.73,0l0,0.33c-0.31,0.02,-0.53,0.08,-0.65,0.19c-0.21,0.18,-0.4,0.48,-0.57,0.91l-2.96,7.17l-0.37,0l-2.98,-7.05c-0.13,-0.32,-0.26,-0.56,-0.38,-0.7c-0.12,-0.14,-0.27,-0.26,-0.46,-0.36c-0.1,-0.05,-0.3,-0.1,-0.61,-0.15l0,-0.33m11.23,3.15c0,1.24,0.29,2.21,0.9,2.92c0.6,0.7,1.32,1.05,2.14,1.05c0.54,0,1.02,-0.15,1.42,-0.45c0.4,-0.3,0.74,-0.81,1.01,-1.54l0.28,0.18c-0.12,0.83,-0.49,1.59,-1.11,2.27c-0.61,0.68,-1.38,1.02,-2.31,1.02c-1,0,-1.86,-0.39,-2.57,-1.17c-0.71,-0.78,-1.07,-1.83,-1.07,-3.15c0,-1.43,0.36,-2.54,1.1,-3.34c0.73,-0.8,1.65,-1.2,2.76,-1.2c0.93,0,1.7,0.3,2.31,0.92c0.6,0.61,0.9,1.44,0.9,2.47l-5.77,0m0,-0.52l3.87,0c-0.03,-0.53,-0.09,-0.91,-0.19,-1.13c-0.15,-0.34,-0.37,-0.6,-0.68,-0.8c-0.3,-0.19,-0.61,-0.29,-0.94,-0.29c-0.5,0,-0.95,0.19,-1.35,0.58c-0.39,0.39,-0.63,0.93,-0.69,1.63m9.77,-7.24l0,11.09c0,0.52,0.03,0.87,0.11,1.04c0.07,0.17,0.19,0.29,0.35,0.38c0.15,0.08,0.45,0.13,0.88,0.13l0,0.32l-4.09,0l0,-0.32c0.38,0,0.64,-0.03,0.78,-0.11c0.14,-0.07,0.24,-0.21,0.32,-0.39c0.07,-0.18,0.11,-0.53,0.11,-1.05l0,-7.59c0,-0.94,-0.02,-1.52,-0.06,-1.73c-0.04,-0.21,-0.11,-0.36,-0.2,-0.44c-0.09,-0.07,-0.21,-0.11,-0.36,-0.11c-0.15,0,-0.35,0.04,-0.6,0.14l-0.15,-0.31l2.49,-1.02l0.41,0m3.72,7.77c0,1.24,0.29,2.21,0.9,2.92c0.6,0.7,1.32,1.05,2.14,1.05c0.54,0,1.02,-0.15,1.42,-0.45c0.4,-0.3,0.74,-0.81,1.01,-1.54l0.28,0.18c-0.12,0.83,-0.49,1.59,-1.11,2.27c-0.61,0.68,-1.38,1.02,-2.31,1.02c-1,0,-1.86,-0.39,-2.57,-1.17c-0.71,-0.78,-1.07,-1.83,-1.07,-3.15c0,-1.43,0.36,-2.54,1.1,-3.34c0.73,-0.8,1.65,-1.2,2.76,-1.2c0.93,0,1.7,0.3,2.31,0.92c0.6,0.61,0.9,1.44,0.9,2.47l-5.77,0m0,-0.52l3.87,0c-0.03,-0.53,-0.09,-0.91,-0.19,-1.13c-0.15,-0.34,-0.37,-0.6,-0.68,-0.8c-0.3,-0.19,-0.61,-0.29,-0.94,-0.29c-0.5,0,-0.95,0.19,-1.35,0.58c-0.39,0.39,-0.63,0.93,-0.69,1.63m9.33,-1.09c0.98,-1.18,1.91,-1.77,2.8,-1.77c0.45,0,0.84,0.11,1.17,0.34c0.32,0.22,0.59,0.6,0.78,1.12c0.13,0.36,0.2,0.92,0.2,1.68l0,3.57c0,0.52,0.04,0.88,0.12,1.07c0.06,0.15,0.17,0.27,0.32,0.35c0.14,0.08,0.42,0.12,0.82,0.12l0,0.32l-4.13,0l0,-0.32l0.17,0c0.38,0,0.66,-0.05,0.81,-0.17c0.15,-0.11,0.26,-0.29,0.32,-0.52c0.02,-0.09,0.03,-0.37,0.03,-0.85l0,-3.42c0,-0.76,-0.09,-1.31,-0.29,-1.65c-0.19,-0.34,-0.53,-0.51,-0.99,-0.51c-0.72,0,-1.44,0.39,-2.16,1.18l0,4.41c0,0.56,0.03,0.91,0.1,1.05c0.08,0.17,0.2,0.3,0.35,0.38c0.14,0.08,0.45,0.12,0.9,0.12l0,0.32l-4.13,0l0,-0.32l0.18,0c0.42,0,0.71,-0.1,0.86,-0.32c0.14,-0.21,0.22,-0.62,0.22,-1.23l0,-3.1c0,-1,-0.02,-1.61,-0.06,-1.83c-0.04,-0.21,-0.11,-0.36,-0.21,-0.44c-0.09,-0.07,-0.22,-0.11,-0.37,-0.11c-0.17,0,-0.37,0.04,-0.61,0.13l-0.13,-0.32l2.52,-1.02l0.39,0l0,1.77m9.19,3.78c-0.51,-0.24,-0.9,-0.59,-1.17,-1.04c-0.27,-0.44,-0.41,-0.94,-0.41,-1.48c0,-0.82,0.31,-1.54,0.93,-2.13c0.62,-0.59,1.42,-0.89,2.39,-0.89c0.79,0,1.48,0.19,2.07,0.58l1.77,0c0.26,0,0.41,0,0.45,0.02c0.04,0.01,0.07,0.04,0.09,0.07c0.03,0.05,0.05,0.15,0.05,0.29c0,0.15,-0.01,0.26,-0.04,0.32c-0.01,0.03,-0.05,0.05,-0.09,0.07c-0.04,0.01,-0.19,0.02,-0.46,0.02l-1.08,0c0.34,0.43,0.51,0.99,0.51,1.68c0,0.77,-0.29,1.44,-0.89,1.99c-0.59,0.55,-1.39,0.83,-2.4,0.83c-0.41,0,-0.83,-0.06,-1.26,-0.18c-0.26,0.23,-0.44,0.43,-0.54,0.6c-0.09,0.17,-0.14,0.32,-0.14,0.44c0,0.1,0.05,0.2,0.15,0.3c0.1,0.09,0.29,0.16,0.58,0.21c0.17,0.02,0.59,0.04,1.27,0.06c1.25,0.03,2.06,0.07,2.43,0.12c0.56,0.07,1.01,0.28,1.35,0.63c0.33,0.34,0.5,0.76,0.5,1.26c0,0.68,-0.32,1.33,-0.96,1.93c-0.94,0.88,-2.18,1.33,-3.71,1.33c-1.17,0,-2.16,-0.26,-2.97,-0.79c-0.45,-0.3,-0.68,-0.62,-0.68,-0.94c0,-0.14,0.03,-0.29,0.1,-0.43c0.1,-0.22,0.31,-0.53,0.63,-0.94c0.04,-0.05,0.35,-0.38,0.93,-0.98c-0.31,-0.18,-0.54,-0.35,-0.67,-0.5c-0.13,-0.14,-0.19,-0.31,-0.19,-0.5c0,-0.21,0.08,-0.46,0.26,-0.74c0.17,-0.28,0.57,-0.69,1.2,-1.21m1.58,-5.12c-0.45,0,-0.82,0.17,-1.13,0.53c-0.3,0.35,-0.45,0.91,-0.45,1.65c0,0.96,0.2,1.7,0.62,2.23c0.31,0.4,0.71,0.6,1.2,0.6c0.46,0,0.84,-0.17,1.14,-0.52c0.29,-0.34,0.44,-0.89,0.44,-1.63c0,-0.96,-0.21,-1.72,-0.63,-2.27c-0.31,-0.4,-0.7,-0.6,-1.19,-0.6m-1.68,8.17c-0.28,0.31,-0.5,0.59,-0.64,0.86c-0.14,0.26,-0.21,0.51,-0.21,0.73c0,0.29,0.17,0.54,0.52,0.76c0.6,0.37,1.48,0.56,2.63,0.56c1.09,0,1.9,-0.19,2.42,-0.57c0.52,-0.38,0.78,-0.79,0.78,-1.23c0,-0.31,-0.15,-0.54,-0.46,-0.67c-0.31,-0.13,-0.94,-0.21,-1.88,-0.23c-1.36,-0.03,-2.42,-0.1,-3.15,-0.21m9.68,-11.11l0,2.74l1.95,0l0,0.63l-1.95,0l0,5.42c0,0.54,0.07,0.9,0.23,1.09c0.15,0.18,0.35,0.28,0.59,0.28c0.2,0,0.39,-0.06,0.58,-0.18c0.18,-0.12,0.33,-0.3,0.43,-0.55l0.35,0c-0.21,0.59,-0.51,1.04,-0.9,1.34c-0.38,0.3,-0.79,0.45,-1.2,0.45c-0.28,0,-0.55,-0.07,-0.82,-0.23c-0.26,-0.15,-0.46,-0.37,-0.59,-0.66c-0.12,-0.28,-0.19,-0.73,-0.19,-1.33l0,-5.62l-1.32,0l0,-0.3c0.33,-0.13,0.67,-0.36,1.02,-0.68c0.35,-0.31,0.66,-0.69,0.93,-1.13c0.14,-0.23,0.33,-0.65,0.58,-1.26l0.28,0m5.22,-1.87l0,6.11c0.67,-0.74,1.21,-1.21,1.6,-1.42c0.39,-0.21,0.79,-0.31,1.18,-0.31c0.47,0,0.88,0.13,1.22,0.39c0.34,0.26,0.59,0.67,0.75,1.23c0.11,0.38,0.17,1.1,0.17,2.13l0,2.95c0,0.52,0.04,0.89,0.12,1.08c0.06,0.14,0.16,0.26,0.31,0.34c0.14,0.08,0.41,0.12,0.8,0.12l0,0.32l-4.1,0l0,-0.32l0.19,0c0.38,0,0.66,-0.05,0.81,-0.17c0.15,-0.11,0.25,-0.29,0.31,-0.52c0.01,-0.09,0.02,-0.38,0.02,-0.85l0,-2.95c0,-0.91,-0.04,-1.51,-0.14,-1.79c-0.09,-0.28,-0.24,-0.5,-0.45,-0.64c-0.2,-0.14,-0.45,-0.21,-0.74,-0.21c-0.29,0,-0.6,0.07,-0.93,0.23c-0.32,0.15,-0.7,0.47,-1.15,0.95l0,4.41c0,0.57,0.03,0.92,0.09,1.06c0.06,0.14,0.18,0.25,0.35,0.35c0.17,0.09,0.47,0.14,0.89,0.14l0,0.32l-4.14,0l0,-0.32c0.37,0,0.66,-0.05,0.87,-0.17c0.12,-0.06,0.21,-0.17,0.29,-0.34c0.07,-0.17,0.1,-0.51,0.1,-1.04l0,-7.56c0,-0.95,-0.02,-1.54,-0.06,-1.76c-0.04,-0.21,-0.11,-0.36,-0.21,-0.44c-0.09,-0.07,-0.22,-0.11,-0.37,-0.11c-0.12,0,-0.33,0.04,-0.62,0.14l-0.12,-0.31l2.5,-1.02l0.42,0m12.16,16.64l0,0.33c-0.91,-0.46,-1.68,-1,-2.3,-1.62c-0.87,-0.88,-1.55,-1.92,-2.02,-3.12c-0.47,-1.19,-0.71,-2.44,-0.71,-3.73c0,-1.88,0.46,-3.6,1.39,-5.16c0.93,-1.55,2.14,-2.66,3.64,-3.33l0,0.38c-0.74,0.41,-1.36,0.98,-1.84,1.69c-0.48,0.71,-0.84,1.62,-1.07,2.73c-0.23,1.1,-0.35,2.25,-0.35,3.45c0,1.3,0.1,2.48,0.3,3.55c0.15,0.84,0.35,1.51,0.57,2.02c0.22,0.5,0.52,0.99,0.9,1.46c0.38,0.46,0.87,0.91,1.49,1.34m3.41,-10.5c0.98,-1.18,1.91,-1.77,2.8,-1.77c0.45,0,0.84,0.11,1.17,0.34c0.32,0.22,0.59,0.6,0.78,1.12c0.13,0.36,0.2,0.92,0.2,1.68l0,3.57c0,0.52,0.04,0.88,0.12,1.07c0.06,0.15,0.17,0.27,0.32,0.35c0.14,0.08,0.42,0.12,0.82,0.12l0,0.32l-4.13,0l0,-0.32l0.17,0c0.38,0,0.66,-0.05,0.81,-0.17c0.15,-0.11,0.26,-0.29,0.32,-0.52c0.02,-0.09,0.03,-0.37,0.03,-0.85l0,-3.42c0,-0.76,-0.09,-1.31,-0.29,-1.65c-0.19,-0.34,-0.53,-0.51,-0.99,-0.51c-0.72,0,-1.44,0.39,-2.16,1.18l0,4.41c0,0.56,0.03,0.91,0.1,1.05c0.08,0.17,0.2,0.3,0.35,0.38c0.14,0.08,0.45,0.12,0.9,0.12l0,0.32l-4.13,0l0,-0.32l0.18,0c0.42,0,0.71,-0.1,0.86,-0.32c0.14,-0.21,0.22,-0.62,0.22,-1.23l0,-3.1c0,-1,-0.02,-1.61,-0.06,-1.83c-0.04,-0.21,-0.11,-0.36,-0.21,-0.44c-0.09,-0.07,-0.22,-0.11,-0.37,-0.11c-0.17,0,-0.37,0.04,-0.61,0.13l-0.13,-0.32l2.52,-1.02l0.39,0l0,1.77m9.44,0c0.6,-0.6,0.96,-0.95,1.07,-1.05c0.27,-0.23,0.56,-0.41,0.88,-0.53c0.31,-0.12,0.63,-0.19,0.94,-0.19c0.52,0,0.97,0.15,1.35,0.45c0.37,0.3,0.63,0.74,0.75,1.32c0.62,-0.73,1.15,-1.2,1.58,-1.43c0.43,-0.22,0.87,-0.34,1.33,-0.34c0.44,0,0.83,0.11,1.18,0.34c0.34,0.22,0.61,0.6,0.81,1.11c0.13,0.35,0.2,0.9,0.2,1.66l0,3.59c0,0.52,0.03,0.88,0.11,1.07c0.06,0.13,0.17,0.24,0.33,0.34c0.16,0.09,0.43,0.14,0.8,0.14l0,0.32l-4.12,0l0,-0.32l0.17,0c0.35,0,0.63,-0.07,0.84,-0.21c0.14,-0.09,0.24,-0.25,0.3,-0.46c0.02,-0.1,0.03,-0.39,0.03,-0.88l0,-3.59c0,-0.68,-0.08,-1.16,-0.24,-1.44c-0.23,-0.38,-0.61,-0.58,-1.14,-0.58c-0.32,0,-0.64,0.08,-0.97,0.24c-0.32,0.16,-0.71,0.46,-1.18,0.89l-0.01,0.1l0.01,0.39l0,3.99c0,0.57,0.03,0.92,0.09,1.06c0.06,0.14,0.18,0.25,0.36,0.35c0.17,0.09,0.47,0.14,0.9,0.14l0,0.32l-4.22,0l0,-0.32c0.46,0,0.78,-0.05,0.95,-0.16c0.17,-0.1,0.29,-0.27,0.36,-0.49c0.03,-0.1,0.04,-0.4,0.04,-0.9l0,-3.59c0,-0.68,-0.1,-1.17,-0.3,-1.47c-0.26,-0.38,-0.64,-0.58,-1.12,-0.58c-0.32,0,-0.65,0.08,-0.97,0.26c-0.5,0.26,-0.89,0.56,-1.16,0.9l0,4.48c0,0.54,0.03,0.9,0.11,1.06c0.07,0.16,0.18,0.28,0.33,0.36c0.14,0.08,0.45,0.12,0.9,0.12l0,0.32l-4.13,0l0,-0.32c0.38,0,0.65,-0.04,0.8,-0.12c0.15,-0.08,0.26,-0.21,0.34,-0.39c0.07,-0.17,0.11,-0.52,0.11,-1.04l0,-3.19c0,-0.91,-0.02,-1.51,-0.08,-1.78c-0.04,-0.2,-0.1,-0.33,-0.2,-0.41c-0.09,-0.07,-0.21,-0.11,-0.37,-0.11c-0.17,0,-0.37,0.04,-0.61,0.13l-0.13,-0.32l2.52,-1.02l0.39,0l0,1.78m11.65,-5.77l0,-0.38c0.92,0.45,1.69,0.99,2.31,1.61c0.87,0.88,1.54,1.93,2.01,3.12c0.47,1.19,0.71,2.44,0.71,3.73c0,1.88,-0.46,3.6,-1.39,5.16c-0.92,1.55,-2.14,2.66,-3.64,3.33l0,-0.33c0.74,-0.42,1.36,-0.98,1.84,-1.7c0.48,-0.71,0.84,-1.62,1.07,-2.73c0.23,-1.1,0.35,-2.25,0.35,-3.45c0,-1.29,-0.1,-2.48,-0.3,-3.55c-0.15,-0.84,-0.34,-1.51,-0.57,-2.01c-0.22,-0.5,-0.53,-0.99,-0.9,-1.46c-0.37,-0.46,-0.87,-0.91,-1.49,-1.34" fill="#000000" stroke="none" fill-opacity="1"/>
<path d="m58.72,390.99l-0.86,2.38l-7.3,0l0,-0.33c2.14,-1.96,3.66,-3.56,4.53,-4.8c0.87,-1.24,1.31,-2.37,1.31,-3.4c0,-0.78,-0.24,-1.43,-0.72,-1.93c-0.48,-0.5,-1.05,-0.75,-1.72,-0.75c-0.6,0,-1.15,0.17,-1.63,0.53c-0.48,0.35,-0.84,0.87,-1.07,1.56l-0.33,0c0.15,-1.12,0.54,-1.99,1.17,-2.59c0.63,-0.6,1.41,-0.9,2.36,-0.9c1,0,1.84,0.32,2.51,0.96c0.67,0.64,1,1.4,1,2.28c0,0.62,-0.14,1.25,-0.43,1.88c-0.45,0.98,-1.18,2.03,-2.19,3.13c-1.51,1.65,-2.46,2.65,-2.83,2.99l3.23,0c0.65,0,1.11,-0.02,1.38,-0.07c0.26,-0.04,0.5,-0.14,0.71,-0.29c0.21,-0.14,0.39,-0.36,0.55,-0.63l0.33,0m1.5,-3.73c0,-1.41,0.21,-2.62,0.63,-3.64c0.42,-1.01,0.99,-1.77,1.69,-2.27c0.54,-0.39,1.11,-0.59,1.69,-0.59c0.94,0,1.8,0.48,2.55,1.45c0.94,1.19,1.41,2.82,1.41,4.87c0,1.43,-0.2,2.65,-0.62,3.66c-0.41,1,-0.94,1.73,-1.58,2.18c-0.64,0.45,-1.26,0.68,-1.85,0.68c-1.18,0,-2.16,-0.69,-2.94,-2.09c-0.66,-1.17,-0.99,-2.59,-0.99,-4.24m1.78,0.22c0,1.7,0.21,3.09,0.63,4.17c0.34,0.9,0.86,1.36,1.55,1.36c0.32,0,0.66,-0.14,1.02,-0.44c0.35,-0.29,0.62,-0.78,0.8,-1.48c0.28,-1.04,0.42,-2.52,0.42,-4.42c0,-1.41,-0.14,-2.59,-0.43,-3.53c-0.21,-0.7,-0.5,-1.19,-0.84,-1.48c-0.24,-0.2,-0.55,-0.3,-0.9,-0.3c-0.41,0,-0.78,0.18,-1.1,0.55c-0.43,0.5,-0.73,1.29,-0.89,2.38c-0.15,1.08,-0.23,2.15,-0.23,3.2m7.61,-0.22c0,-1.41,0.21,-2.62,0.63,-3.64c0.42,-1.01,0.99,-1.77,1.69,-2.27c0.54,-0.39,1.11,-0.59,1.69,-0.59c0.94,0,1.8,0.48,2.55,1.45c0.94,1.19,1.41,2.82,1.41,4.87c0,1.43,-0.2,2.65,-0.62,3.66c-0.41,1,-0.94,1.73,-1.58,2.18c-0.64,0.45,-1.26,0.68,-1.85,0.68c-1.18,0,-2.16,-0.69,-2.94,-2.09c-0.66,-1.17,-0.99,-2.59,-0.99,-4.24m1.78,0.22c0,1.7,0.21,3.09,0.63,4.17c0.34,0.9,0.86,1.36,1.55,1.36c0.32,0,0.66,-0.14,1.02,-0.44c0.35,-0.29,0.62,-0.78,0.8,-1.48c0.28,-1.04,0.42,-2.52,0.42,-4.42c0,-1.41,-0.14,-2.59,-0.43,-3.53c-0.21,-0.7,-0.5,-1.19,-0.84,-1.48c-0.24,-0.2,-0.55,-0.3,-0.9,-0.3c-0.41,0,-0.78,0.18,-1.1,0.55c-0.43,0.5,-0.73,1.29,-0.89,2.38c-0.15,1.08,-0.23,2.15,-0.23,3.2" fill="#000000" stroke="none" fill-opacity="1"/>
<path d="m178.75,388.81l0,1.29l-1.66,0l0,3.26l-1.5,0l0,-3.26l-5.24,0l0,-1.16l5.74,-8.19l1,0l0,8.07l1.66,0m-3.16,0l0,-6.14l-4.34,6.14l4.34,0m4.54,-1.55c0,-1.41,0.21,-2.62,0.63,-3.64c0.42,-1.01,0.99,-1.77,1.69,-2.27c0.54,-0.39,1.11,-0.59,1.69,-0.59c0.94,0,1.8,0.48,2.55,1.45c0.94,1.19,1.41,2.82,1.41,4.87c0,1.43,-0.2,2.65,-0.62,3.66c-0.41,1,-0.94,1.73,-1.58,2.18c-0.64,0.45,-1.26,0.68,-1.85,0.68c-1.18,0,-2.16,-0.69,-2.94,-2.09c-0.66,-1.17,-0.99,-2.59,-0.99,-4.24m1.78,0.22c0,1.7,0.21,3.09,0.63,4.17c0.34,0.9,0.86,1.36,1.55,1.36c0.32,0,0.66,-0.14,1.02,-0.44c0.35,-0.29,0.62,-0.78,0.8,-1.48c0.28,-1.04,0.42,-2.52,0.42,-4.42c0,-1.41,-0.14,-2.59,-0.43,-3.53c-0.21,-0.7,-0.5,-1.19,-0.84,-1.48c-0.24,-0.2,-0.55,-0.3,-0.9,-0.3c-0.41,0,-0.78,0.18,-1.1,0.55c-0.43,0.5,-0.73,1.29,-0.89,2.38c-0.15,1.08,-0.23,2.15,-0.23,3.2m7.61,-0.22c0,-1.41,0.21,-2.62,0.63,-3.64c0.42,-1.01,0.99,-1.77,1.69,-2.27c0.54,-0.39,1.11,-0.59,1.69,-0.59c0.94,0,1.8,0.48,2.55,1.45c0.94,1.19,1.41,2.82,1.41,4.87c0,1.43,-0.2,2.65,-0.62,3.66c-0.41,1,-0.94,1.73,-1.58,2.18c-0.64,0.45,-1.26,0.68,-1.85,0.68c-1.18,0,-2.16,-0.69,-2.94,-2.09c-0.66,-1.17,-0.99,-2.59,-0.99,-4.24m1.78,0.22c0,1.7,0.21,3.09,0.63,4.17c0.34,0.9,0.86,1.36,1.55,1.36c0.32,0,0.66,-0.14,1.02,-0.44c0.35,-0.29,0.62,-0.78,0.8,-1.48c0.28,-1.04,0.42,-2.52,0.42,-4.42c0,-1.41,-0.14,-2.59,-0.43,-3.53c-0.21,-0.7,-0.5,-1.19,-0.84,-1.48c-0.24,-0.2,-0.55,-0.3,-0.9,-0.3c-0.41,0,-0.78,0.18,-1.1,0.55c-0.43,0.5,-0.73,1.29,-0.89,2.38c-0.15,1.08,-0.23,2.15,-0.23,3.2" fill="#000000" stroke="none" fill-opacity="1"/>
<path d="m298.32,380.74l0,0.33c-0.8,0.07,-1.45,0.23,-1.96,0.47c-0.5,0.24,-1.01,0.6,-1.5,1.1c-0.49,0.49,-0.9,1.04,-1.23,1.64c-0.32,0.6,-0.59,1.32,-0.81,2.15c0.87,-0.6,1.75,-0.9,2.63,-0.9c0.84,0,1.57,0.34,2.2,1.02c0.62,0.68,0.93,1.55,0.93,2.62c0,1.03,-0.31,1.97,-0.94,2.83c-0.75,1.03,-1.75,1.55,-2.99,1.55c-0.84,0,-1.56,-0.28,-2.15,-0.84c-1.15,-1.08,-1.73,-2.5,-1.73,-4.23c0,-1.1,0.22,-2.16,0.66,-3.15c0.44,-0.99,1.07,-1.88,1.9,-2.65c0.82,-0.77,1.61,-1.29,2.36,-1.56c0.75,-0.26,1.45,-0.4,2.1,-0.4l0.52,0m-5.67,6.39c-0.1,0.82,-0.16,1.48,-0.16,1.99c0,0.58,0.1,1.21,0.32,1.9c0.21,0.68,0.53,1.22,0.96,1.62c0.31,0.28,0.68,0.42,1.13,0.42c0.52,0,1,-0.24,1.41,-0.74c0.41,-0.49,0.62,-1.21,0.62,-2.13c0,-1.04,-0.2,-1.94,-0.62,-2.7c-0.41,-0.76,-1,-1.14,-1.76,-1.14c-0.23,0,-0.47,0.04,-0.74,0.14c-0.26,0.09,-0.65,0.3,-1.17,0.63m7.37,0.12c0,-1.41,0.21,-2.62,0.63,-3.64c0.42,-1.01,0.99,-1.77,1.69,-2.27c0.54,-0.39,1.11,-0.59,1.69,-0.59c0.94,0,1.8,0.48,2.55,1.45c0.94,1.19,1.41,2.82,1.41,4.87c0,1.43,-0.2,2.65,-0.62,3.66c-0.41,1,-0.94,1.73,-1.58,2.18c-0.64,0.45,-1.26,0.68,-1.85,0.68c-1.18,0,-2.16,-0.69,-2.94,-2.09c-0.66,-1.17,-0.99,-2.59,-0.99,-4.24m1.78,0.22c0,1.7,0.21,3.09,0.63,4.17c0.34,0.9,0.86,1.36,1.55,1.36c0.32,0,0.66,-0.14,1.02,-0.44c0.35,-0.29,0.62,-0.78,0.8,-1.48c0.28,-1.04,0.42,-2.52,0.42,-4.42c0,-1.41,-0.14,-2.59,-0.43,-3.53c-0.21,-0.7,-0.5,-1.19,-0.84,-1.48c-0.24,-0.2,-0.55,-0.3,-0.9,-0.3c-0.41,0,-0.78,0.18,-1.1,0.55c-0.43,0.5,-0.73,1.29,-0.89,2.38c-0.15,1.08,-0.23,2.15,-0.23,3.2m7.61,-0.22c0,-1.41,0.21,-2.62,0.63,-3.64c0.42,-1.01,0.99,-1.77,1.69,-2.27c0.54,-0.39,1.11,-0.59,1.69,-0.59c0.94,0,1.8,0.48,2.55,1.45c0.94,1.19,1.41,2.82,1.41,4.87c0,1.43,-0.2,2.65,-0.62,3.66c-0.41,1,-0.94,1.73,-1.58,2.18c-0.64,0.45,-1.26,0.68,-1.85,0.68c-1.18,0,-2.16,-0.69,-2.94,-2.09c-0.66,-1.17,-0.99,-2.59,-0.99,-4.24m1.78,0.22c0,1.7,0.21,3.09,0.63,4.17c0.34,0.9,0.86,1.36,1.55,1.36c0.32,0,0.66,-0.14,1.02,-0.44c0.35,-0.29,0.62,-0.78,0.8,-1.48c0.28,-1.04,0.42,-2.52,0.42,-4.42c0,-1.41,-0.14,-2.59,-0.43,-3.53c-0.21,-0.7,-0.5,-1.19,-0.84,-1.48c-0.24,-0.2,-0.55,-0.3,-0.9,-0.3c-0.41,0,-0.78,0.18,-1.1,0.55c-0.43,0.5,-0.73,1.29,-0.89,2.38c-0.15,1.08,-0.23,2.15,-0.23,3.2" fill="#000000" stroke="none" fill-opacity="1"/>
<path d="m413.43,387.14c-0.98,-0.8,-1.61,-1.44,-1.89,-1.93c-0.28,-0.48,-0.42,-0.99,-0.42,-1.51c0,-0.8,0.31,-1.49,0.93,-2.07c0.62,-0.58,1.44,-0.87,2.47,-0.87c0.99,0,1.8,0.27,2.41,0.81c0.6,0.54,0.91,1.15,0.91,1.85c0,0.46,-0.16,0.93,-0.49,1.41c-0.32,0.48,-1.01,1.04,-2.05,1.69c1.07,0.82,1.78,1.47,2.12,1.95c0.46,0.62,0.69,1.27,0.69,1.96c0,0.87,-0.33,1.61,-0.99,2.23c-0.66,0.61,-1.53,0.92,-2.61,0.92c-1.17,0,-2.09,-0.36,-2.74,-1.1c-0.52,-0.59,-0.78,-1.23,-0.78,-1.93c0,-0.54,0.18,-1.09,0.55,-1.62c0.36,-0.53,1,-1.13,1.9,-1.78m1.43,-0.97c0.73,-0.65,1.19,-1.17,1.38,-1.55c0.19,-0.38,0.29,-0.81,0.29,-1.29c0,-0.63,-0.17,-1.13,-0.53,-1.5c-0.35,-0.36,-0.84,-0.54,-1.47,-0.54c-0.62,0,-1.12,0.17,-1.51,0.53c-0.38,0.35,-0.58,0.77,-0.58,1.26c0,0.31,0.08,0.63,0.24,0.94c0.16,0.31,0.39,0.61,0.68,0.9l1.49,1.24m-1,1.32c-0.5,0.42,-0.87,0.89,-1.12,1.39c-0.24,0.5,-0.36,1.04,-0.36,1.62c0,0.78,0.21,1.41,0.64,1.88c0.42,0.47,0.97,0.7,1.63,0.7c0.65,0,1.18,-0.18,1.57,-0.55c0.39,-0.37,0.59,-0.82,0.59,-1.35c0,-0.43,-0.11,-0.83,-0.34,-1.17c-0.43,-0.64,-1.3,-1.48,-2.62,-2.52m6.05,-0.22c0,-1.41,0.21,-2.62,0.63,-3.64c0.42,-1.01,0.99,-1.77,1.69,-2.27c0.54,-0.39,1.11,-0.59,1.69,-0.59c0.94,0,1.8,0.48,2.55,1.45c0.94,1.19,1.41,2.82,1.41,4.87c0,1.43,-0.2,2.65,-0.62,3.66c-0.41,1,-0.94,1.73,-1.58,2.18c-0.64,0.45,-1.26,0.68,-1.85,0.68c-1.18,0,-2.16,-0.69,-2.94,-2.09c-0.66,-1.17,-0.99,-2.59,-0.99,-4.24m1.78,0.22c0,1.7,0.21,3.09,0.63,4.17c0.34,0.9,0.86,1.36,1.55,1.36c0.32,0,0.66,-0.14,1.02,-0.44c0.35,-0.29,0.62,-0.78,0.8,-1.48c0.28,-1.04,0.42,-2.52,0.42,-4.42c0,-1.41,-0.14,-2.59,-0.43,-3.53c-0.21,-0.7,-0.5,-1.19,-0.84,-1.48c-0.24,-0.2,-0.55,-0.3,-0.9,-0.3c-0.41,0,-0.78,0.18,-1.1,0.55c-0.43,0.5,-0.73,1.29,-0.89,2.38c-0.15,1.08,-0.23,2.15,-0.23,3.2m7.61,-0.22c0,-1.41,0.21,-2.62,0.63,-3.64c0.42,-1.01,0.99,-1.77,1.69,-2.27c0.54,-0.39,1.11,-0.59,1.69,-0.59c0.94,0,1.8,0.48,2.55,1.45c0.94,1.19,1.41,2.82,1.41,4.87c0,1.43,-0.2,2.65,-0.62,3.66c-0.41,1,-0.94,1.73,-1.58,2.18c-0.64,0.45,-1.26,0.68,-1.85,0.68c-1.18,0,-2.16,-0.69,-2.94,-2.09c-0.66,-1.17,-0.99,-2.59,-0.99,-4.24m1.78,0.22c0,1.7,0.21,3.09,0.63,4.17c0.34,0.9,0.86,1.36,1.55,1.36c0.32,0,0.66,-0.14,1.02,-0.44c0.35,-0.29,0.62,-0.78,0.8,-1.48c0.28,-1.04,0.42,-2.52,0.42,-4.42c0,-1.41,-0.14,-2.59,-0.43,-3.53c-0.21,-0.7,-0.5,-1.19,-0.84,-1.48c-0.24,-0.2,-0.55,-0.3,-0.9,-0.3c-0.41,0,-0.78,0.18,-1.1,0.55c-0.43,0.5,-0.73,1.29,-0.89,2.38c-0.15,1.08,-0.23,2.15,-0.23,3.2" fill="#000000" stroke="none" fill-opacity="1"/>
<path d="m527.23,382.21l3.01,-1.47l0.3,0l0,10.45c0,0.69,0.02,1.12,0.08,1.29c0.05,0.17,0.17,0.3,0.36,0.39c0.18,0.09,0.55,0.14,1.11,0.15l0,0.33l-4.65,0l0,-0.33c0.58,-0.01,0.96,-0.06,1.13,-0.15c0.17,-0.08,0.28,-0.2,0.35,-0.35c0.06,-0.14,0.1,-0.59,0.1,-1.33l0,-6.68c0,-0.9,-0.03,-1.47,-0.09,-1.73c-0.04,-0.19,-0.12,-0.33,-0.23,-0.42c-0.11,-0.09,-0.24,-0.13,-0.4,-0.13c-0.22,0,-0.53,0.09,-0.94,0.28l-0.13,-0.28m7.88,5.04c0,-1.41,0.21,-2.62,0.63,-3.64c0.42,-1.01,0.99,-1.77,1.69,-2.27c0.54,-0.39,1.11,-0.59,1.69,-0.59c0.94,0,1.8,0.48,2.55,1.45c0.94,1.19,1.41,2.82,1.41,4.87c0,1.43,-0.2,2.65,-0.62,3.66c-0.41,1,-0.94,1.73,-1.58,2.18c-0.64,0.45,-1.26,0.68,-1.85,0.68c-1.18,0,-2.16,-0.69,-2.94,-2.09c-0.66,-1.17,-0.99,-2.59,-0.99,-4.24m1.78,0.22c0,1.7,0.21,3.09,0.63,4.17c0.34,0.9,0.86,1.36,1.55,1.36c0.32,0,0.66,-0.14,1.02,-0.44c0.35,-0.29,0.62,-0.78,0.8,-1.48c0.28,-1.04,0.42,-2.52,0.42,-4.42c0,-1.41,-0.14,-2.59,-0.43,-3.53c-0.21,-0.7,-0.5,-1.19,-0.84,-1.48c-0.24,-0.2,-0.55,-0.3,-0.9,-0.3c-0.41,0,-0.78,0.18,-1.1,0.55c-0.43,0.5,-0.73,1.29,-0.89,2.38c-0.15,1.08,-0.23,2.15,-0.23,3.2m7.61,-0.22c0,-1.41,0.21,-2.62,0.63,-3.64c0.42,-1.01,0.99,-1.77,1.69,-2.27c0.54,-0.39,1.11,-0.59,1.69,-0.59c0.94,0,1.8,0.48,2.55,1.45c0.94,1.19,1.41,2.82,1.41,4.87c0,1.43,-0.2,2.65,-0.62,3.66c-0.41,1,-0.94,1.73,-1.58,2.18c-0.64,0.45,-1.26,0.68,-1.85,0.68c-1.18,0,-2.16,-0.69,-2.94,-2.09c-0.66,-1.17,-0.99,-2.59,-0.99,-4.24m1.78,0.22c0,1.7,0.21,3.09,0.63,4.17c0.34,0.9,0.86,1.36,1.55,1.36c0.32,0,0.66,-0.14,1.02,-0.44c0.35,-0.29,0.62,-0.78,0.8,-1.48c0.28,-1.04,0.42,-2.52,0.42,-4.42c0,-1.41,-0.14,-2.59,-0.43,-3.53c-0.21,-0.7,-0.5,-1.19,-0.84,-1.48c-0.24,-0.2,-0.55,-0.3,-0.9,-0.3c-0.41,0,-0.78,0.18,-1.1,0.55c-0.43,0.5,-0.73,1.29,-0.89,2.38c-0.15,1.08,-0.23,2.15,-0.23,3.2m7.61,-0.22c0,-1.41,0.21,-2.62,0.63,-3.64c0.42,-1.01,0.99,-1.77,1.69,-2.27c0.54,-0.39,1.11,-0.59,1.69,-0.59c0.94,0,1.8,0.48,2.55,1.45c0.94,1.19,1.41,2.82,1.41,4.87c0,1.43,-0.2,2.65,-0.62,3.66c-0.41,1,-0.94,1.73,-1.58,2.18c-0.64,0.45,-1.26,0.68,-1.85,0.68c-1.18,0,-2.16,-0.69,-2.94,-2.09c-0.66,-1.17,-0.99,-2.59,-0.99,-4.24m1.78,0.22c0,1.7,0.21,3.09,0.63,4.17c0.34,0.9,0.86,1.36,1.55,1.36c0.32,0,0.66,-0.14,1.02,-0.44c0.35,-0.29,0.62,-0.78,0.8,-1.48c0.28,-1.04,0.42,-2.52,0.42,-4.42c0,-1.41,-0.14,-2.59,-0.43,-3.53c-0.21,-0.7,-0.5,-1.19,-0.84,-1.48c-0.24,-0.2,-0.55,-0.3,-0.9,-0.3c-0.41,0,-0.78,0.18,-1.1,0.55c-0.43,0.5,-0.73,1.29,-0.89,2.38c-0.15,1.08,-0.23,2.15,-0.23,3.2" fill="#000000" stroke="none" fill-opacity="1"/>
</g>
<g fill="none" stroke-linecap="butt" stroke-width="0.66">
<path d="M64.25,7.55l495.11,0"/>
<path d="M64.25,7.55l0,4M94.22,7.55l0,4M124.2,7.55l0,4M154.17,7.55l0,4M184.14,7.55l0,4M214.12,7.55l0,4M244.09,7.55l0,4M274.07,7.55l0,4M304.04,7.55l0,4M334.02,7.55l0,4M363.99,7.55l0,4M393.96,7.55l0,4M423.94,7.55l0,4M453.91,7.55l0,4M483.89,7.55l0,4M513.86,7.55l0,4M543.84,7.55l0,4"/>
<path d="M64.25,7.55l0,8M184.14,7.55l0,8M304.04,7.55l0,8M423.94,7.55l0,8M543.84,7.55l0,8"/>
</g>
</g>
</g>
</svg>
