<?xml version="1.0" standalone="no"?>
<!DOCTYPE svg PUBLIC "-//W3C//DTD SVG 1.1//EN"
  "http://www.w3.org/Graphics/SVG/1.1/DTD/svg11.dtd">
<svg width="566.92px" height="415.74px" version="1.1"
    xmlns="http://www.w3.org/2000/svg"
    xmlns:xlink="http://www.w3.org/1999/xlink">
<desc>Veusz output document</desc>
<defs>
<clipPath id="c0">
<path d="m0,0l566.92,0l0,415.74l-566.92,0l0,-415.74"/>
</clipPath>
<clipPath id="c1">
<path d="m64.25,7.55l495.11,0l0,343.93l-495.11,0l0,-343.93"/>
</clipPath>
</defs>
<g stroke-linejoin="bevel" stroke-linecap="square" stroke="#000000" fill-rule="evenodd">
<g clip-path="url(#c0)">
<g fill="#ffffff" stroke-width="0.66">
<path d="m64.25,7.55l495.11,0l0,343.93l-495.11,0l0,-343.93"/>
</g>
</g>
<g clip-path="url(#c1)">
<g fill="none" stroke="#e41a1c" stroke-width="0.66">
<polyline fill="none" points="220.25,351.22 228.51,350.08 236.76,345.53 245.01,331.29 253.26,296.69 261.51,232.38 269.77,144.11 278.02,62.24 286.27,28.32 294.52,62.24 302.77,144.11 311.03,232.38 319.28,296.69 327.53,331.29 335.78,345.53 344.03,350.08 352.29,351.22"/>
</g>
<g fill="#e41a1c" stroke-linejoin="miter" stroke-width="0.66">
<g transform="translate(220.25,351.22)">
<path d="m4,0c0,2.2,-1.79,4,-4,4c-2.2,0,-4,-1.79,-4,-4c0,-2.2,1.79,-4,4,-4c2.2,0,4,1.79,4,4" id="p0"/>
</g>
<use xlink:href="#p0" x="228.51" y="350.08"/>
<use xlink:href="#p0" x="236.76" y="345.53"/>
<use xlink:href="#p0" x="245.01" y="331.29"/>
<use xlink:href="#p0" x="253.26" y="296.69"/>
<use xlink:href="#p0" x="261.51" y="232.38"/>
<use xlink:href="#p0" x="269.77" y="144.11"/>
<use xlink:href="#p0" x="278.02" y="62.24"/>
<use xlink:href="#p0" x="286.27" y="28.32"/>
<use xlink:href="#p0" x="294.52" y="62.24"/>
<use xlink:href="#p0" x="302.77" y="144.11"/>
<use xlink:href="#p0" x="311.03" y="232.38"/>
<use xlink:href="#p0" x="319.28" y="296.69"/>
<use xlink:href="#p0" x="327.53" y="331.29"/>
<use xlink:href="#p0" x="335.78" y="345.53"/>
<use xlink:href="#p0" x="344.03" y="350.08"/>
<use xlink:href="#p0" x="352.29" y="351.22"/>
</g>
</g>
<g clip-path="url(#c0)">
<g fill="none" stroke-linecap="butt" stroke-width="0.66">
<path d="M64.25,351.49l0,-343.93"/>
<path d="M64.25,351.49l4,0M64.25,334.29l4,0M64.25,317.1l4,0M64.25,299.9l4,0M64.25,282.7l4,0M64.25,265.51l4,0M64.25,248.31l4,0M64.25,231.11l4,0M64.25,213.92l4,0M64.25,196.72l4,0M64.25,179.52l4,0M64.25,162.33l4,0M64.25,145.13l4,0M64.25,127.93l4,0M64.25,110.74l4,0M64.25,93.54l4,0M64.25,76.34l4,0M64.25,59.14l4,0M64.25,41.95l4,0M64.25,24.75l4,0M64.25,7.55l4,0"/>
<path d="M64.25,351.49l8,0M64.25,265.51l8,0M64.25,179.52l8,0M64.25,93.54l8,0M64.25,7.55l8,0"/>
</g>
<g fill="none" stroke-width="0.1">
<g transform="matrix(0 -1 1 0 16.66 231.97)">
<path d="m5.77,-0.33l0,0.33l-5.3,0l0,-0.33l0.43,0c0.51,0,0.88,-0.14,1.11,-0.44c0.14,-0.19,0.21,-0.66,0.21,-1.4l0,-7.99c0,-0.62,-0.03,-1.04,-0.11,-1.24c-0.06,-0.15,-0.18,-0.28,-0.37,-0.39c-0.26,-0.14,-0.54,-0.21,-0.84,-0.21l-0.43,0l0,-0.33l5.3,0l0,0.33l-0.44,0c-0.5,0,-0.87,0.14,-1.1,0.44c-0.15,0.19,-0.22,0.66,-0.22,1.4l0,7.99c0,0.62,0.03,1.04,0.11,1.24c0.06,0.15,0.18,0.28,0.38,0.39c0.26,0.14,0.53,0.21,0.83,0.21l0.44,0m3.47,-6.5c0.98,-1.18,1.91,-1.77,2.8,-1.77c0.45,0,0.84,0.11,1.17,0.34c0.32,0.22,0.59,0.6,0.78,1.12c0.13,0.36,0.2,0.92,0.2,1.68l0,3.57c0,0.52,0.04,0.88,0.12,1.07c0.06,0.15,0.17,0.27,0.32,0.35c0.14,0.08,0.42,0.12,0.82,0.12l0,0.32l-4.13,0l0,-0.32l0.17,0c0.38,0,0.66,-0.05,0.81,-0.17c0.15,-0.11,0.26,-0.29,0.32,-0.52c0.02,-0.09,0.03,-0.37,0.03,-0.85l0,-3.42c0,-0.76,-0.09,-1.31,-0.29,-1.65c-0.19,-0.34,-0.53,-0.51,-0.99,-0.51c-0.72,0,-1.44,0.39,-2.16,1.18l0,4.41c0,0.56,0.03,0.91,0.1,1.05c0.08,0.17,0.2,0.3,0.35,0.38c0.14,0.08,0.45,0.12,0.9,0.12l0,0.32l-4.13,0l0,-0.32l0.18,0c0.42,0,0.71,-0.1,0.86,-0.32c0.14,-0.21,0.22,-0.62,0.22,-1.23l0,-3.1c0,-1,-0.02,-1.61,-0.06,-1.83c-0.04,-0.21,-0.11,-0.36,-0.21,-0.44c-0.09,-0.07,-0.22,-0.11,-0.37,-0.11c-0.17,0,-0.37,0.04,-0.61,0.13l-0.13,-0.32l2.52,-1.02l0.39,0l0,1.77m9.34,-4.27l0,2.74l1.95,0l0,0.63l-1.95,0l0,5.42c0,0.54,0.07,0.9,0.23,1.09c0.15,0.18,0.35,0.28,0.59,0.28c0.2,0,0.39,-0.06,0.58,-0.18c0.18,-0.12,0.33,-0.3,0.43,-0.55l0.35,0c-0.21,0.59,-0.51,1.04,-0.9,1.34c-0.38,0.3,-0.79,0.45,-1.2,0.45c-0.28,0,-0.55,-0.07,-0.82,-0.23c-0.26,-0.15,-0.46,-0.37,-0.59,-0.66c-0.12,-0.28,-0.19,-0.73,-0.19,-1.33l0,-5.62l-1.32,0l0,-0.3c0.33,-0.13,0.67,-0.36,1.02,-0.68c0.35,-0.31,0.66,-0.69,0.93,-1.13c0.14,-0.23,0.33,-0.65,0.58,-1.26l0.28,0m4.17,5.89c0,1.24,0.29,2.21,0.9,2.92c0.6,0.7,1.32,1.05,2.14,1.05c0.54,0,1.02,-0.15,1.42,-0.45c0.4,-0.3,0.74,-0.81,1.01,-1.54l0.28,0.18c-0.12,0.83,-0.49,1.59,-1.11,2.27c-0.61,0.68,-1.38,1.02,-2.31,1.02c-1,0,-1.86,-0.39,-2.57,-1.17c-0.71,-0.78,-1.07,-1.83,-1.07,-3.15c0,-1.43,0.36,-2.54,1.1,-3.34c0.73,-0.8,1.65,-1.2,2.76,-1.2c0.93,0,1.7,0.3,2.31,0.92c0.6,0.61,0.9,1.44,0.9,2.47l-5.77,0m0,-0.52l3.87,0c-0.03,-0.53,-0.09,-0.91,-0.19,-1.13c-0.15,-0.34,-0.37,-0.6,-0.68,-0.8c-0.3,-0.19,-0.61,-0.29,-0.94,-0.29c-0.5,0,-0.95,0.19,-1.35,0.58c-0.39,0.39,-0.63,0.93,-0.69,1.63m9.33,-1.09c0.98,-1.18,1.91,-1.77,2.8,-1.77c0.45,0,0.84,0.11,1.17,0.34c0.32,0.22,0.59,0.6,0.78,1.12c0.13,0.36,0.2,0.92,0.2,1.68l0,3.57c0,0.52,0.04,0.88,0.12,1.07c0.06,0.15,0.17,0.27,0.32,0.35c0.14,0.08,0.42,0.12,0.82,0.12l0,0.32l-4.13,0l0,-0.32l0.17,0c0.38,0,0.66,-0.05,0.81,-0.17c0.15,-0.11,0.26,-0.29,0.32,-0.52c0.02,-0.09,0.03,-0.37,0.03,-0.85l0,-3.42c0,-0.76,-0.09,-1.31,-0.29,-1.65c-0.19,-0.34,-0.53,-0.51,-0.99,-0.51c-0.72,0,-1.44,0.39,-2.16,1.18l0,4.41c0,0.56,0.03,0.91,0.1,1.05c0.08,0.17,0.2,0.3,0.35,0.38c0.14,0.08,0.45,0.12,0.9,0.12l0,0.32l-4.13,0l0,-0.32l0.18,0c0.42,0,0.71,-0.1,0.86,-0.32c0.14,-0.21,0.22,-0.62,0.22,-1.23l0,-3.1c0,-1,-0.02,-1.61,-0.06,-1.83c-0.04,-0.21,-0.11,-0.36,-0.21,-0.44c-0.09,-0.07,-0.22,-0.11,-0.37,-0.11c-0.17,0,-0.37,0.04,-0.61,0.13l-0.13,-0.32l2.52,-1.02l0.39,0l0,1.77m12.31,-1.77l0,2.84l-0.3,0c-0.23,-0.89,-0.52,-1.5,-0.89,-1.82c-0.36,-0.32,-0.82,-0.48,-1.38,-0.48c-0.42,0,-0.77,0.11,-1.03,0.33c-0.26,0.22,-0.39,0.47,-0.39,0.74c0,0.34,0.09,0.63,0.29,0.87c0.18,0.24,0.57,0.51,1.15,0.79l1.33,0.64c1.23,0.6,1.85,1.39,1.85,2.38c0,0.76,-0.28,1.37,-0.86,1.83c-0.57,0.46,-1.21,0.69,-1.93,0.69c-0.51,0,-1.09,-0.09,-1.75,-0.27c-0.2,-0.06,-0.36,-0.09,-0.49,-0.09c-0.14,0,-0.24,0.07,-0.32,0.23l-0.3,0l0,-2.98l0.3,0c0.17,0.85,0.49,1.49,0.97,1.92c0.48,0.43,1.01,0.64,1.61,0.64c0.42,0,0.76,-0.12,1.02,-0.36c0.26,-0.24,0.39,-0.54,0.39,-0.89c0,-0.42,-0.14,-0.77,-0.44,-1.05c-0.29,-0.28,-0.88,-0.64,-1.76,-1.08c-0.88,-0.43,-1.46,-0.83,-1.73,-1.18c-0.27,-0.34,-0.41,-0.78,-0.41,-1.31c0,-0.68,0.23,-1.26,0.7,-1.72c0.47,-0.46,1.08,-0.69,1.83,-0.69c0.32,0,0.72,0.07,1.19,0.21c0.31,0.09,0.51,0.13,0.62,0.13c0.09,0,0.17,-0.02,0.22,-0.06c0.05,-0.04,0.11,-0.13,0.19,-0.28l0.3,0m3.99,-4.37c0.25,0,0.47,0.08,0.65,0.26c0.17,0.17,0.26,0.39,0.26,0.65c0,0.25,-0.08,0.47,-0.26,0.65c-0.17,0.18,-0.39,0.27,-0.65,0.27c-0.25,0,-0.47,-0.09,-0.65,-0.27c-0.18,-0.18,-0.27,-0.4,-0.27,-0.65c0,-0.25,0.08,-0.47,0.26,-0.65c0.17,-0.17,0.4,-0.26,0.66,-0.26m0.75,4.37l0,6.72c0,0.52,0.03,0.87,0.11,1.04c0.07,0.17,0.18,0.3,0.33,0.38c0.14,0.08,0.42,0.12,0.81,0.12l0,0.32l-4.06,0l0,-0.32c0.4,0,0.68,-0.03,0.82,-0.11c0.14,-0.07,0.25,-0.21,0.33,-0.39c0.08,-0.18,0.12,-0.53,0.12,-1.05l0,-3.22c0,-0.9,-0.02,-1.49,-0.08,-1.76c-0.04,-0.19,-0.1,-0.33,-0.2,-0.4c-0.09,-0.07,-0.21,-0.11,-0.37,-0.11c-0.17,0,-0.37,0.04,-0.62,0.13l-0.12,-0.32l2.52,-1.02l0.4,0m4.73,-2.5l0,2.74l1.95,0l0,0.63l-1.95,0l0,5.42c0,0.54,0.07,0.9,0.23,1.09c0.15,0.18,0.35,0.28,0.59,0.28c0.2,0,0.39,-0.06,0.58,-0.18c0.18,-0.12,0.33,-0.3,0.43,-0.55l0.35,0c-0.21,0.59,-0.51,1.04,-0.9,1.34c-0.38,0.3,-0.79,0.45,-1.2,0.45c-0.28,0,-0.55,-0.07,-0.82,-0.23c-0.26,-0.15,-0.46,-0.37,-0.59,-0.66c-0.12,-0.28,-0.19,-0.73,-0.19,-1.33l0,-5.62l-1.32,0l0,-0.3c0.33,-0.13,0.67,-0.36,1.02,-0.68c0.35,-0.31,0.66,-0.69,0.93,-1.13c0.14,-0.23,0.33,-0.65,0.58,-1.26l0.28,0m2.29,2.74l3.89,0l0,0.33l-0.19,0c-0.27,0,-0.47,0.05,-0.61,0.17c-0.13,0.11,-0.2,0.26,-0.2,0.44c0,0.23,0.1,0.56,0.3,0.98l2.03,4.21l1.87,-4.62c0.1,-0.24,0.15,-0.49,0.15,-0.73c0,-0.1,-0.02,-0.19,-0.06,-0.24c-0.04,-0.06,-0.12,-0.12,-0.22,-0.15c-0.1,-0.03,-0.28,-0.05,-0.54,-0.05l0,-0.33l2.72,0l0,0.33c-0.22,0.02,-0.39,0.07,-0.52,0.14c-0.12,0.07,-0.25,0.21,-0.4,0.41c-0.05,0.08,-0.15,0.31,-0.31,0.7l-3.4,8.34c-0.32,0.8,-0.75,1.42,-1.29,1.83c-0.53,0.41,-1.04,0.62,-1.53,0.62c-0.35,0,-0.65,-0.1,-0.88,-0.31c-0.23,-0.2,-0.34,-0.44,-0.34,-0.71c0,-0.25,0.08,-0.46,0.25,-0.61c0.16,-0.15,0.39,-0.23,0.68,-0.23c0.2,0,0.47,0.06,0.82,0.2c0.24,0.09,0.39,0.13,0.45,0.13c0.18,0,0.38,-0.09,0.59,-0.28c0.21,-0.18,0.43,-0.55,0.65,-1.09l0.59,-1.45l-3,-6.3c-0.09,-0.18,-0.23,-0.42,-0.43,-0.7c-0.15,-0.21,-0.27,-0.35,-0.37,-0.42c-0.14,-0.09,-0.36,-0.18,-0.67,-0.25l0,-0.33m15.04,12.02l0,0.33c-0.91,-0.46,-1.68,-1,-2.3,-1.62c-0.87,-0.88,-1.55,-1.92,-2.02,-3.12c-0.47,-1.19,-0.71,-2.44,-0.71,-3.73c0,-1.88,0.46,-3.6,1.39,-5.16c0.93,-1.55,2.14,-2.66,3.64,-3.33l0,0.38c-0.74,0.41,-1.36,0.98,-1.84,1.69c-0.48,0.71,-0.84,1.62,-1.07,2.73c-0.23,1.1,-0.35,2.25,-0.35,3.45c0,1.3,0.1,2.48,0.3,3.55c0.15,0.84,0.35,1.51,0.57,2.02c0.22,0.5,0.52,0.99,0.9,1.46c0.38,0.46,0.87,0.91,1.49,1.34m5.74,-4.86c-0.85,0.66,-1.39,1.04,-1.61,1.15c-0.32,0.15,-0.67,0.22,-1.05,0.22c-0.57,0,-1.05,-0.19,-1.42,-0.59c-0.37,-0.39,-0.56,-0.91,-0.56,-1.56c0,-0.4,0.09,-0.76,0.27,-1.05c0.24,-0.41,0.68,-0.8,1.3,-1.16c0.61,-0.36,1.64,-0.8,3.08,-1.33l0,-0.32c0,-0.83,-0.13,-1.4,-0.39,-1.71c-0.26,-0.31,-0.64,-0.46,-1.15,-0.46c-0.38,0,-0.68,0.1,-0.91,0.31c-0.23,0.2,-0.34,0.44,-0.34,0.71l0.01,0.52c0,0.28,-0.07,0.49,-0.21,0.64c-0.14,0.15,-0.33,0.22,-0.56,0.22c-0.22,0,-0.4,-0.07,-0.55,-0.23c-0.14,-0.15,-0.21,-0.37,-0.21,-0.64c0,-0.52,0.26,-1,0.8,-1.44c0.53,-0.43,1.28,-0.65,2.25,-0.65c0.74,0,1.35,0.12,1.82,0.37c0.35,0.18,0.62,0.48,0.79,0.88c0.1,0.26,0.16,0.79,0.16,1.6l0,2.83c0,0.79,0.01,1.28,0.04,1.46c0.03,0.17,0.08,0.29,0.15,0.36c0.07,0.06,0.15,0.09,0.24,0.09c0.09,0,0.18,-0.02,0.25,-0.06c0.12,-0.07,0.37,-0.3,0.73,-0.66l0,0.51c-0.68,0.91,-1.33,1.36,-1.95,1.36c-0.29,0,-0.53,-0.1,-0.71,-0.31c-0.17,-0.2,-0.26,-0.56,-0.27,-1.05m0,-0.59l0,-3.18c-0.91,0.36,-1.51,0.62,-1.78,0.77c-0.48,0.26,-0.82,0.54,-1.03,0.84c-0.2,0.29,-0.31,0.61,-0.31,0.95c0,0.43,0.13,0.8,0.39,1.09c0.26,0.28,0.56,0.43,0.9,0.43c0.46,0,1.07,-0.3,1.82,-0.91m5.31,0.02c0.28,0,0.52,0.09,0.72,0.29c0.19,0.19,0.29,0.43,0.29,0.71c0,0.28,-0.09,0.51,-0.29,0.71c-0.19,0.19,-0.43,0.29,-0.71,0.29c-0.28,0,-0.51,-0.09,-0.71,-0.29c-0.19,-0.19,-0.29,-0.43,-0.29,-0.71c0,-0.28,0.09,-0.52,0.29,-0.72c0.19,-0.19,0.43,-0.29,0.71,-0.29m10.25,-6.59l0,5.06c0,0.96,0.02,1.55,0.06,1.77c0.04,0.21,0.11,0.36,0.21,0.45c0.1,0.08,0.21,0.12,0.35,0.12c0.18,0,0.4,-0.05,0.63,-0.15l0.12,0.31l-2.5,1.03l-0.41,0l0,-1.77c-0.71,0.77,-1.26,1.26,-1.64,1.47c-0.37,0.2,-0.77,0.3,-1.19,0.3c-0.46,0,-0.87,-0.13,-1.21,-0.4c-0.34,-0.27,-0.58,-0.61,-0.71,-1.04c-0.13,-0.42,-0.2,-1.02,-0.2,-1.8l0,-3.73c0,-0.39,-0.04,-0.66,-0.12,-0.82c-0.08,-0.15,-0.21,-0.26,-0.37,-0.35c-0.16,-0.08,-0.47,-0.12,-0.9,-0.11l0,-0.33l2.93,0l0,5.59c0,0.77,0.13,1.29,0.4,1.53c0.27,0.24,0.59,0.36,0.98,0.36c0.26,0,0.55,-0.08,0.89,-0.24c0.33,-0.16,0.72,-0.47,1.18,-0.94l0,-4.73c0,-0.47,-0.08,-0.79,-0.26,-0.96c-0.17,-0.16,-0.53,-0.25,-1.08,-0.26l0,-0.33l2.84,0m3.77,6.59c0.28,0,0.52,0.09,0.72,0.29c0.19,0.19,0.29,0.43,0.29,0.71c0,0.28,-0.09,0.51,-0.29,0.71c-0.19,0.19,-0.43,0.29,-0.71,0.29c-0.28,0,-0.51,-0.09,-0.71,-0.29c-0.19,-0.19,-0.29,-0.43,-0.29,-0.71c0,-0.28,0.09,-0.52,0.29,-0.72c0.19,-0.19,0.43,-0.29,0.71,-0.29m2.75,-10.82l0,-0.38c0.92,0.45,1.69,0.99,2.31,1.61c0.87,0.88,1.54,1.93,2.01,3.12c0.47,1.19,0.71,2.44,0.71,3.73c0,1.88,-0.46,3.6,-1.39,5.16c-0.92,1.55,-2.14,2.66,-3.64,3.33l0,-0.33c0.74,-0.42,1.36,-0.98,1.84,-1.7c0.48,-0.71,0.84,-1.62,1.07,-2.73c0.23,-1.1,0.35,-2.25,0.35,-3.45c0,-1.29,-0.1,-2.48,-0.3,-3.55c-0.15,-0.84,-0.34,-1.51,-0.57,-2.01c-0.22,-0.5,-0.53,-0.99,-0.9,-1.46c-0.37,-0.46,-0.87,-0.91,-1.49,-1.34" fill="#000000" stroke="none" fill-opacity="1"/>
</g>
<path d="m50.73,351.8c0,-1.41,0.21,-2.62,0.63,-3.64c0.42,-1.01,0.99,-1.77,1.69,-2.27c0.54,-0.39,1.11,-0.59,1.69,-0.59c0.94,0,1.8,0.48,2.55,1.45c0.94,1.19,1.41,2.82,1.41,4.87c0,1.43,-0.2,2.65,-0.62,3.66c-0.41,1,-0.94,1.73,-1.58,2.18c-0.64,0.45,-1.26,0.68,-1.85,0.68c-1.18,0,-2.16,-0.69,-2.94,-2.09c-0.66,-1.17,-0.99,-2.59,-0.99,-4.24m1.78,0.22c0,1.7,0.21,3.09,0.63,4.17c0.34,0.9,0.86,1.36,1.55,1.36c0.32,0,0.66,-0.14,1.02,-0.44c0.35,-0.29,0.62,-0.78,0.8,-1.48c0.28,-1.04,0.42,-2.52,0.42,-4.42c0,-1.41,-0.14,-2.59,-0.43,-3.53c-0.21,-0.7,-0.5,-1.19,-0.84,-1.48c-0.24,-0.2,-0.55,-0.3,-0.9,-0.3c-0.41,0,-0.78,0.18,-1.1,0.55c-0.43,0.5,-0.73,1.29,-0.89,2.38c-0.15,1.08,-0.23,2.15,-0.23,3.2" fill="#000000" stroke="none" fill-opacity="1"/>
<path d="m27.36,265.82c0,-1.41,0.21,-2.62,0.63,-3.64c0.42,-1.01,0.99,-1.77,1.69,-2.27c0.54,-0.39,1.11,-0.59,1.69,-0.59c0.94,0,1.8,0.48,2.55,1.45c0.94,1.19,1.41,2.82,1.41,4.87c0,1.43,-0.2,2.65,-0.62,3.66c-0.41,1,-0.94,1.73,-1.58,2.18c-0.64,0.45,-1.26,0.68,-1.85,0.68c-1.18,0,-2.16,-0.69,-2.94,-2.09c-0.66,-1.17,-0.99,-2.59,-0.99,-4.24m1.78,0.22c0,1.7,0.21,3.09,0.63,4.17c0.34,0.9,0.86,1.36,1.55,1.36c0.32,0,0.66,-0.14,1.02,-0.44c0.35,-0.29,0.62,-0.78,0.8,-1.48c0.28,-1.04,0.42,-2.52,0.42,-4.42c0,-1.41,-0.14,-2.59,-0.43,-3.53c-0.21,-0.7,-0.5,-1.19,-0.84,-1.48c-0.24,-0.2,-0.55,-0.3,-0.9,-0.3c-0.41,0,-0.78,0.18,-1.1,0.55c-0.43,0.5,-0.73,1.29,-0.89,2.38c-0.15,1.08,-0.23,2.15,-0.23,3.2m9.22,4.11c0.28,0,0.52,0.09,0.72,0.29c0.19,0.19,0.29,0.43,0.29,0.71c0,0.28,-0.09,0.51,-0.29,0.71c-0.19,0.19,-0.43,0.29,-0.71,0.29c-0.28,0,-0.51,-0.09,-0.71,-0.29c-0.19,-0.19,-0.29,-0.43,-0.29,-0.71c0,-0.28,0.09,-0.52,0.29,-0.72c0.19,-0.19,0.43,-0.29,0.71,-0.29m3.01,-4.34c0,-1.41,0.21,-2.62,0.63,-3.64c0.42,-1.01,0.99,-1.77,1.69,-2.27c0.54,-0.39,1.11,-0.59,1.69,-0.59c0.94,0,1.8,0.48,2.55,1.45c0.94,1.19,1.41,2.82,1.41,4.87c0,1.43,-0.2,2.65,-0.62,3.66c-0.41,1,-0.94,1.73,-1.58,2.18c-0.64,0.45,-1.26,0.68,-1.85,0.68c-1.18,0,-2.16,-0.69,-2.94,-2.09c-0.66,-1.17,-0.99,-2.59,-0.99,-4.24m1.78,0.22c0,1.7,0.21,3.09,0.63,4.17c0.34,0.9,0.86,1.36,1.55,1.36c0.32,0,0.66,-0.14,1.02,-0.44c0.35,-0.29,0.62,-0.78,0.8,-1.48c0.28,-1.04,0.42,-2.52,0.42,-4.42c0,-1.41,-0.14,-2.59,-0.43,-3.53c-0.21,-0.7,-0.5,-1.19,-0.84,-1.48c-0.24,-0.2,-0.55,-0.3,-0.9,-0.3c-0.41,0,-0.78,0.18,-1.1,0.55c-0.43,0.5,-0.73,1.29,-0.89,2.38c-0.15,1.08,-0.23,2.15,-0.23,3.2m15,-6.49l-0.71,1.55l-3.72,0l-0.81,1.66c1.61,0.23,2.89,0.83,3.83,1.79c0.8,0.82,1.21,1.8,1.21,2.92c0,0.65,-0.13,1.25,-0.39,1.8c-0.26,0.55,-0.59,1.02,-0.99,1.41c-0.4,0.38,-0.84,0.7,-1.34,0.94c-0.7,0.33,-1.41,0.5,-2.15,0.5c-0.74,0,-1.28,-0.12,-1.62,-0.37c-0.33,-0.25,-0.5,-0.53,-0.5,-0.83c0,-0.17,0.07,-0.32,0.21,-0.45c0.14,-0.13,0.31,-0.19,0.52,-0.19c0.15,0,0.29,0.02,0.41,0.07c0.11,0.04,0.32,0.17,0.6,0.37c0.45,0.31,0.91,0.47,1.38,0.47c0.71,0,1.33,-0.26,1.87,-0.8c0.53,-0.53,0.8,-1.19,0.8,-1.96c0,-0.74,-0.24,-1.44,-0.72,-2.09c-0.48,-0.64,-1.14,-1.14,-1.99,-1.5c-0.66,-0.27,-1.56,-0.43,-2.71,-0.47l2.37,-4.81l4.43,0" fill="#000000" stroke="none" fill-opacity="1"/>
<path d="m36.71,179.83c0,-1.41,0.21,-2.62,0.63,-3.64c0.42,-1.01,0.99,-1.77,1.69,-2.27c0.54,-0.39,1.11,-0.59,1.69,-0.59c0.94,0,1.8,0.48,2.55,1.45c0.94,1.19,1.41,2.82,1.41,4.87c0,1.43,-0.2,2.65,-0.62,3.66c-0.41,1,-0.94,1.73,-1.58,2.18c-0.64,0.45,-1.26,0.68,-1.85,0.68c-1.18,0,-2.16,-0.69,-2.94,-2.09c-0.66,-1.17,-0.99,-2.59,-0.99,-4.24m1.78,0.22c0,1.7,0.21,3.09,0.63,4.17c0.34,0.9,0.86,1.36,1.55,1.36c0.32,0,0.66,-0.14,1.02,-0.44c0.35,-0.29,0.62,-0.78,0.8,-1.48c0.28,-1.04,0.42,-2.52,0.42,-4.42c0,-1.41,-0.14,-2.59,-0.43,-3.53c-0.21,-0.7,-0.5,-1.19,-0.84,-1.48c-0.24,-0.2,-0.55,-0.3,-0.9,-0.3c-0.41,0,-0.78,0.18,-1.1,0.55c-0.43,0.5,-0.73,1.29,-0.89,2.38c-0.15,1.08,-0.23,2.15,-0.23,3.2m9.22,4.11c0.28,0,0.52,0.09,0.72,0.29c0.19,0.19,0.29,0.43,0.29,0.71c0,0.28,-0.09,0.51,-0.29,0.71c-0.19,0.19,-0.43,0.29,-0.71,0.29c-0.28,0,-0.51,-0.09,-0.71,-0.29c-0.19,-0.19,-0.29,-0.43,-0.29,-0.71c0,-0.28,0.09,-0.52,0.29,-0.72c0.19,-0.19,0.43,-0.29,0.71,-0.29m4.52,-9.39l3.01,-1.47l0.3,0l0,10.45c0,0.69,0.02,1.12,0.08,1.29c0.05,0.17,0.17,0.3,0.36,0.39c0.18,0.09,0.55,0.14,1.11,0.15l0,0.33l-4.65,0l0,-0.33c0.58,-0.01,0.96,-0.06,1.13,-0.15c0.17,-0.08,0.28,-0.2,0.35,-0.35c0.06,-0.14,0.1,-0.59,0.1,-1.33l0,-6.68c0,-0.9,-0.03,-1.47,-0.09,-1.73c-0.04,-0.19,-0.12,-0.33,-0.23,-0.42c-0.11,-0.09,-0.24,-0.13,-0.4,-0.13c-0.22,0,-0.53,0.09,-0.94,0.28l-0.13,-0.28" fill="#000000" stroke="none" fill-opacity="1"/>
<path d="m27.36,93.85c0,-1.41,0.21,-2.62,0.63,-3.64c0.42,-1.01,0.99,-1.77,1.69,-2.27c0.54,-0.39,1.11,-0.59,1.69,-0.59c0.94,0,1.8,0.48,2.55,1.45c0.94,1.19,1.41,2.82,1.41,4.87c0,1.43,-0.2,2.65,-0.62,3.66c-0.41,1,-0.94,1.73,-1.58,2.18c-0.64,0.45,-1.26,0.68,-1.85,0.68c-1.18,0,-2.16,-0.69,-2.94,-2.09c-0.66,-1.17,-0.99,-2.59,-0.99,-4.24m1.78,0.22c0,1.7,0.21,3.09,0.63,4.17c0.34,0.9,0.86,1.36,1.55,1.36c0.32,0,0.66,-0.14,1.02,-0.44c0.35,-0.29,0.62,-0.78,0.8,-1.48c0.28,-1.04,0.42,-2.52,0.42,-4.42c0,-1.41,-0.14,-2.59,-0.43,-3.53c-0.21,-0.7,-0.5,-1.19,-0.84,-1.48c-0.24,-0.2,-0.55,-0.3,-0.9,-0.3c-0.41,0,-0.78,0.18,-1.1,0.55c-0.43,0.5,-0.73,1.29,-0.89,2.38c-0.15,1.08,-0.23,2.15,-0.23,3.2m9.22,4.11c0.28,0,0.52,0.09,0.72,0.29c0.19,0.19,0.29,0.43,0.29,0.71c0,0.28,-0.09,0.51,-0.29,0.71c-0.19,0.19,-0.43,0.29,-0.71,0.29c-0.28,0,-0.51,-0.09,-0.71,-0.29c-0.19,-0.19,-0.29,-0.43,-0.29,-0.71c0,-0.28,0.09,-0.52,0.29,-0.72c0.19,-0.19,0.43,-0.29,0.71,-0.29m4.52,-9.39l3.01,-1.47l0.3,0l0,10.45c0,0.69,0.02,1.12,0.08,1.29c0.05,0.17,0.17,0.3,0.36,0.39c0.18,0.09,0.55,0.14,1.11,0.15l0,0.33l-4.65,0l0,-0.33c0.58,-0.01,0.96,-0.06,1.13,-0.15c0.17,-0.08,0.28,-0.2,0.35,-0.35c0.06,-0.14,0.1,-0.59,0.1,-1.33l0,-6.68c0,-0.9,-0.03,-1.47,-0.09,-1.73c-0.04,-0.19,-0.12,-0.33,-0.23,-0.42c-0.11,-0.09,-0.24,-0.13,-0.4,-0.13c-0.22,0,-0.53,0.09,-0.94,0.28l-0.13,-0.28m15.27,-1.21l-0.71,1.55l-3.72,0l-0.81,1.66c1.61,0.23,2.89,0.83,3.83,1.79c0.8,0.82,1.21,1.8,1.21,2.92c0,0.65,-0.13,1.25,-0.39,1.8c-0.26,0.55,-0.59,1.02,-0.99,1.41c-0.4,0.38,-0.84,0.7,-1.34,0.94c-0.7,0.33,-1.41,0.5,-2.15,0.5c-0.74,0,-1.28,-0.12,-1.62,-0.37c-0.33,-0.25,-0.5,-0.53,-0.5,-0.83c0,-0.17,0.07,-0.32,0.21,-0.45c0.14,-0.13,0.31,-0.19,0.52,-0.19c0.15,0,0.29,0.02,0.41,0.07c0.11,0.04,0.32,0.17,0.6,0.37c0.45,0.31,0.91,0.47,1.38,0.47c0.71,0,1.33,-0.26,1.87,-0.8c0.53,-0.53,0.8,-1.19,0.8,-1.96c0,-0.74,-0.24,-1.44,-0.72,-2.09c-0.48,-0.64,-1.14,-1.14,-1.99,-1.5c-0.66,-0.27,-1.56,-0.43,-2.71,-0.47l2.37,-4.81l4.43,0" fill="#000000" stroke="none" fill-opacity="1"/>
<path d="m36.71,10.88c0,-1.41,0.21,-2.62,0.63,-3.64c0.42,-1.01,0.99,-1.77,1.69,-2.27c0.54,-0.39,1.11,-0.59,1.69,-0.59c0.94,0,1.8,0.48,2.55,1.45c0.94,1.19,1.41,2.82,1.41,4.87c0,1.43,-0.2,2.65,-0.62,3.66c-0.41,1,-0.94,1.73,-1.58,2.18c-0.64,0.45,-1.26,0.68,-1.85,0.68c-1.18,0,-2.16,-0.69,-2.94,-2.09c-0.66,-1.17,-0.99,-2.59,-0.99,-4.24m1.78,0.22c0,1.7,0.21,3.09,0.63,4.17c0.34,0.9,0.86,1.36,1.55,1.36c0.32,0,0.66,-0.14,1.02,-0.44c0.35,-0.29,0.62,-0.78,0.8,-1.48c0.28,-1.04,0.42,-2.52,0.42,-4.42c0,-1.41,-0.14,-2.59,-0.43,-3.53c-0.21,-0.7,-0.5,-1.19,-0.84,-1.48c-0.24,-0.2,-0.55,-0.3,-0.9,-0.3c-0.41,0,-0.78,0.18,-1.1,0.55c-0.43,0.5,-0.73,1.29,-0.89,2.38c-0.15,1.08,-0.23,2.15,-0.23,3.2m9.22,4.11c0.28,0,0.52,0.09,0.72,0.29c0.19,0.19,0.29,0.43,0.29,0.71c0,0.28,-0.09,0.51,-0.29,0.71c-0.19,0.19,-0.43,0.29,-0.71,0.29c-0.28,0,-0.51,-0.09,-0.71,-0.29c-0.19,-0.19,-0.29,-0.43,-0.29,-0.71c0,-0.28,0.09,-0.52,0.29,-0.72c0.19,-0.19,0.43,-0.29,0.71,-0.29m10.91,-0.61l-0.86,2.38l-7.3,0l0,-0.33c2.14,-1.96,3.66,-3.56,4.53,-4.8c0.87,-1.24,1.31,-2.37,1.31,-3.4c0,-0.78,-0.24,-1.43,-0.72,-1.93c-0.48,-0.5,-1.05,-0.75,-1.72,-0.75c-0.6,0,-1.15,0.17,-1.63,0.53c-0.48,0.35,-0.84,0.87,-1.07,1.56l-0.33,0c0.15,-1.12,0.54,-1.99,1.17,-2.59c0.63,-0.6,1.41,-0.9,2.36,-0.9c1,0,1.84,0.32,2.51,0.96c0.67,0.64,1,1.4,1,2.28c0,0.62,-0.14,1.25,-0.43,1.88c-0.45,0.98,-1.18,2.03,-2.19,3.13c-1.51,1.65,-2.46,2.65,-2.83,2.99l3.23,0c0.65,0,1.11,-0.02,1.38,-0.07c0.26,-0.04,0.5,-0.14,0.71,-0.29c0.21,-0.14,0.39,-0.36,0.55,-0.63l0.33,0" fill="#000000" stroke="none" fill-opacity="1"/>
</g>
<g fill="none" stroke-linecap="butt" stroke-width="0.66">
<path d="M559.37,351.49l0,-343.93"/>
<path d="M559.37,351.49l-4,0M559.37,334.29l-4,0M559.37,317.1l-4,0M559.37,299.9l-4,0M559.37,282.7l-4,0M559.37,265.51l-4,0M559.37,248.31l-4,0M559.37,231.11l-4,0M559.37,213.92l-4,0M559.37,196.72l-4,0M559.37,179.52l-4,0M559.37,162.33l-4,0M559.37,145.13l-4,0M559.37,127.93l-4,0M559.37,110.74l-4,0M559.37,93.54l-4,0M559.37,76.34l-4,0M559.37,59.14l-4,0M559.37,41.95l-4,0M559.37,24.75l-4,0M559.37,7.55l-4,0"/>
<path d="M559.37,351.49l-8,0M559.37,265.51l-8,0M559.37,179.52l-8,0M559.37,93.54l-8,0M559.37,7.55l-8,0"/>
<path d="M64.25,351.49l495.11,0"/>
<path d="M64.25,351.49l0,-4M105.51,351.49l0,-4M146.77,351.49l0,-4M188.03,351.49l0,-4M229.29,351.49l0,-4M270.55,351.49l0,-4M311.81,351.49l0,-4M353.07,351.49l0,-4M394.33,351.49l0,-4M435.59,351.49l0,-4M476.85,351.49l0,-4M518.11,351.49l0,-4M559.37,351.49l0,-4"/>
<path d="M64.25,351.49l0,-8M146.77,351.49l0,-8M229.29,351.49l0,-8M311.81,351.49l0,-8M394.33,351.49l0,-8M476.85,351.49l0,-8M559.37,351.49l0,-8"/>
</g>
<g fill="none" stroke-width="0.1">
<path d="m250.66,390.96l3.5,0l0,0.33c-0.32,0.02,-0.53,0.08,-0.63,0.17c-0.1,0.09,-0.15,0.22,-0.15,0.39c0,0.18,0.05,0.41,0.15,0.68l1.78,4.81l1.79,-3.91l-0.47,-1.23c-0.14,-0.36,-0.33,-0.61,-0.57,-0.75c-0.13,-0.08,-0.38,-0.13,-0.74,-0.15l0,-0.33l3.98,0l0,0.33c-0.43,0.01,-0.74,0.09,-0.93,0.23c-0.12,0.09,-0.18,0.25,-0.18,0.46c0,0.12,0.02,0.24,0.07,0.37l1.89,4.8l1.76,-4.62c0.12,-0.32,0.18,-0.59,0.18,-0.78c0,-0.11,-0.05,-0.21,-0.17,-0.31c-0.11,-0.09,-0.35,-0.14,-0.69,-0.15l0,-0.33l2.63,0l0,0.33c-0.52,0.07,-0.91,0.43,-1.16,1.07l-2.79,7.2l-0.37,0l-2.09,-5.34l-2.43,5.34l-0.33,0l-2.68,-7.03c-0.17,-0.44,-0.35,-0.74,-0.52,-0.89c-0.17,-0.15,-0.43,-0.27,-0.8,-0.35l0,-0.33m18.7,7.15c-0.85,0.66,-1.39,1.04,-1.61,1.15c-0.32,0.15,-0.67,0.22,-1.05,0.22c-0.57,0,-1.05,-0.19,-1.42,-0.59c-0.37,-0.39,-0.56,-0.91,-0.56,-1.56c0,-0.4,0.09,-0.76,0.27,-1.05c0.24,-0.41,0.68,-0.8,1.3,-1.16c0.61,-0.36,1.64,-0.8,3.08,-1.33l0,-0.32c0,-0.83,-0.13,-1.4,-0.39,-1.71c-0.26,-0.31,-0.64,-0.46,-1.15,-0.46c-0.38,0,-0.68,0.1,-0.91,0.31c-0.23,0.2,-0.34,0.44,-0.34,0.71l0.01,0.52c0,0.28,-0.07,0.49,-0.21,0.64c-0.14,0.15,-0.33,0.22,-0.56,0.22c-0.22,0,-0.4,-0.07,-0.55,-0.23c-0.14,-0.15,-0.21,-0.37,-0.21,-0.64c0,-0.52,0.26,-1,0.8,-1.44c0.53,-0.43,1.28,-0.65,2.25,-0.65c0.74,0,1.35,0.12,1.82,0.37c0.35,0.18,0.62,0.48,0.79,0.88c0.1,0.26,0.16,0.79,0.16,1.6l0,2.83c0,0.79,0.01,1.28,0.04,1.46c0.03,0.17,0.08,0.29,0.15,0.36c0.07,0.06,0.15,0.09,0.24,0.09c0.09,0,0.18,-0.02,0.25,-0.06c0.12,-0.07,0.37,-0.3,0.73,-0.66l0,0.51c-0.68,0.91,-1.33,1.36,-1.95,1.36c-0.29,0,-0.53,-0.1,-0.71,-0.31c-0.17,-0.2,-0.26,-0.56,-0.27,-1.05m0,-0.59l0,-3.18c-0.91,0.36,-1.51,0.62,-1.78,0.77c-0.48,0.26,-0.82,0.54,-1.03,0.84c-0.2,0.29,-0.31,0.61,-0.31,0.95c0,0.43,0.13,0.8,0.39,1.09c0.26,0.28,0.56,0.43,0.9,0.43c0.46,0,1.07,-0.3,1.82,-0.91m3.13,-6.56l3.93,0l0,0.33l-0.25,0c-0.23,0,-0.41,0.05,-0.54,0.17c-0.12,0.11,-0.18,0.27,-0.18,0.46c0,0.21,0.06,0.46,0.19,0.75l1.94,4.62l1.95,-4.79c0.14,-0.34,0.21,-0.59,0.21,-0.77c0,-0.08,-0.02,-0.15,-0.07,-0.21c-0.06,-0.09,-0.15,-0.15,-0.25,-0.18c-0.1,-0.03,-0.31,-0.05,-0.63,-0.05l0,-0.33l2.73,0l0,0.33c-0.31,0.02,-0.53,0.08,-0.65,0.19c-0.21,0.18,-0.4,0.48,-0.57,0.91l-2.96,7.17l-0.37,0l-2.98,-7.05c-0.13,-0.32,-0.26,-0.56,-0.38,-0.7c-0.12,-0.14,-0.27,-0.26,-0.46,-0.36c-0.1,-0.05,-0.3,-0.1,-0.61,-0.15l0,-0.33m11.18,3.15c0,1.24,0.29,2.21,0.9,2.92c0.6,0.7,1.32,1.05,2.14,1.05c0.54,0,1.02,-0.15,1.42,-0.45c0.4,-0.3,0.74,-0.81,1.01,-1.54l0.28,0.18c-0.12,0.83,-0.49,1.59,-1.11,2.27c-0.61,0.68,-1.38,1.02,-2.31,1.02c-1,0,-1.86,-0.39,-2.57,-1.17c-0.71,-0.78,-1.07,-1.83,-1.07,-3.15c0,-1.43,0.36,-2.54,1.1,-3.34c0.73,-0.8,1.65,-1.2,2.76,-1.2c0.93,0,1.7,0.3,2.31,0.92c0.6,0.61,0.9,1.44,0.9,2.47l-5.77,0m0,-0.52l3.87,0c-0.03,-0.53,-0.09,-0.91,-0.19,-1.13c-0.15,-0.34,-0.37,-0.6,-0.68,-0.8c-0.3,-0.19,-0.61,-0.29,-0.94,-0.29c-0.5,0,-0.95,0.19,-1.35,0.58c-0.39,0.39,-0.63,0.93,-0.69,1.63m9.76,-7.24l0,11.09c0,0.52,0.03,0.87,0.11,1.04c0.07,0.17,0.19,0.29,0.35,0.38c0.15,0.08,0.45,0.13,0.88,0.13l0,0.32l-4.09,0l0,-0.32c0.38,0,0.64,-0.03,0.78,-0.11c0.14,-0.07,0.24,-0.21,0.32,-0.39c0.07,-0.18,0.11,-0.53,0.11,-1.05l0,-7.59c0,-0.94,-0.02,-1.52,-0.06,-1.73c-0.04,-0.21,-0.11,-0.36,-0.2,-0.44c-0.09,-0.07,-0.21,-0.11,-0.36,-0.11c-0.15,0,-0.35,0.04,-0.6,0.14l-0.15,-0.31l2.49,-1.02l0.41,0m3.72,7.77c0,1.24,0.29,2.21,0.9,2.92c0.6,0.7,1.32,1.05,2.14,1.05c0.54,0,1.02,-0.15,1.42,-0.45c0.4,-0.3,0.74,-0.81,1.01,-1.54l0.28,0.18c-0.12,0.83,-0.49,1.59,-1.11,2.27c-0.61,0.68,-1.38,1.02,-2.31,1.02c-1,0,-1.86,-0.39,-2.57,-1.17c-0.71,-0.78,-1.07,-1.83,-1.07,-3.15c0,-1.43,0.36,-2.54,1.1,-3.34c0.73,-0.8,1.65,-1.2,2.76,-1.2c0.93,0,1.7,0.3,2.31,0.92c0.6,0.61,0.9,1.44,0.9,2.47l-5.77,0m0,-0.52l3.87,0c-0.03,-0.53,-0.09,-0.91,-0.19,-1.13c-0.15,-0.34,-0.37,-0.6,-0.68,-0.8c-0.3,-0.19,-0.61,-0.29,-0.94,-0.29c-0.5,0,-0.95,0.19,-1.35,0.58c-0.39,0.39,-0.63,0.93,-0.69,1.63m9.33,-1.09c0.98,-1.18,1.91,-1.77,2.8,-1.77c0.45,0,0.84,0.11,1.17,0.34c0.32,0.22,0.59,0.6,0.78,1.12c0.13,0.36,0.2,0.92,0.2,1.68l0,3.57c0,0.52,0.04,0.88,0.12,1.07c0.06,0.15,0.17,0.27,0.32,0.35c0.14,0.08,0.42,0.12,0.82,0.12l0,0.32l-4.13,0l0,-0.32l0.17,0c0.38,0,0.66,-0.05,0.81,-0.17c0.15,-0.11,0.26,-0.29,0.32,-0.52c0.02,-0.09,0.03,-0.37,0.03,-0.85l0,-3.42c0,-0.76,-0.09,-1.31,-0.29,-1.65c-0.19,-0.34,-0.53,-0.51,-0.99,-0.51c-0.72,0,-1.44,0.39,-2.16,1.18l0,4.41c0,0.56,0.03,0.91,0.1,1.05c0.08,0.17,0.2,0.3,0.35,0.38c0.14,0.08,0.45,0.12,0.9,0.12l0,0.32l-4.13,0l0,-0.32l0.18,0c0.42,0,0.71,-0.1,0.86,-0.32c0.14,-0.21,0.22,-0.62,0.22,-1.23l0,-3.1c0,-1,-0.02,-1.61,-0.06,-1.83c-0.04,-0.21,-0.11,-0.36,-0.21,-0.44c-0.09,-0.07,-0.22,-0.11,-0.37,-0.11c-0.17,0,-0.37,0.04,-0.61,0.13l-0.13,-0.32l2.52,-1.02l0.39,0l0,1.77m9.14,3.78c-0.51,-0.24,-0.9,-0.59,-1.17,-1.04c-0.27,-0.44,-0.41,-0.94,-0.41,-1.48c0,-0.82,0.31,-1.54,0.93,-2.13c0.62,-0.59,1.42,-0.89,2.39,-0.89c0.79,0,1.48,0.19,2.07,0.58l1.77,0c0.26,0,0.41,0,0.45,0.02c0.04,0.01,0.07,0.04,0.09,0.07c0.03,0.05,0.05,0.15,0.05,0.29c0,0.15,-0.01,0.26,-0.04,0.32c-0.01,0.03,-0.05,0.05,-0.09,0.07c-0.04,0.01,-0.19,0.02,-0.46,0.02l-1.08,0c0.34,0.43,0.51,0.99,0.51,1.68c0,0.77,-0.29,1.44,-0.89,1.99c-0.59,0.55,-1.39,0.83,-2.4,0.83c-0.41,0,-0.83,-0.06,-1.26,-0.18c-0.26,0.23,-0.44,0.43,-0.54,0.6c-0.09,0.17,-0.14,0.32,-0.14,0.44c0,0.1,0.05,0.2,0.15,0.3c0.1,0.09,0.29,0.16,0.58,0.21c0.17,0.02,0.59,0.04,1.27,0.06c1.25,0.03,2.06,0.07,2.43,0.12c0.56,0.07,1.01,0.28,1.35,0.63c0.33,0.34,0.5,0.76,0.5,1.26c0,0.68,-0.32,1.33,-0.96,1.93c-0.94,0.88,-2.18,1.33,-3.71,1.33c-1.17,0,-2.16,-0.26,-2.97,-0.79c-0.45,-0.3,-0.68,-0.62,-0.68,-0.94c0,-0.14,0.03,-0.29,0.1,-0.43c0.1,-0.22,0.31,-0.53,0.63,-0.94c0.04,-0.05,0.35,-0.38,0.93,-0.98c-0.31,-0.18,-0.54,-0.35,-0.67,-0.5c-0.13,-0.14,-0.19,-0.31,-0.19,-0.5c0,-0.21,0.08,-0.46,0.26,-0.74c0.17,-0.28,0.57,-0.69,1.2,-1.21m1.58,-5.12c-0.45,0,-0.82,0.17,-1.13,0.53c-0.3,0.35,-0.45,0.91,-0.45,1.65c0,0.96,0.2,1.7,0.62,2.23c0.31,0.4,0.71,0.6,1.2,0.6c0.46,0,0.84,-0.17,1.14,-0.52c0.29,-0.34,0.44,-0.89,0.44,-1.63c0,-0.96,-0.21,-1.72,-0.63,-2.27c-0.31,-0.4,-0.7,-0.6,-1.19,-0.6m-1.68,8.17c-0.28,0.31,-0.5,0.59,-0.64,0.86c-0.14,0.26,-0.21,0.51,-0.21,0.73c0,0.29,0.17,0.54,0.52,0.76c0.6,0.37,1.48,0.56,2.63,0.56c1.09,0,1.9,-0.19,2.42,-0.57c0.52,-0.38,0.78,-0.79,0.78,-1.23c0,-0.31,-0.15,-0.54,-0.46,-0.67c-0.31,-0.13,-0.94,-0.21,-1.88,-0.23c-1.36,-0.03,-2.42,-0.1,-3.15,-0.21m9.63,-11.11l0,2.74l1.95,0l0,0.63l-1.95,0l0,5.42c0,0.54,0.07,0.9,0.23,1.09c0.15,0.18,0.35,0.28,0.59,0.28c0.2,0,0.39,-0.06,0.58,-0.18c0.18,-0.12,0.33,-0.3,0.43,-0.55l0.35,0c-0.21,0.59,-0.51,1.04,-0.9,1.34c-0.38,0.3,-0.79,0.45,-1.2,0.45c-0.28,0,-0.55,-0.07,-0.82,-0.23c-0.26,-0.15,-0.46,-0.37,-0.59,-0.66c-0.12,-0.28,-0.19,-0.73,-0.19,-1.33l0,-5.62l-1.32,0l0,-0.3c0.33,-0.13,0.67,-0.36,1.02,-0.68c0.35,-0.31,0.66,-0.69,0.93,-1.13c0.14,-0.23,0.33,-0.65,0.58,-1.26l0.28,0m5.22,-1.87l0,6.11c0.67,-0.74,1.21,-1.21,1.6,-1.42c0.39,-0.21,0.79,-0.31,1.18,-0.31c0.47,0,0.88,0.13,1.22,0.39c0.34,0.26,0.59,0.67,0.75,1.23c0.11,0.38,0.17,1.1,0.17,2.13l0,2.95c0,0.52,0.04,0.89,0.12,1.08c0.06,0.14,0.16,0.26,0.31,0.34c0.14,0.08,0.41,0.12,0.8,0.12l0,0.32l-4.1,0l0,-0.32l0.19,0c0.38,0,0.66,-0.05,0.81,-0.17c0.15,-0.11,0.25,-0.29,0.31,-0.52c0.01,-0.09,0.02,-0.38,0.02,-0.85l0,-2.95c0,-0.91,-0.04,-1.51,-0.14,-1.79c-0.09,-0.28,-0.24,-0.5,-0.45,-0.64c-0.2,-0.14,-0.45,-0.21,-0.74,-0.21c-0.29,0,-0.6,0.07,-0.93,0.23c-0.32,0.15,-0.7,0.47,-1.15,0.95l0,4.41c0,0.57,0.03,0.92,0.09,1.06c0.06,0.14,0.18,0.25,0.35,0.35c0.17,0.09,0.47,0.14,0.89,0.14l0,0.32l-4.14,0l0,-0.32c0.37,0,0.66,-0.05,0.87,-0.17c0.12,-0.06,0.21,-0.17,0.29,-0.34c0.07,-0.17,0.1,-0.51,0.1,-1.04l0,-7.56c0,-0.95,-0.02,-1.54,-0.06,-1.76c-0.04,-0.21,-0.11,-0.36,-0.21,-0.44c-0.09,-0.07,-0.22,-0.11,-0.37,-0.11c-0.12,0,-0.33,0.04,-0.62,0.14l-0.12,-0.31l2.5,-1.02l0.42,0m12.11,16.64l0,0.33c-0.91,-0.46,-1.68,-1,-2.3,-1.62c-0.87,-0.88,-1.55,-1.92,-2.02,-3.12c-0.47,-1.19,-0.71,-2.44,-0.71,-3.73c0,-1.88,0.46,-3.6,1.39,-5.16c0.93,-1.55,2.14,-2.66,3.64,-3.33l0,0.38c-0.74,0.41,-1.36,0.98,-1.84,1.69c-0.48,0.71,-0.84,1.62,-1.07,2.73c-0.23,1.1,-0.35,2.25,-0.35,3.45c0,1.3,0.1,2.48,0.3,3.55c0.15,0.84,0.35,1.51,0.57,2.02c0.22,0.5,0.52,0.99,0.9,1.46c0.38,0.46,0.87,0.91,1.49,1.34m3.44,-10.5c0.98,-1.18,1.91,-1.77,2.8,-1.77c0.45,0,0.84,0.11,1.17,0.34c0.32,0.22,0.59,0.6,0.78,1.12c0.13,0.36,0.2,0.92,0.2,1.68l0,3.57c0,0.52,0.04,0.88,0.12,1.07c0.06,0.15,0.17,0.27,0.32,0.35c0.14,0.08,0.42,0.12,0.82,0.12l0,0.32l-4.13,0l0,-0.32l0.17,0c0.38,0,0.66,-0.05,0.81,-0.17c0.15,-0.11,0.26,-0.29,0.32,-0.52c0.02,-0.09,0.03,-0.37,0.03,-0.85l0,-3.42c0,-0.76,-0.09,-1.31,-0.29,-1.65c-0.19,-0.34,-0.53,-0.51,-0.99,-0.51c-0.72,0,-1.44,0.39,-2.16,1.18l0,4.41c0,0.56,0.03,0.91,0.1,1.05c0.08,0.17,0.2,0.3,0.35,0.38c0.14,0.08,0.45,0.12,0.9,0.12l0,0.32l-4.13,0l0,-0.32l0.18,0c0.42,0,0.71,-0.1,0.86,-0.32c0.14,-0.21,0.22,-0.62,0.22,-1.23l0,-3.1c0,-1,-0.02,-1.61,-0.06,-1.83c-0.04,-0.21,-0.11,-0.36,-0.21,-0.44c-0.09,-0.07,-0.22,-0.11,-0.37,-0.11c-0.17,0,-0.37,0.04,-0.61,0.13l-0.13,-0.32l2.52,-1.02l0.39,0l0,1.77m9.39,0c0.6,-0.6,0.96,-0.95,1.07,-1.05c0.27,-0.23,0.56,-0.41,0.88,-0.53c0.31,-0.12,0.63,-0.19,0.94,-0.19c0.52,0,0.97,0.15,1.35,0.45c0.37,0.3,0.63,0.74,0.75,1.32c0.62,-0.73,1.15,-1.2,1.58,-1.43c0.43,-0.22,0.87,-0.34,1.33,-0.34c0.44,0,0.83,0.11,1.18,0.34c0.34,0.22,0.61,0.6,0.81,1.11c0.13,0.35,0.2,0.9,0.2,1.66l0,3.59c0,0.52,0.03,0.88,0.11,1.07c0.06,0.13,0.17,0.24,0.33,0.34c0.16,0.09,0.43,0.14,0.8,0.14l0,0.32l-4.12,0l0,-0.32l0.17,0c0.35,0,0.63,-0.07,0.84,-0.21c0.14,-0.09,0.24,-0.25,0.3,-0.46c0.02,-0.1,0.03,-0.39,0.03,-0.88l0,-3.59c0,-0.68,-0.08,-1.16,-0.24,-1.44c-0.23,-0.38,-0.61,-0.58,-1.14,-0.58c-0.32,0,-0.64,0.08,-0.97,0.24c-0.32,0.16,-0.71,0.46,-1.18,0.89l-0.01,0.1l0.01,0.39l0,3.99c0,0.57,0.03,0.92,0.09,1.06c0.06,0.14,0.18,0.25,0.36,0.35c0.17,0.09,0.47,0.14,0.9,0.14l0,0.32l-4.22,0l0,-0.32c0.46,0,0.78,-0.05,0.95,-0.16c0.17,-0.1,0.29,-0.27,0.36,-0.49c0.03,-0.1,0.04,-0.4,0.04,-0.9l0,-3.59c0,-0.68,-0.1,-1.17,-0.3,-1.47c-0.26,-0.38,-0.64,-0.58,-1.12,-0.58c-0.32,0,-0.65,0.08,-0.97,0.26c-0.5,0.26,-0.89,0.56,-1.16,0.9l0,4.48c0,0.54,0.03,0.9,0.11,1.06c0.07,0.16,0.18,0.28,0.33,0.36c0.14,0.08,0.45,0.12,0.9,0.12l0,0.32l-4.13,0l0,-0.32c0.38,0,0.65,-0.04,0.8,-0.12c0.15,-0.08,0.26,-0.21,0.34,-0.39c0.07,-0.17,0.11,-0.52,0.11,-1.04l0,-3.19c0,-0.91,-0.02,-1.51,-0.08,-1.78c-0.04,-0.2,-0.1,-0.33,-0.2,-0.41c-0.09,-0.07,-0.21,-0.11,-0.37,-0.11c-0.17,0,-0.37,0.04,-0.61,0.13l-0.13,-0.32l2.52,-1.02l0.39,0l0,1.78m11.89,-5.77l0,-0.38c0.92,0.45,1.69,0.99,2.31,1.61c0.87,0.88,1.54,1.93,2.01,3.12c0.47,1.19,0.71,2.44,0.71,3.73c0,1.88,-0.46,3.6,-1.39,5.16c-0.92,1.55,-2.14,2.66,-3.64,3.33l0,-0.33c0.74,-0.42,1.36,-0.98,1.84,-1.7c0.48,-0.71,0.84,-1.62,1.07,-2.73c0.23,-1.1,0.35,-2.25,0.35,-3.45c0,-1.29,-0.1,-2.48,-0.3,-3.55c-0.15,-0.84,-0.34,-1.51,-0.57,-2.01c-0.22,-0.5,-0.53,-0.99,-0.9,-1.46c-0.37,-0.46,-0.87,-0.91,-1.49,-1.34" fill="#000000" stroke="none" fill-opacity="1"/>
<path d="m58.6,360.35l0,0.33c-0.8,0.07,-1.45,0.23,-1.96,0.47c-0.5,0.24,-1.01,0.6,-1.5,1.1c-0.49,0.49,-0.9,1.04,-1.23,1.64c-0.32,0.6,-0.59,1.32,-0.81,2.15c0.87,-0.6,1.75,-0.9,2.63,-0.9c0.84,0,1.57,0.34,2.2,1.02c0.62,0.68,0.93,1.55,0.93,2.62c0,1.03,-0.31,1.97,-0.94,2.83c-0.75,1.03,-1.75,1.55,-2.99,1.55c-0.84,0,-1.56,-0.28,-2.15,-0.84c-1.15,-1.08,-1.73,-2.5,-1.73,-4.23c0,-1.1,0.22,-2.16,0.66,-3.15c0.44,-0.99,1.07,-1.88,1.9,-2.65c0.82,-0.77,1.61,-1.29,2.36,-1.56c0.75,-0.26,1.45,-0.4,2.1,-0.4l0.52,0m-5.67,6.39c-0.1,0.82,-0.16,1.48,-0.16,1.99c0,0.58,0.1,1.21,0.32,1.9c0.21,0.68,0.53,1.22,0.96,1.62c0.31,0.28,0.68,0.42,1.13,0.42c0.52,0,1,-0.24,1.41,-0.74c0.41,-0.49,0.62,-1.21,0.62,-2.13c0,-1.04,-0.2,-1.94,-0.62,-2.7c-0.41,-0.76,-1,-1.14,-1.76,-1.14c-0.23,0,-0.47,0.04,-0.74,0.14c-0.26,0.09,-0.65,0.3,-1.17,0.63m15.22,3.86l-0.86,2.38l-7.3,0l0,-0.33c2.14,-1.96,3.66,-3.56,4.53,-4.8c0.87,-1.24,1.31,-2.37,1.31,-3.4c0,-0.78,-0.24,-1.43,-0.72,-1.93c-0.48,-0.5,-1.05,-0.75,-1.72,-0.75c-0.6,0,-1.15,0.17,-1.63,0.53c-0.48,0.35,-0.84,0.87,-1.07,1.56l-0.33,0c0.15,-1.12,0.54,-1.99,1.17,-2.59c0.63,-0.6,1.41,-0.9,2.36,-0.9c1,0,1.84,0.32,2.51,0.96c0.67,0.64,1,1.4,1,2.28c0,0.62,-0.14,1.25,-0.43,1.88c-0.45,0.98,-1.18,2.03,-2.19,3.13c-1.51,1.65,-2.46,2.65,-2.83,2.99l3.23,0c0.65,0,1.11,-0.02,1.38,-0.07c0.26,-0.04,0.5,-0.14,0.71,-0.29c0.21,-0.14,0.39,-0.36,0.55,-0.63l0.33,0m1.45,-3.73c0,-1.41,0.21,-2.62,0.63,-3.64c0.42,-1.01,0.99,-1.77,1.69,-2.27c0.54,-0.39,1.11,-0.59,1.69,-0.59c0.94,0,1.8,0.48,2.55,1.45c0.94,1.19,1.41,2.82,1.41,4.87c0,1.43,-0.2,2.65,-0.62,3.66c-0.41,1,-0.94,1.73,-1.58,2.18c-0.64,0.45,-1.26,0.68,-1.85,0.68c-1.18,0,-2.16,-0.69,-2.94,-2.09c-0.66,-1.17,-0.99,-2.59,-0.99,-4.24m1.78,0.22c0,1.7,0.21,3.09,0.63,4.17c0.34,0.9,0.86,1.36,1.55,1.36c0.32,0,0.66,-0.14,1.02,-0.44c0.35,-0.29,0.62,-0.78,0.8,-1.48c0.28,-1.04,0.42,-2.52,0.42,-4.42c0,-1.41,-0.14,-2.59,-0.43,-3.53c-0.21,-0.7,-0.5,-1.19,-0.84,-1.48c-0.24,-0.2,-0.55,-0.3,-0.9,-0.3c-0.41,0,-0.78,0.18,-1.1,0.55c-0.43,0.5,-0.73,1.29,-0.89,2.38c-0.15,1.08,-0.23,2.15,-0.23,3.2" fill="#000000" stroke="none" fill-opacity="1"/>
<path d="m141.12,360.35l0,0.33c-0.8,0.07,-1.45,0.23,-1.96,0.47c-0.5,0.24,-1.01,0.6,-1.5,1.1c-0.49,0.49,-0.9,1.04,-1.23,1.64c-0.32,0.6,-0.59,1.32,-0.81,2.15c0.87,-0.6,1.75,-0.9,2.63,-0.9c0.84,0,1.57,0.34,2.2,1.02c0.62,0.68,0.93,1.55,0.93,2.62c0,1.03,-0.31,1.97,-0.94,2.83c-0.75,1.03,-1.75,1.55,-2.99,1.55c-0.84,0,-1.56,-0.28,-2.15,-0.84c-1.15,-1.08,-1.73,-2.5,-1.73,-4.23c0,-1.1,0.22,-2.16,0.66,-3.15c0.44,-0.99,1.07,-1.88,1.9,-2.65c0.82,-0.77,1.61,-1.29,2.36,-1.56c0.75,-0.26,1.45,-0.4,2.1,-0.4l0.52,0m-5.67,6.39c-0.1,0.82,-0.16,1.48,-0.16,1.99c0,0.58,0.1,1.21,0.32,1.9c0.21,0.68,0.53,1.22,0.96,1.62c0.31,0.28,0.68,0.42,1.13,0.42c0.52,0,1,-0.24,1.41,-0.74c0.41,-0.49,0.62,-1.21,0.62,-2.13c0,-1.04,-0.2,-1.94,-0.62,-2.7c-0.41,-0.76,-1,-1.14,-1.76,-1.14c-0.23,0,-0.47,0.04,-0.74,0.14c-0.26,0.09,-0.65,0.3,-1.17,0.63m7.59,-3.78c0.35,-0.83,0.79,-1.47,1.33,-1.93c0.53,-0.45,1.2,-0.68,2.01,-0.68c0.99,0,1.75,0.32,2.28,0.96c0.4,0.48,0.6,0.99,0.6,1.54c0,0.9,-0.56,1.83,-1.69,2.79c0.76,0.29,1.33,0.72,1.72,1.27c0.38,0.55,0.58,1.2,0.58,1.95c0,1.07,-0.34,1.99,-1.02,2.78c-0.88,1.02,-2.17,1.53,-3.86,1.53c-0.83,0,-1.4,-0.1,-1.7,-0.31c-0.3,-0.2,-0.45,-0.42,-0.45,-0.66c0,-0.17,0.07,-0.33,0.21,-0.46c0.14,-0.13,0.31,-0.2,0.51,-0.2c0.15,0,0.3,0.02,0.46,0.07c0.1,0.03,0.33,0.14,0.7,0.33c0.36,0.19,0.61,0.3,0.75,0.34c0.22,0.06,0.46,0.1,0.72,0.1c0.62,0,1.16,-0.24,1.62,-0.72c0.45,-0.48,0.68,-1.05,0.68,-1.7c0,-0.48,-0.1,-0.94,-0.31,-1.4c-0.15,-0.34,-0.33,-0.59,-0.52,-0.77c-0.26,-0.24,-0.62,-0.46,-1.07,-0.66c-0.45,-0.19,-0.92,-0.29,-1.39,-0.29l-0.29,0l0,-0.27c0.48,-0.06,0.96,-0.23,1.44,-0.52c0.48,-0.28,0.83,-0.63,1.05,-1.03c0.21,-0.4,0.32,-0.84,0.32,-1.32c0,-0.62,-0.19,-1.13,-0.58,-1.52c-0.39,-0.38,-0.88,-0.57,-1.46,-0.57c-0.94,0,-1.73,0.5,-2.36,1.51l-0.3,-0.14m9.07,3.9c0,-1.41,0.21,-2.62,0.63,-3.64c0.42,-1.01,0.99,-1.77,1.69,-2.27c0.54,-0.39,1.11,-0.59,1.69,-0.59c0.94,0,1.8,0.48,2.55,1.45c0.94,1.19,1.41,2.82,1.41,4.87c0,1.43,-0.2,2.65,-0.62,3.66c-0.41,1,-0.94,1.73,-1.58,2.18c-0.64,0.45,-1.26,0.68,-1.85,0.68c-1.18,0,-2.16,-0.69,-2.94,-2.09c-0.66,-1.17,-0.99,-2.59,-0.99,-4.24m1.78,0.22c0,1.7,0.21,3.09,0.63,4.17c0.34,0.9,0.86,1.36,1.55,1.36c0.32,0,0.66,-0.14,1.02,-0.44c0.35,-0.29,0.62,-0.78,0.8,-1.48c0.28,-1.04,0.42,-2.52,0.42,-4.42c0,-1.41,-0.14,-2.59,-0.43,-3.53c-0.21,-0.7,-0.5,-1.19,-0.84,-1.48c-0.24,-0.2,-0.55,-0.3,-0.9,-0.3c-0.41,0,-0.78,0.18,-1.1,0.55c-0.43,0.5,-0.73,1.29,-0.89,2.38c-0.15,1.08,-0.23,2.15,-0.23,3.2" fill="#000000" stroke="none" fill-opacity="1"/>
<path d="m223.64,360.35l0,0.33c-0.8,0.07,-1.45,0.23,-1.96,0.47c-0.5,0.24,-1.01,0.6,-1.5,1.1c-0.49,0.49,-0.9,1.04,-1.23,1.64c-0.32,0.6,-0.59,1.32,-0.81,2.15c0.87,-0.6,1.75,-0.9,2.63,-0.9c0.84,0,1.57,0.34,2.2,1.02c0.62,0.68,0.93,1.55,0.93,2.62c0,1.03,-0.31,1.97,-0.94,2.83c-0.75,1.03,-1.75,1.55,-2.99,1.55c-0.84,0,-1.56,-0.28,-2.15,-0.84c-1.15,-1.08,-1.73,-2.5,-1.73,-4.23c0,-1.1,0.22,-2.16,0.66,-3.15c0.44,-0.99,1.07,-1.88,1.9,-2.65c0.82,-0.77,1.61,-1.29,2.36,-1.56c0.75,-0.26,1.45,-0.4,2.1,-0.4l0.52,0m-5.67,6.39c-0.1,0.82,-0.16,1.48,-0.16,1.99c0,0.58,0.1,1.21,0.32,1.9c0.21,0.68,0.53,1.22,0.96,1.62c0.31,0.28,0.68,0.42,1.13,0.42c0.52,0,1,-0.24,1.41,-0.74c0.41,-0.49,0.62,-1.21,0.62,-2.13c0,-1.04,-0.2,-1.94,-0.62,-2.7c-0.41,-0.76,-1,-1.14,-1.76,-1.14c-0.23,0,-0.47,0.04,-0.74,0.14c-0.26,0.09,-0.65,0.3,-1.17,0.63m15.34,1.68l0,1.29l-1.66,0l0,3.26l-1.5,0l0,-3.26l-5.24,0l0,-1.16l5.74,-8.19l1,0l0,8.07l1.66,0m-3.16,0l0,-6.14l-4.34,6.14l4.34,0m4.49,-1.55c0,-1.41,0.21,-2.62,0.63,-3.64c0.42,-1.01,0.99,-1.77,1.69,-2.27c0.54,-0.39,1.11,-0.59,1.69,-0.59c0.94,0,1.8,0.48,2.55,1.45c0.94,1.19,1.41,2.82,1.41,4.87c0,1.43,-0.2,2.65,-0.62,3.66c-0.41,1,-0.94,1.73,-1.58,2.18c-0.64,0.45,-1.26,0.68,-1.85,0.68c-1.18,0,-2.16,-0.69,-2.94,-2.09c-0.66,-1.17,-0.99,-2.59,-0.99,-4.24m1.78,0.22c0,1.7,0.21,3.09,0.63,4.17c0.34,0.9,0.86,1.36,1.55,1.36c0.32,0,0.66,-0.14,1.02,-0.44c0.35,-0.29,0.62,-0.78,0.8,-1.48c0.28,-1.04,0.42,-2.52,0.42,-4.42c0,-1.41,-0.14,-2.59,-0.43,-3.53c-0.21,-0.7,-0.5,-1.19,-0.84,-1.48c-0.24,-0.2,-0.55,-0.3,-0.9,-0.3c-0.41,0,-0.78,0.18,-1.1,0.55c-0.43,0.5,-0.73,1.29,-0.89,2.38c-0.15,1.08,-0.23,2.15,-0.23,3.2" fill="#000000" stroke="none" fill-opacity="1"/>
<path d="m306.16,360.35l0,0.33c-0.8,0.07,-1.45,0.23,-1.96,0.47c-0.5,0.24,-1.01,0.6,-1.5,1.1c-0.49,0.49,-0.9,1.04,-1.23,1.64c-0.32,0.6,-0.59,1.32,-0.81,2.15c0.87,-0.6,1.75,-0.9,2.63,-0.9c0.84,0,1.57,0.34,2.2,1.02c0.62,0.68,0.93,1.55,0.93,2.62c0,1.03,-0.31,1.97,-0.94,2.83c-0.75,1.03,-1.75,1.55,-2.99,1.55c-0.84,0,-1.56,-0.28,-2.15,-0.84c-1.15,-1.08,-1.73,-2.5,-1.73,-4.23c0,-1.1,0.22,-2.16,0.66,-3.15c0.44,-0.99,1.07,-1.88,1.9,-2.65c0.82,-0.77,1.61,-1.29,2.36,-1.56c0.75,-0.26,1.45,-0.4,2.1,-0.4l0.52,0m-5.67,6.39c-0.1,0.82,-0.16,1.48,-0.16,1.99c0,0.58,0.1,1.21,0.32,1.9c0.21,0.68,0.53,1.22,0.96,1.62c0.31,0.28,0.68,0.42,1.13,0.42c0.52,0,1,-0.24,1.41,-0.74c0.41,-0.49,0.62,-1.21,0.62,-2.13c0,-1.04,-0.2,-1.94,-0.62,-2.7c-0.41,-0.76,-1,-1.14,-1.76,-1.14c-0.23,0,-0.47,0.04,-0.74,0.14c-0.26,0.09,-0.65,0.3,-1.17,0.63m14.76,-6.13l-0.71,1.55l-3.72,0l-0.81,1.66c1.61,0.23,2.89,0.83,3.83,1.79c0.8,0.82,1.21,1.8,1.21,2.92c0,0.65,-0.13,1.25,-0.39,1.8c-0.26,0.55,-0.59,1.02,-0.99,1.41c-0.4,0.38,-0.84,0.7,-1.34,0.94c-0.7,0.33,-1.41,0.5,-2.15,0.5c-0.74,0,-1.28,-0.12,-1.62,-0.37c-0.33,-0.25,-0.5,-0.53,-0.5,-0.83c0,-0.17,0.07,-0.32,0.21,-0.45c0.14,-0.13,0.31,-0.19,0.52,-0.19c0.15,0,0.29,0.02,0.41,0.07c0.11,0.04,0.32,0.17,0.6,0.37c0.45,0.31,0.91,0.47,1.38,0.47c0.71,0,1.33,-0.26,1.87,-0.8c0.53,-0.53,0.8,-1.19,0.8,-1.96c0,-0.74,-0.24,-1.44,-0.72,-2.09c-0.48,-0.64,-1.14,-1.14,-1.99,-1.5c-0.66,-0.27,-1.56,-0.43,-2.71,-0.47l2.37,-4.81l4.43,0m1.9,6.26c0,-1.41,0.21,-2.62,0.63,-3.64c0.42,-1.01,0.99,-1.77,1.69,-2.27c0.54,-0.39,1.11,-0.59,1.69,-0.59c0.94,0,1.8,0.48,2.55,1.45c0.94,1.19,1.41,2.82,1.41,4.87c0,1.43,-0.2,2.65,-0.62,3.66c-0.41,1,-0.94,1.73,-1.58,2.18c-0.64,0.45,-1.26,0.68,-1.85,0.68c-1.18,0,-2.16,-0.69,-2.94,-2.09c-0.66,-1.17,-0.99,-2.59,-0.99,-4.24m1.78,0.22c0,1.7,0.21,3.09,0.63,4.17c0.34,0.9,0.86,1.36,1.55,1.36c0.32,0,0.66,-0.14,1.02,-0.44c0.35,-0.29,0.62,-0.78,0.8,-1.48c0.28,-1.04,0.42,-2.52,0.42,-4.42c0,-1.41,-0.14,-2.59,-0.43,-3.53c-0.21,-0.7,-0.5,-1.19,-0.84,-1.48c-0.24,-0.2,-0.55,-0.3,-0.9,-0.3c-0.41,0,-0.78,0.18,-1.1,0.55c-0.43,0.5,-0.73,1.29,-0.89,2.38c-0.15,1.08,-0.23,2.15,-0.23,3.2" fill="#000000" stroke="none" fill-opacity="1"/>
<path d="m388.68,360.35l0,0.33c-0.8,0.07,-1.45,0.23,-1.96,0.47c-0.5,0.24,-1.01,0.6,-1.5,1.1c-0.49,0.49,-0.9,1.04,-1.23,1.64c-0.32,0.6,-0.59,1.32,-0.81,2.15c0.87,-0.6,1.75,-0.9,2.63,-0.9c0.84,0,1.57,0.34,2.2,1.02c0.62,0.68,0.93,1.55,0.93,2.62c0,1.03,-0.31,1.97,-0.94,2.83c-0.75,1.03,-1.75,1.55,-2.99,1.55c-0.84,0,-1.56,-0.28,-2.15,-0.84c-1.15,-1.08,-1.73,-2.5,-1.73,-4.23c0,-1.1,0.22,-2.16,0.66,-3.15c0.44,-0.99,1.07,-1.88,1.9,-2.65c0.82,-0.77,1.61,-1.29,2.36,-1.56c0.75,-0.26,1.45,-0.4,2.1,-0.4l0.52,0m-5.67,6.39c-0.1,0.82,-0.16,1.48,-0.16,1.99c0,0.58,0.1,1.21,0.32,1.9c0.21,0.68,0.53,1.22,0.96,1.62c0.31,0.28,0.68,0.42,1.13,0.42c0.52,0,1,-0.24,1.41,-0.74c0.41,-0.49,0.62,-1.21,0.62,-2.13c0,-1.04,-0.2,-1.94,-0.62,-2.7c-0.41,-0.76,-1,-1.14,-1.76,-1.14c-0.23,0,-0.47,0.04,-0.74,0.14c-0.26,0.09,-0.65,0.3,-1.17,0.63m15.02,-6.39l0,0.33c-0.8,0.07,-1.45,0.23,-1.96,0.47c-0.5,0.24,-1.01,0.6,-1.5,1.1c-0.49,0.49,-0.9,1.04,-1.23,1.64c-0.32,0.6,-0.59,1.32,-0.81,2.15c0.87,-0.6,1.75,-0.9,2.63,-0.9c0.84,0,1.57,0.34,2.2,1.02c0.62,0.68,0.93,1.55,0.93,2.62c0,1.03,-0.31,1.97,-0.94,2.83c-0.75,1.03,-1.75,1.55,-2.99,1.55c-0.84,0,-1.56,-0.28,-2.15,-0.84c-1.15,-1.08,-1.73,-2.5,-1.73,-4.23c0,-1.1,0.22,-2.16,0.66,-3.15c0.44,-0.99,1.07,-1.88,1.9,-2.65c0.82,-0.77,1.61,-1.29,2.36,-1.56c0.75,-0.26,1.45,-0.4,2.1,-0.4l0.52,0m-5.67,6.39c-0.1,0.82,-0.16,1.48,-0.16,1.99c0,0.58,0.1,1.21,0.32,1.9c0.21,0.68,0.53,1.22,0.96,1.62c0.31,0.28,0.68,0.42,1.13,0.42c0.52,0,1,-0.24,1.41,-0.74c0.41,-0.49,0.62,-1.21,0.62,-2.13c0,-1.04,-0.2,-1.94,-0.62,-2.7c-0.41,-0.76,-1,-1.14,-1.76,-1.14c-0.23,0,-0.47,0.04,-0.74,0.14c-0.26,0.09,-0.65,0.3,-1.17,0.63m7.32,0.12c0,-1.41,0.21,-2.62,0.63,-3.64c0.42,-1.01,0.99,-1.77,1.69,-2.27c0.54,-0.39,1.11,-0.59,1.69,-0.59c0.94,0,1.8,0.48,2.55,1.45c0.94,1.19,1.41,2.82,1.41,4.87c0,1.43,-0.2,2.65,-0.62,3.66c-0.41,1,-0.94,1.73,-1.58,2.18c-0.64,0.45,-1.26,0.68,-1.85,0.68c-1.18,0,-2.16,-0.69,-2.94,-2.09c-0.66,-1.17,-0.99,-2.59,-0.99,-4.24m1.78,0.22c0,1.7,0.21,3.09,0.63,4.17c0.34,0.9,0.86,1.36,1.55,1.36c0.32,0,0.66,-0.14,1.02,-0.44c0.35,-0.29,0.62,-0.78,0.8,-1.48c0.28,-1.04,0.42,-2.52,0.42,-4.42c0,-1.41,-0.14,-2.59,-0.43,-3.53c-0.21,-0.7,-0.5,-1.19,-0.84,-1.48c-0.24,-0.2,-0.55,-0.3,-0.9,-0.3c-0.41,0,-0.78,0.18,-1.1,0.55c-0.43,0.5,-0.73,1.29,-0.89,2.38c-0.15,1.08,-0.23,2.15,-0.23,3.2" fill="#000000" stroke="none" fill-opacity="1"/>
<path d="m471.2,360.35l0,0.33c-0.8,0.07,-1.45,0.23,-1.96,0.47c-0.5,0.24,-1.01,0.6,-1.5,1.1c-0.49,0.49,-0.9,1.04,-1.23,1.64c-0.32,0.6,-0.59,1.32,-0.81,2.15c0.87,-0.6,1.75,-0.9,2.63,-0.9c0.84,0,1.57,0.34,2.2,1.02c0.62,0.68,0.93,1.55,0.93,2.62c0,1.03,-0.31,1.97,-0.94,2.83c-0.75,1.03,-1.75,1.55,-2.99,1.55c-0.84,0,-1.56,-0.28,-2.15,-0.84c-1.15,-1.08,-1.73,-2.5,-1.73,-4.23c0,-1.1,0.22,-2.16,0.66,-3.15c0.44,-0.99,1.07,-1.88,1.9,-2.65c0.82,-0.77,1.61,-1.29,2.36,-1.56c0.75,-0.26,1.45,-0.4,2.1,-0.4l0.52,0m-5.67,6.39c-0.1,0.82,-0.16,1.48,-0.16,1.99c0,0.58,0.1,1.21,0.32,1.9c0.21,0.68,0.53,1.22,0.96,1.62c0.31,0.28,0.68,0.42,1.13,0.42c0.52,0,1,-0.24,1.41,-0.74c0.41,-0.49,0.62,-1.21,0.62,-2.13c0,-1.04,-0.2,-1.94,-0.62,-2.7c-0.41,-0.76,-1,-1.14,-1.76,-1.14c-0.23,0,-0.47,0.04,-0.74,0.14c-0.26,0.09,-0.65,0.3,-1.17,0.63m8.52,-6.13l6.63,0l0,0.34l-4.12,12.29l-1.02,0l3.69,-11.14l-3.4,0c-0.68,0,-1.17,0.08,-1.47,0.24c-0.51,0.28,-0.92,0.71,-1.23,1.29l-0.26,-0.1l1.18,-2.93m8.14,6.26c0,-1.41,0.21,-2.62,0.63,-3.64c0.42,-1.01,0.99,-1.77,1.69,-2.27c0.54,-0.39,1.11,-0.59,1.69,-0.59c0.94,0,1.8,0.48,2.55,1.45c0.94,1.19,1.41,2.82,1.41,4.87c0,1.43,-0.2,2.65,-0.62,3.66c-0.41,1,-0.94,1.73,-1.58,2.18c-0.64,0.45,-1.26,0.68,-1.85,0.68c-1.18,0,-2.16,-0.69,-2.94,-2.09c-0.66,-1.17,-0.99,-2.59,-0.99,-4.24m1.78,0.22c0,1.7,0.21,3.09,0.63,4.17c0.34,0.9,0.86,1.36,1.55,1.36c0.32,0,0.66,-0.14,1.02,-0.44c0.35,-0.29,0.62,-0.78,0.8,-1.48c0.28,-1.04,0.42,-2.52,0.42,-4.42c0,-1.41,-0.14,-2.59,-0.43,-3.53c-0.21,-0.7,-0.5,-1.19,-0.84,-1.48c-0.24,-0.2,-0.55,-0.3,-0.9,-0.3c-0.41,0,-0.78,0.18,-1.1,0.55c-0.43,0.5,-0.73,1.29,-0.89,2.38c-0.15,1.08,-0.23,2.15,-0.23,3.2" fill="#000000" stroke="none" fill-opacity="1"/>
<path d="m547.26,360.35l0,0.33c-0.8,0.07,-1.45,0.23,-1.96,0.47c-0.5,0.24,-1.01,0.6,-1.5,1.1c-0.49,0.49,-0.9,1.04,-1.23,1.64c-0.32,0.6,-0.59,1.32,-0.81,2.15c0.87,-0.6,1.75,-0.9,2.63,-0.9c0.84,0,1.57,0.34,2.2,1.02c0.62,0.68,0.93,1.55,0.93,2.62c0,1.03,-0.31,1.97,-0.94,2.83c-0.75,1.03,-1.75,1.55,-2.99,1.55c-0.84,0,-1.56,-0.28,-2.15,-0.84c-1.15,-1.08,-1.73,-2.5,-1.73,-4.23c0,-1.1,0.22,-2.16,0.66,-3.15c0.44,-0.99,1.07,-1.88,1.9,-2.65c0.82,-0.77,1.61,-1.29,2.36,-1.56c0.75,-0.26,1.45,-0.4,2.1,-0.4l0.52,0m-5.67,6.39c-0.1,0.82,-0.16,1.48,-0.16,1.99c0,0.58,0.1,1.21,0.32,1.9c0.21,0.68,0.53,1.22,0.96,1.62c0.31,0.28,0.68,0.42,1.13,0.42c0.52,0,1,-0.24,1.41,-0.74c0.41,-0.49,0.62,-1.21,0.62,-2.13c0,-1.04,-0.2,-1.94,-0.62,-2.7c-0.41,-0.76,-1,-1.14,-1.76,-1.14c-0.23,0,-0.47,0.04,-0.74,0.14c-0.26,0.09,-0.65,0.3,-1.17,0.63m10.23,0c-0.98,-0.8,-1.61,-1.44,-1.89,-1.93c-0.28,-0.48,-0.42,-0.99,-0.42,-1.51c0,-0.8,0.31,-1.49,0.93,-2.07c0.62,-0.58,1.44,-0.87,2.47,-0.87c0.99,0,1.8,0.27,2.41,0.81c0.6,0.54,0.91,1.15,0.91,1.85c0,0.46,-0.16,0.93,-0.49,1.41c-0.32,0.48,-1.01,1.04,-2.05,1.69c1.07,0.82,1.78,1.47,2.12,1.95c0.46,0.62,0.69,1.27,0.69,1.96c0,0.87,-0.33,1.61,-0.99,2.23c-0.66,0.61,-1.53,0.92,-2.61,0.92c-1.17,0,-2.09,-0.36,-2.74,-1.1c-0.52,-0.59,-0.78,-1.23,-0.78,-1.93c0,-0.54,0.18,-1.09,0.55,-1.62c0.36,-0.53,1,-1.13,1.9,-1.78m1.43,-0.97c0.73,-0.65,1.19,-1.17,1.38,-1.55c0.19,-0.38,0.29,-0.81,0.29,-1.29c0,-0.63,-0.17,-1.13,-0.53,-1.5c-0.35,-0.36,-0.84,-0.54,-1.47,-0.54c-0.62,0,-1.12,0.17,-1.51,0.53c-0.38,0.35,-0.58,0.77,-0.58,1.26c0,0.31,0.08,0.63,0.24,0.94c0.16,0.31,0.39,0.61,0.68,0.9l1.49,1.24m-1,1.32c-0.5,0.42,-0.87,0.89,-1.12,1.39c-0.24,0.5,-0.36,1.04,-0.36,1.62c0,0.78,0.21,1.41,0.64,1.88c0.42,0.47,0.97,0.7,1.63,0.7c0.65,0,1.18,-0.18,1.57,-0.55c0.39,-0.37,0.59,-0.82,0.59,-1.35c0,-0.43,-0.11,-0.83,-0.34,-1.17c-0.43,-0.64,-1.3,-1.48,-2.62,-2.52m6,-0.22c0,-1.41,0.21,-2.62,0.63,-3.64c0.42,-1.01,0.99,-1.77,1.69,-2.27c0.54,-0.39,1.11,-0.59,1.69,-0.59c0.94,0,1.8,0.48,2.55,1.45c0.94,1.19,1.41,2.82,1.41,4.87c0,1.43,-0.2,2.65,-0.62,3.66c-0.41,1,-0.94,1.73,-1.58,2.18c-0.64,0.45,-1.26,0.68,-1.85,0.68c-1.18,0,-2.16,-0.69,-2.94,-2.09c-0.66,-1.17,-0.99,-2.59,-0.99,-4.24m1.78,0.22c0,1.7,0.21,3.09,0.63,4.17c0.34,0.9,0.86,1.36,1.55,1.36c0.32,0,0.66,-0.14,1.02,-0.44c0.35,-0.29,0.62,-0.78,0.8,-1.48c0.28,-1.04,0.42,-2.52,0.42,-4.42c0,-1.41,-0.14,-2.59,-0.43,-3.53c-0.21,-0.7,-0.5,-1.19,-0.84,-1.48c-0.24,-0.2,-0.55,-0.3,-0.9,-0.3c-0.41,0,-0.78,0.18,-1.1,0.55c-0.43,0.5,-0.73,1.29,-0.89,2.38c-0.15,1.08,-0.23,2.15,-0.23,3.2" fill="#000000" stroke="none" fill-opacity="1"/>
</g>
<g fill="none" stroke-linecap="butt" stroke-width="0.66">
<path d="M64.25,7.55l495.11,0"/>
<path d="M64.25,7.55l0,4M105.51,7.55l0,4M146.77,7.55l0,4M188.03,7.55l0,4M229.29,7.55l0,4M270.55,7.55l0,4M311.81,7.55l0,4M353.07,7.55l0,4M394.33,7.55l0,4M435.59,7.55l0,4M476.85,7.55l0,4M518.11,7.55l0,4M559.37,7.55l0,4"/>
<path d="M64.25,7.55l0,8M146.77,7.55l0,8M229.29,7.55l0,8M311.81,7.55l0,8M394.33,7.55l0,8M476.85,7.55l0,8M559.37,7.55l0,8"/>
</g>
</g>
</g>
</svg>
